<?xml version="1.0" encoding="UTF-8" standalone="no"?>
<svg
   xmlns:dc="http://purl.org/dc/elements/1.1/"
   xmlns:cc="http://creativecommons.org/ns#"
   xmlns:rdf="http://www.w3.org/1999/02/22-rdf-syntax-ns#"
   xmlns:svg="http://www.w3.org/2000/svg"
   xmlns="http://www.w3.org/2000/svg"
   xmlns:sodipodi="http://sodipodi.sourceforge.net/DTD/sodipodi-0.dtd"
   xmlns:inkscape="http://www.inkscape.org/namespaces/inkscape"
   viewBox="0 0 64 64.000002"
   height="64"
   width="64"
   xml:space="preserve"
   id="svg2"
   version="1.1"
   sodipodi:docname="DIGI876481124_DBIcon9.svg"
   inkscape:version="0.92.3 (2405546, 2018-03-11)"><sodipodi:namedview
     pagecolor="#ffffff"
     bordercolor="#666666"
     borderopacity="1"
     objecttolerance="10"
     gridtolerance="10"
     guidetolerance="10"
     inkscape:pageopacity="0"
     inkscape:pageshadow="2"
     inkscape:window-width="1920"
     inkscape:window-height="986"
     id="namedview3393"
     showgrid="false"
     showborder="false"
     inkscape:zoom="4.3044146"
     inkscape:cx="147.52917"
     inkscape:cy="8.6526651"
     inkscape:window-x="-11"
     inkscape:window-y="-11"
     inkscape:window-maximized="1"
     inkscape:current-layer="svg2" /><metadata
     id="metadata8"><rdf:RDF><cc:Work
         rdf:about=""><dc:format>image/svg+xml</dc:format><dc:type
           rdf:resource="http://purl.org/dc/dcmitype/StillImage" /><dc:title></dc:title></cc:Work></rdf:RDF></metadata><defs
     id="defs6"><clipPath
       clipPathUnits="userSpaceOnUse"
       id="clipPath3397"><rect
         style="opacity:0;fill:#ff7f2a;fill-opacity:1;stroke-width:0.75"
         id="rect3399"
         width="130.59845"
         height="130.5"
         x="1.4784731"
         y="-475.57553"
         rx="5.9137502"
         ry="0.6696893"
         transform="scale(1,-1)" /></clipPath></defs><g
     transform="matrix(0.49005176,0,0,-0.49042146,-0.72452835,233.23245)"
     id="g10"
     clip-path="url(#clipPath3397)"><g
       transform="scale(0.1)"
       id="g12"><path
         id="path14"
         style="fill:#100f0d;fill-opacity:1;fill-rule:nonzero;stroke:none"
         d="m 1680.73,7373.62 c 24.06,-1.21 48.21,-4.64 71.89,-10.23 25.14,-5.93 47.85,-15.34 67.49,-27.96 19.45,-12.51 35.43,-29.27 47.47,-49.81 11.99,-20.45 18.07,-46.07 18.07,-76.15 0,-21.83 -5.13,-42.48 -15.28,-61.38 -10.23,-19.06 -24.29,-35.96 -41.82,-50.22 -17.59,-14.33 -38.3,-25.79 -61.55,-34.06 -23.25,-8.26 -48.02,-12.45 -73.32,-12.46 l -3.14,0.19 z m -44.14,-0.73 h 2.37 l 10.25,-320.78 -18.67,2.57 c -0.41,0.06 -0.83,0.07 -1.24,0.02 -11.24,-1.26 -17.44,-8.15 -17.44,-19.41 0,-6 1.61,-10.96 4.77,-14.75 2.96,-3.56 6.83,-6.24 11.46,-7.98 4.32,-1.62 9.35,-2.61 14.93,-2.95 5.23,-0.33 10.62,-0.5 16.19,-0.5 38.75,0 74.96,4.35 107.6,12.92 32.84,8.61 61.71,21.74 85.85,39.02 24.27,17.38 43.56,39.41 57.33,65.49 13.78,26.08 21.09,57.02 21.75,92.37 -1.97,34 -10.29,63.65 -24.75,88.14 -14.44,24.43 -33.56,44.88 -56.82,60.77 -23.15,15.81 -50.23,27.79 -80.48,35.61 -29.1,7.5 -60.23,11.88 -92.59,13.03 -5.74,13.01 -14.51,13.27 -19.34,12.39 -4.95,0.89 -13.93,0.51 -17.89,-12.36 -9.09,-0.4 -15.86,-2.27 -20.61,-5.66 -7.31,-5.2 -8.84,-11.36 -8.84,-15.62 0,-5.25 2.38,-10.19 7.08,-14.68 4.51,-4.32 10.77,-6.88 19.09,-7.64"
         inkscape:connector-curvature="0" /><path
         id="path16"
         style="fill:#100f0d;fill-opacity:1;fill-rule:nonzero;stroke:none"
         d="m 2022.32,7154.62 c 0,6.31 1.49,15.37 4.42,26.92 2.91,11.49 7.91,23.18 14.84,34.75 6.83,11.38 16.16,21.41 27.75,29.8 11.26,8.15 25.66,12.28 42.79,12.28 7.68,0 15.68,-1.51 23.76,-4.5 8.09,-3.01 15.7,-7.42 22.61,-13.13 6.96,-5.74 13.1,-12.58 18.28,-20.32 5,-7.51 8.61,-17.22 10.73,-28.85 l 1.89,-37.43 c 0,-19.94 -0.47,-34.34 -1.39,-42.69 -0.94,-7.44 -2.36,-15.02 -4.23,-22.5 -0.11,-0.45 -0.15,-0.9 -0.12,-1.33 -4.63,-13.45 -13.3,-23.3 -26.43,-30.08 -14.13,-7.29 -30.43,-11 -48.47,-11 -17.88,0 -32.52,3.54 -43.52,10.53 -11.14,7.07 -19.99,15.98 -26.3,26.5 -6.39,10.65 -10.8,22.48 -13.08,35.13 -2.35,12.96 -3.53,25.05 -3.53,35.92 z m -21.05,-97.64 c 9.53,-15.55 23.13,-28.67 40.44,-38.98 17.36,-10.36 40.41,-15.62 68.48,-15.62 18.71,0 36.21,2.51 52.02,7.44 13.41,4.19 25.13,10.81 34.92,19.7 3.08,-6.89 7.5,-12.11 13.18,-15.59 7.17,-4.36 15.64,-7.11 25.18,-8.16 9.89,-1.08 17.64,-0.12 23.7,2.91 0.08,0.05 0.16,0.09 0.24,0.13 l 3.37,1.93 c 0.38,0.22 0.74,0.49 1.06,0.8 1.78,1.8 3.39,3.67 4.83,5.64 1.71,2.35 2.8,4.71 3.37,8 0,12.17 -6.05,20.47 -17.47,24.03 -0.49,0.15 -0.99,0.22 -1.49,0.22 -5.07,0 -8.91,0.86 -11.43,2.54 -2.53,1.68 -4.29,3.77 -5.35,6.38 -1.19,2.92 -1.8,6.32 -1.8,10.13 v 20.22 c 0,13.45 0.08,27.39 0.24,41.81 0.16,14.41 0.4,27.68 0.73,39.91 0.31,20.68 1.28,41.29 2.88,61.36 0.62,10.1 1.42,18.89 2.36,26.13 0.92,7.01 2.13,12.64 3.6,16.76 0.2,0.54 0.3,1.11 0.3,1.69 0,3.89 -1.62,9.55 -9.34,14.35 -10.52,6.54 -23.49,6.5 -32.37,1.26 -4.73,-2.8 -7.94,-7.67 -9.66,-15.23 l -0.6,-7.73 c -10.85,10.38 -21.99,17.87 -33.23,22.35 -13.84,5.5 -30.09,8.29 -48.28,8.29 -17.2,0 -32.67,-2.54 -46.02,-7.54 -13.31,-4.98 -25.03,-11.66 -34.88,-19.84 -9.83,-8.17 -18.19,-17.63 -24.84,-28.11 -6.56,-10.32 -11.97,-20.89 -16.09,-31.42 -4.12,-10.55 -7.11,-20.9 -8.91,-30.75 -1.82,-9.86 -2.74,-18.74 -2.74,-26.4 0,-14.69 1.57,-31 4.65,-48.5 3.15,-17.87 9.51,-34.73 18.95,-50.11"
         inkscape:connector-curvature="0" /><path
         id="path18"
         style="fill:#100f0d;fill-opacity:1;fill-rule:nonzero;stroke:none"
         d="m 2301.35,7241.29 c 4.01,-1.91 8.64,-3.49 13.77,-4.68 4.42,-1.03 9.24,-2.14 14.47,-3.31 0.31,-0.14 0.63,-0.25 0.97,-0.32 2.97,-0.67 5.96,-1.24 8.93,-1.73 1.54,-0.25 3.12,-0.54 4.75,-0.84 -0.54,-10.55 -0.95,-20.27 -1.22,-29.2 -0.34,-10.16 -0.49,-20.55 -0.49,-31.19 0,-24.51 1.31,-46.75 3.89,-66.1 2.62,-19.66 7.06,-36.41 13.16,-49.78 6.31,-13.81 15.02,-24.39 25.88,-31.46 9.27,-6.04 20.59,-9.07 33.65,-9.07 2.47,0 5,0.1 7.59,0.32 20.33,1.04 35.48,7.58 45.02,19.43 9.19,11.38 15.52,28.62 18.85,51.25 0.07,0.46 0.08,0.93 0.01,1.4 -1.1,8.12 -4.17,14.74 -9.12,19.69 -9.3,9.32 -21.73,10.12 -30.57,2.7 -4.04,-3.41 -6.49,-8.55 -7.25,-15.08 -1.52,-9.69 -4.02,-18 -7.45,-24.72 -2.82,-5.53 -6.84,-8.1 -12.64,-8.1 -5.59,0 -22.61,0 -27.75,35.07 -1.59,12.68 -2.79,28.97 -3.57,48.43 -0.81,19.45 -1.21,42.78 -1.21,69.33 v 12.95 c 0.24,-0.01 0.44,-0.03 0.6,-0.07 4.48,-0.82 16.46,-0.62 26.79,-0.32 5.68,0.16 11.07,0.76 16.03,1.79 5.22,1.08 9.66,2.76 13.2,5 4.2,2.66 6.89,6.64 7.87,12.41 0,2.62 -0.37,5.45 -1.12,8.43 -1,4 -4.21,7.42 -9.53,10.19 -4.49,2.34 -11.16,4.3 -20.4,6.02 -7.9,1.46 -18.83,2.29 -32.54,2.45 l 0.54,6.75 c 1.6,25 2.96,45.6 4.09,61.81 1.11,16.14 2.16,29.16 3.14,39.55 0,0.47 0.06,1.1 0.19,1.96 0.19,1.37 0.28,2.65 0.22,3 0.64,3.88 1.22,7.43 1.7,10.66 0.47,3.16 1.02,6.47 1.72,10.45 0.63,7.96 -0.97,14.06 -4.74,18.15 -5.75,6.23 -14.87,7.55 -31.1,2.41 -0.57,-0.18 -1.11,-0.46 -1.59,-0.83 -5.62,-4.43 -9.15,-13.16 -10.77,-26.68 -1.45,-12.06 -2.68,-27.3 -3.64,-45.32 -0.65,-12.16 -1.44,-25.21 -2.4,-39.13 -0.82,-11.91 -1.9,-24.33 -3.22,-37.02 -2.96,0.75 -6.17,1.45 -9.61,2.12 -13.27,2.58 -26.22,2.59 -35.96,-1.79 -6.05,-2.72 -10.1,-7.81 -11.78,-15.04 -0.86,-5.1 -0.05,-9.61 2.41,-13.4 2.26,-3.5 5.69,-6.37 10.23,-8.54"
         inkscape:connector-curvature="0" /><path
         id="path20"
         style="fill:#100f0d;fill-opacity:1;fill-rule:nonzero;stroke:none"
         d="m 2561.48,7154.62 c 0,6.31 1.49,15.37 4.42,26.92 2.91,11.49 7.91,23.18 14.84,34.75 6.83,11.38 16.16,21.41 27.75,29.8 11.26,8.15 25.66,12.28 42.79,12.28 7.68,0 15.68,-1.51 23.76,-4.5 8.09,-3.01 15.7,-7.42 22.61,-13.13 6.96,-5.74 13.1,-12.58 18.28,-20.32 5,-7.51 8.61,-17.22 10.73,-28.85 l 1.89,-37.43 c 0,-19.94 -0.47,-34.34 -1.39,-42.69 -0.94,-7.44 -2.36,-15.02 -4.23,-22.5 -0.11,-0.45 -0.15,-0.9 -0.12,-1.33 -4.63,-13.45 -13.3,-23.3 -26.43,-30.08 -14.13,-7.29 -30.43,-11 -48.47,-11 -17.88,0 -32.52,3.54 -43.52,10.53 -11.14,7.07 -19.99,15.98 -26.3,26.5 -6.39,10.65 -10.8,22.48 -13.08,35.13 -2.35,12.96 -3.53,25.05 -3.53,35.92 z m -21.05,-97.64 c 9.53,-15.55 23.13,-28.67 40.44,-38.98 17.36,-10.36 40.41,-15.62 68.48,-15.62 18.71,0 36.21,2.51 52.02,7.44 13.41,4.19 25.13,10.81 34.92,19.7 3.08,-6.89 7.5,-12.11 13.18,-15.59 7.17,-4.36 15.64,-7.11 25.18,-8.16 9.88,-1.08 17.64,-0.12 23.7,2.91 0.08,0.05 0.16,0.09 0.24,0.13 l 3.37,1.93 c 0.38,0.22 0.74,0.49 1.06,0.8 1.78,1.8 3.39,3.67 4.83,5.64 1.71,2.35 2.8,4.71 3.37,8 0,12.17 -6.05,20.47 -17.47,24.03 -0.49,0.15 -0.99,0.22 -1.49,0.22 -5.07,0 -8.91,0.86 -11.43,2.54 -2.53,1.68 -4.29,3.77 -5.35,6.38 -1.19,2.92 -1.8,6.32 -1.8,10.13 v 20.22 c 0,13.45 0.08,27.39 0.24,41.81 0.16,14.41 0.4,27.68 0.73,39.91 0.31,20.68 1.28,41.29 2.88,61.36 0.62,10.1 1.42,18.89 2.36,26.13 0.92,7.01 2.13,12.64 3.6,16.76 0.2,0.54 0.3,1.11 0.3,1.69 0,3.89 -1.62,9.55 -9.34,14.35 -10.52,6.54 -23.49,6.5 -32.37,1.26 -4.73,-2.8 -7.94,-7.67 -9.66,-15.23 l -0.6,-7.73 c -10.84,10.38 -21.99,17.87 -33.23,22.35 -13.84,5.5 -30.09,8.29 -48.28,8.29 -17.2,0 -32.67,-2.54 -46.02,-7.54 -13.31,-4.98 -25.03,-11.66 -34.88,-19.84 -9.83,-8.17 -18.19,-17.63 -24.84,-28.11 -6.56,-10.32 -11.97,-20.89 -16.09,-31.42 -4.12,-10.55 -7.11,-20.9 -8.91,-30.75 -1.82,-9.86 -2.74,-18.74 -2.74,-26.4 0,-14.69 1.57,-31 4.65,-48.5 3.15,-17.87 9.51,-34.73 18.95,-50.11"
         inkscape:connector-curvature="0" /><path
         id="path22"
         style="fill:#100f0d;fill-opacity:1;fill-rule:nonzero;stroke:none"
         d="m 2984.36,7258.37 c 16.1,0 30.91,-2.03 44.02,-6.04 12.81,-3.92 23.8,-10.17 32.66,-18.57 8.84,-8.4 15.78,-19.49 20.63,-32.95 4.92,-13.68 7.41,-30.36 7.41,-49.56 0,-20.62 -3.31,-37.76 -9.83,-50.95 -6.55,-13.23 -14.82,-23.82 -24.59,-31.49 -9.84,-7.72 -20.81,-13.24 -32.62,-16.42 -23.64,-6.37 -44.97,-6.66 -68.01,0.21 -11.31,3.35 -21.67,8.3 -30.8,14.69 -9.01,6.31 -16.47,14.23 -22.18,23.53 -5.57,9.1 -8.41,19.56 -8.41,31.08 0,0.21 0,1.36 -0.02,1.56 -0.95,7.83 -1.59,23.36 -1.9,46.15 -0.3,21.62 -0.17,36.09 0.36,43.07 4.44,7.16 10.05,13.71 16.69,19.48 6.92,6.02 14.54,10.75 22.7,14.08 8.99,3.72 18.28,6.71 27.6,8.89 9.25,2.15 18.1,3.24 26.29,3.24 z m -143.23,-247.33 h 0.01 c 10.92,0.36 19.76,3.95 26.27,10.66 6.14,6.32 10.04,11.75 11.91,16.6 0.74,1.91 1.47,3.86 2.2,5.84 29.79,-27.74 64.47,-41.78 103.2,-41.78 0.84,0 1.68,0.01 2.53,0.02 8.16,0 17.75,0.66 28.51,1.96 11.05,1.34 21.99,4.47 32.53,9.32 10.3,4.74 20.76,10.8 31.08,18.01 10.49,7.32 19.94,16.6 28.1,27.59 8.14,10.97 14.78,24.15 19.75,39.18 4.95,15.04 7.47,32.81 7.47,52.81 0,51.93 -14.33,91.06 -42.58,116.33 -27.44,24.47 -63.69,36.87 -107.75,36.87 -18.34,0 -36.74,-2.48 -54.86,-7.43 -7.67,-2.33 -15.5,-5.61 -23.27,-9.75 -4.94,-2.64 -9.81,-5.77 -14.54,-9.38 v 1.36 c 0,4.55 -0.71,24.14 -2.17,59.87 -1.44,34.95 -2.81,64.03 -4.1,86.45 -1.28,22.31 -2.73,45.19 -4.34,68.64 -0.76,10.61 -3.54,17.55 -8.5,21.23 -8.99,6.63 -19.7,7.49 -30.35,-1.96 -5.63,-5 -7.72,-13.44 -6.25,-24.82 3.52,-45.34 6.02,-90.68 7.46,-134.75 1.43,-44.22 2.15,-84.24 2.15,-118.93 v -29.6 c 0,-9.4 -0.16,-18.23 -0.47,-26.63 -0.33,-21.99 -0.89,-42.42 -1.68,-60.72 -0.8,-18.24 -1.85,-35.75 -3.13,-52.13 -0.25,-4.35 -2.46,-9.03 -6.5,-13.89 -1.9,-2.21 -4.59,-5.22 -8.07,-9.01 -0.23,-0.25 -0.43,-0.52 -0.6,-0.81 -4.81,-8.03 -5.49,-15.29 -2.02,-21.58 2.41,-4.37 7.44,-9.57 18.01,-9.57"
         inkscape:connector-curvature="0" /><path
         id="path24"
         style="fill:#100f0d;fill-opacity:1;fill-rule:nonzero;stroke:none"
         d="m 3225.74,7154.62 c 0,6.31 1.49,15.37 4.42,26.92 2.91,11.49 7.9,23.18 14.84,34.75 6.83,11.38 16.17,21.41 27.75,29.8 11.27,8.15 25.67,12.28 42.79,12.28 7.69,0 15.69,-1.51 23.77,-4.5 8.08,-3.01 15.69,-7.42 22.6,-13.13 6.96,-5.74 13.11,-12.58 18.27,-20.32 5,-7.51 8.62,-17.22 10.74,-28.85 l 1.9,-37.43 c 0,-19.94 -0.48,-34.34 -1.41,-42.69 -0.92,-7.44 -2.34,-15.02 -4.21,-22.5 -0.12,-0.45 -0.15,-0.9 -0.12,-1.33 -4.64,-13.45 -13.3,-23.3 -26.44,-30.08 -14.13,-7.29 -30.44,-11 -48.47,-11 -17.88,0 -32.52,3.54 -43.52,10.53 -11.14,7.07 -19.99,15.98 -26.3,26.5 -6.38,10.65 -10.79,22.48 -13.07,35.13 -2.35,12.96 -3.54,25.05 -3.54,35.92 z m -21.04,-97.64 c 9.52,-15.55 23.12,-28.67 40.43,-38.98 17.37,-10.36 40.41,-15.62 68.48,-15.62 18.72,0 36.22,2.51 52.01,7.44 13.43,4.19 25.14,10.81 34.93,19.7 3.08,-6.89 7.5,-12.11 13.19,-15.59 7.16,-4.36 15.62,-7.11 25.16,-8.16 9.9,-1.08 17.65,-0.12 23.71,2.91 0.08,0.05 0.16,0.09 0.24,0.13 l 3.37,1.93 c 0.39,0.22 0.74,0.49 1.05,0.8 1.8,1.8 3.41,3.67 4.85,5.64 1.7,2.35 2.8,4.71 3.36,8 0,12.17 -6.04,20.47 -17.47,24.03 -0.48,0.15 -0.98,0.22 -1.49,0.22 -5.07,0 -8.9,0.86 -11.42,2.54 -2.54,1.68 -4.29,3.77 -5.36,6.38 -1.19,2.92 -1.79,6.32 -1.79,10.13 v 20.22 c 0,13.45 0.08,27.39 0.24,41.81 0.16,14.41 0.39,27.68 0.71,39.91 0.32,20.68 1.28,41.29 2.89,61.36 0.63,10.1 1.42,18.89 2.37,26.13 0.92,7.01 2.13,12.64 3.6,16.76 0.2,0.54 0.3,1.11 0.3,1.69 0,3.89 -1.63,9.55 -9.35,14.35 -10.52,6.54 -23.5,6.5 -32.36,1.26 -4.74,-2.8 -7.95,-7.67 -9.66,-15.23 l -0.6,-7.73 c -10.85,10.38 -21.99,17.87 -33.23,22.35 -13.85,5.5 -30.09,8.29 -48.28,8.29 -17.2,0 -32.69,-2.54 -46.03,-7.54 -13.3,-4.98 -25.04,-11.66 -34.88,-19.84 -9.83,-8.17 -18.19,-17.63 -24.84,-28.11 -6.56,-10.32 -11.97,-20.89 -16.08,-31.42 -4.12,-10.55 -7.13,-20.9 -8.92,-30.75 -1.81,-9.86 -2.73,-18.74 -2.73,-26.4 0,-14.69 1.56,-31 4.64,-48.5 3.15,-17.87 9.52,-34.73 18.96,-50.11"
         inkscape:connector-curvature="0" /><path
         id="path26"
         style="fill:#100f0d;fill-opacity:1;fill-rule:nonzero;stroke:none"
         d="m 3528.05,7034.56 c 10.27,-8.46 22.28,-15.52 35.7,-20.99 13.53,-5.51 28.33,-8.31 43.98,-8.31 16.25,0 30.76,2.38 43.16,7.06 12.41,4.71 22.98,10.94 31.4,18.54 8.5,7.65 14.98,16.29 19.25,25.69 4.3,9.44 6.47,19.12 6.47,28.78 0,18.93 -4.28,34.56 -12.72,46.44 -8.23,11.6 -18.79,21.22 -31.38,28.61 -12.33,7.23 -25.71,13.13 -39.76,17.53 -13.75,4.32 -26.68,8.82 -38.43,13.38 -11.54,4.46 -21.17,9.57 -28.63,15.21 -6.59,4.96 -9.8,11.61 -9.8,20.3 0,2.53 0.53,6.22 1.57,10.96 0.96,4.4 3.18,8.94 6.58,13.47 3.4,4.53 8.36,8.59 14.75,12.08 6.27,3.43 15.18,5.17 26.48,5.17 16.35,0 28.87,-2.45 37.19,-7.27 8.37,-4.85 14.52,-10.29 18.25,-16.15 3.72,-5.87 5.81,-11.27 6.22,-16.04 0.45,-5.24 0.69,-8.23 0.7,-8.98 0,-0.38 0.05,-0.75 0.14,-1.12 1.51,-6.5 3.81,-11.1 6.98,-14.06 3.41,-3.17 8.38,-4.72 15.21,-4.72 14.7,0 22.8,7.76 22.8,21.84 0,13.13 -2.4,25.44 -7.14,36.61 -4.76,11.2 -11.73,21.02 -20.73,29.18 -8.97,8.11 -20.06,14.52 -32.98,19.05 -12.82,4.5 -27.38,6.78 -43.27,6.78 -19.95,0 -36.58,-3.34 -49.45,-9.93 -12.77,-6.56 -22.89,-14.55 -30.04,-23.75 -7.13,-9.16 -12.05,-18.85 -14.62,-28.78 -2.53,-9.82 -3.76,-17.78 -3.76,-24.34 0,-17.46 4.33,-31.71 12.89,-42.35 8.25,-10.29 18.83,-18.82 31.42,-25.36 12.28,-6.39 25.62,-11.7 39.65,-15.77 13.56,-3.94 26.42,-8.42 38.22,-13.29 11.38,-4.7 20.89,-10.67 28.29,-17.74 6.89,-6.64 10.24,-15.45 10.24,-26.96 0,-2.78 -0.9,-6.12 -2.66,-9.92 -1.79,-3.86 -4.79,-7.69 -8.91,-11.37 -4.16,-3.75 -9.86,-6.99 -16.95,-9.63 -7.1,-2.67 -16.05,-4.02 -26.63,-4.02 -10.92,0 -19.83,1.2 -26.47,3.56 -6.61,2.35 -12.07,5.36 -16.21,8.94 -4.22,3.63 -7.69,7.68 -10.29,12.02 -2.49,4.14 -4.86,8.29 -7.1,12.43 -0.06,0.3 -0.15,0.6 -0.28,0.89 -2.67,6.35 -6.03,12.81 -9.97,19.2 -4.86,7.91 -12.24,11.55 -21.42,10.54 -8.56,-0.95 -13.94,-2.79 -16.93,-5.76 -3.13,-3.13 -4.59,-8.31 -4.59,-16.29 0,-10.76 3.04,-21.7 9.04,-32.51 5.9,-10.61 14.15,-20.32 24.54,-28.85"
         inkscape:connector-curvature="0" /><path
         id="path28"
         style="fill:#100f0d;fill-opacity:1;fill-rule:nonzero;stroke:none"
         d="m 3790.28,7190.8 c 2.87,8.86 6.55,17.18 10.99,24.83 5.51,9.47 12.16,17.98 19.74,25.28 18.85,16.38 41.35,24.68 66.89,24.68 18.67,0 34.34,-3.14 46.58,-9.32 12.34,-6.27 22.27,-13.71 29.49,-22.14 7.25,-8.45 12.43,-17.2 15.42,-26.01 2,-5.9 3.34,-11.09 4.03,-15.52 -1.21,0.08 -2.5,0.15 -3.85,0.22 -12.93,0.62 -34.43,0.56 -61.18,0.25 -13.3,-0.17 -26.83,-0.25 -40.69,-0.25 l -53.41,-0.96 c -13.35,-0.26 -24.74,-0.61 -34.01,-1.06 z m -14.67,-136.66 c 12.45,-14.28 28.31,-25.95 47.14,-34.7 18.87,-8.76 41.43,-13.21 67.07,-13.21 12.56,0 25.22,1.68 37.61,4.97 12.36,3.29 24.17,8.07 35.09,14.19 10.88,6.09 20.93,13.46 29.85,21.9 8.53,8.04 15.66,17.2 21.22,27.24 0.29,0.27 0.54,0.57 0.75,0.92 4.59,7.26 6.1,14.16 4.47,20.51 -1.58,6.12 -4.75,10.88 -9.45,14.18 -4.58,3.17 -9.83,4.72 -15.53,4.49 -6.15,-0.22 -11.38,-2.99 -15.59,-8.75 -8.81,-17.28 -21.72,-30.66 -38.13,-39.63 -9.05,-4.36 -17.86,-7.82 -26.21,-10.29 -8.15,-2.42 -16.25,-3.65 -24.08,-3.65 -18.54,0 -34.6,2.64 -47.72,7.83 -13.02,5.15 -23.72,12.25 -31.84,21.11 -8.12,8.87 -14.07,19.24 -17.67,30.84 -3.26,10.41 -5.09,21.37 -5.48,32.67 15.99,1.37 32.29,2.35 48.51,2.94 17.96,0.64 36.56,1.28 55.78,1.92 39.1,0.96 74.34,1.44 104.27,1.47 15.13,-1.48 22.16,5.26 25.53,11.16 4.33,7.57 6.43,18.61 6.43,33.76 0,12.88 -3.32,26.33 -9.89,39.94 -6.48,13.49 -15.85,25.89 -27.82,36.88 -11.92,10.92 -26.58,20.06 -43.56,27.15 -17.06,7.13 -36.41,10.73 -57.5,10.73 -23.73,0 -45.09,-4.45 -63.51,-13.24 -18.33,-8.76 -34.08,-20.4 -46.8,-34.61 -12.72,-14.22 -22.53,-30.63 -29.12,-48.79 -6.59,-18.1 -9.93,-36.8 -9.93,-55.61 0,-18.72 2.91,-37.36 8.65,-55.39 5.79,-18.22 15.03,-34.68 27.46,-48.93"
         inkscape:connector-curvature="0" /><path
         id="path30"
         style="fill:#100f0d;fill-opacity:1;fill-rule:nonzero;stroke:none"
         d="m 4454.76,7334.85 c 3.66,-1.67 7.75,-3.21 12.15,-4.56 4.6,-1.42 9.15,-2.15 13.52,-2.15 9.25,0 17.9,2.44 25.71,7.24 7.75,4.76 14,11.27 18.58,19.35 0.33,0.6 0.49,1.23 0.53,1.88 4.23,8.12 6.37,16.24 6.37,24.17 0,9.13 -2.23,17.86 -6.62,25.97 -4.45,8.18 -10.85,14.66 -19.02,19.28 0,0.01 -0.01,0.01 -0.01,0.01 -8.77,4.9 -17.04,7.38 -24.58,7.38 -4.97,0 -10.33,-0.89 -16.17,-2.72 -13.19,-4.86 -23.59,-13.32 -31.06,-25.41 -2.47,-4.6 -4.17,-9.01 -5.05,-13.09 -0.88,-3.99 -1.32,-7.99 -1.32,-11.91 0,-8.28 2.51,-16.6 7.46,-24.72 4.83,-7.93 11.1,-14.73 19.51,-20.72"
         inkscape:connector-curvature="0" /><path
         id="path32"
         style="fill:#100f0d;fill-opacity:1;fill-rule:nonzero;stroke:none"
         d="m 4463.79,7300.92 c -4.73,-3.87 -7.13,-9.71 -7.13,-17.23 l -5.77,-251.66 c -0.01,-0.42 0.04,-0.85 0.13,-1.26 1.51,-6.43 4.37,-11.58 8.48,-15.3 4.29,-3.9 9.39,-5.87 15.15,-5.87 5.02,0 9.81,1.83 14.24,5.46 4.57,3.74 7.27,9.4 8.05,16.82 0.02,0.14 0.03,0.28 0.03,0.42 l 4.82,251.27 c 0,7.73 -2.62,13.61 -7.78,17.48 -9.82,7.36 -21.71,6.86 -30.22,-0.13"
         inkscape:connector-curvature="0" /><path
         id="path34"
         style="fill:#100f0d;fill-opacity:1;fill-rule:nonzero;stroke:none"
         d="m 4597.05,7052.48 c 11.64,-13.49 26.8,-24.53 45.03,-32.81 18.21,-8.28 40.76,-12.48 67.02,-12.48 25.03,0 46.66,4.38 64.29,13.02 17.49,8.58 31.82,18.92 42.62,30.71 10.8,11.79 18.72,24.04 23.58,36.43 4.93,12.59 7.32,22.63 7.32,30.7 0,13.31 -7.15,21.74 -20.88,23.77 -14.11,0 -19.78,-8.14 -22.07,-14.96 -2.53,-7.6 -5.32,-15.1 -8.29,-22.29 -2.84,-6.87 -7.74,-14.35 -14.56,-22.23 -6.79,-7.84 -16.01,-14.9 -27.44,-20.99 -11.23,-5.99 -26.23,-9.04 -44.57,-9.04 -18.18,0 -33.8,2.71 -46.42,8.04 -12.54,5.28 -22.84,12.52 -30.63,21.52 -7.85,9.04 -13.66,19.67 -17.29,31.61 -3.69,12.15 -5.55,25.18 -5.55,38.73 0,14.21 2.18,28.26 6.5,41.79 4.27,13.46 10.77,25.61 19.33,36.14 8.46,10.45 19.33,19.08 32.29,25.64 12.86,6.51 28.22,9.81 45.63,9.81 17.02,0 32.63,-3.84 46.42,-11.41 13.57,-7.46 24.27,-19.48 31.8,-35.74 0.07,-0.14 0.15,-0.29 0.23,-0.43 11.01,-18.73 22.48,-25.91 34.04,-21.37 11.18,4.39 16.03,13.72 13.69,26.16 -2.37,14.22 -7.87,27.02 -16.36,38.08 -8.37,10.86 -18.6,20.09 -30.45,27.44 -11.76,7.27 -24.74,12.88 -38.6,16.68 -13.84,3.79 -27.56,5.71 -40.77,5.71 -26.02,0 -48.72,-4.88 -67.49,-14.5 -18.68,-9.6 -34.29,-22.19 -46.38,-37.42 -12.06,-15.2 -21.02,-32.44 -26.62,-51.25 -5.57,-18.65 -8.39,-37.27 -8.39,-55.33 0,-18.07 2.58,-35.94 7.67,-53.14 5.14,-17.45 13.66,-33.13 25.3,-46.59"
         inkscape:connector-curvature="0" /><path
         id="path36"
         style="fill:#100f0d;fill-opacity:1;fill-rule:nonzero;stroke:none"
         d="m 4911.02,7148.37 c 0,41.79 9.18,72.77 27.28,92.09 18.01,19.23 44.54,28.97 78.88,28.97 13.13,0 26.16,-2.32 38.7,-6.91 12.37,-4.53 23.48,-11.81 33.01,-21.64 9.58,-9.87 17.47,-22.75 23.46,-38.26 6.01,-15.54 9.06,-34.6 9.06,-56.66 0,-17.45 -2.84,-32.27 -8.43,-44.05 -5.56,-11.72 -13.23,-21.29 -22.78,-28.46 -9.7,-7.27 -21.18,-12.66 -34.11,-16 -23.22,-6.03 -50.79,-7.59 -78.84,-0.47 -11.95,3.02 -22.93,8.23 -32.62,15.5 -9.61,7.22 -17.71,17.09 -24.07,29.34 -6.32,12.23 -9.54,27.89 -9.54,46.55 z m 4.73,-111.78 c 14.41,-10.94 30.54,-18.83 47.93,-23.45 17.14,-4.59 33.85,-6.91 49.65,-6.91 20.89,0 40.84,2.57 59.3,7.63 18.75,5.14 35.26,13.74 49.09,25.57 13.85,11.84 24.9,27.36 32.86,46.11 7.93,18.65 11.95,41.57 11.95,68.12 0,26.2 -4.18,49.51 -12.41,69.29 -8.26,19.8 -19.41,36.54 -33.15,49.79 -13.74,13.24 -29.87,23.33 -47.94,29.97 -17.98,6.59 -36.77,9.93 -55.85,9.93 -24.6,0 -46.59,-3.76 -65.36,-11.18 -18.93,-7.48 -35.02,-18.52 -47.84,-32.83 -12.76,-14.25 -22.5,-31.7 -28.95,-51.85 -6.39,-20 -9.62,-43.01 -9.62,-68.41 0,-26.99 4.8,-49.87 14.29,-68 9.43,-18.05 21.56,-32.78 36.05,-43.78"
         inkscape:connector-curvature="0" /><path
         id="path38"
         style="fill:#100f0d;fill-opacity:1;fill-rule:nonzero;stroke:none"
         d="m 5218.48,7265.12 c 1.98,-3.3 3.88,-6.28 5.69,-8.91 1.59,-2.32 2.68,-4.04 3.27,-5.2 0.05,-0.1 0.11,-0.21 0.17,-0.3 l 1.25,-4.05 c 0.04,-0.61 0.15,-1.4 0.46,-2.17 l 5.77,-214.5 c 0,-6.91 2.33,-12.53 6.92,-16.69 4.45,-4.05 9.8,-6.11 15.88,-6.11 5.6,0 10.77,1.81 15.34,5.39 4.84,3.78 7.52,9.06 7.94,15.76 0.32,7.73 0.56,19.1 0.72,34.08 0.16,14.69 0.73,31.22 1.68,49.12 0.95,17.69 2.8,36.15 5.49,54.88 2.67,18.51 6.72,35.52 12.04,50.53 5.22,14.73 12.02,26.98 20.23,36.39 7.74,8.89 17.37,13.21 29.43,13.21 14.33,0 25.45,-2.55 33.09,-7.59 7.63,-5.06 13.42,-11.94 17.18,-20.46 3.93,-8.93 6.47,-19.49 7.54,-31.39 1.12,-12.53 2,-25.73 2.63,-39.23 l 0.96,-139.81 c 0,-11.13 6.56,-17.52 18,-17.52 15.5,0 22.07,8.26 24.84,15.18 0.24,0.59 0.36,1.22 0.36,1.86 v 139.54 c 0,24.28 -1.89,45.51 -5.63,63.12 -3.82,17.9 -9.93,32.78 -18.17,44.23 -8.39,11.61 -19.31,20.28 -32.46,25.74 -12.92,5.37 -28.53,8.09 -46.42,8.09 -9.55,0 -18.67,-0.76 -27.1,-2.25 -8.68,-1.53 -16.88,-4.38 -24.37,-8.47 -7.59,-4.13 -14.47,-9.88 -20.45,-17.06 -3.63,-4.35 -6.98,-9.47 -10.04,-15.32 -0.45,1.25 -0.94,2.52 -1.43,3.82 -2.33,5.97 -5.03,11.63 -8.04,16.81 -3.16,5.45 -6.93,10.02 -11.23,13.61 -9.83,8.18 -23.76,7.72 -32.71,-0.07 -4.8,-4.18 -7.24,-9.34 -7.24,-15.32 0,-2.84 0.99,-6 3.02,-9.63 1.64,-2.95 3.43,-6.05 5.39,-9.31"
         inkscape:connector-curvature="0" /><path
         id="path40"
         style="fill:#100f0d;fill-opacity:1;fill-rule:nonzero;stroke:none"
         d="m 5533.44,7034.55 c 10.27,-8.45 22.28,-15.51 35.69,-20.98 13.53,-5.51 28.33,-8.31 43.98,-8.31 16.25,0 30.78,2.38 43.16,7.06 12.4,4.7 22.97,10.93 31.41,18.54 8.5,7.66 14.98,16.3 19.24,25.69 4.29,9.43 6.47,19.11 6.47,28.78 0,18.95 -4.28,34.57 -12.72,46.44 -8.23,11.6 -18.79,21.22 -31.37,28.61 -12.34,7.23 -25.72,13.13 -39.77,17.53 -13.74,4.32 -26.67,8.82 -38.43,13.38 -11.54,4.45 -21.17,9.57 -28.63,15.21 -6.59,4.96 -9.8,11.61 -9.8,20.3 0,2.54 0.53,6.22 1.58,10.97 0.95,4.39 3.16,8.91 6.56,13.45 3.42,4.54 8.39,8.61 14.77,12.09 6.27,3.43 15.17,5.17 26.47,5.17 16.35,0 28.87,-2.45 37.19,-7.27 8.39,-4.86 14.53,-10.29 18.25,-16.15 3.72,-5.88 5.81,-11.28 6.22,-16.05 0.46,-5.24 0.69,-8.22 0.7,-8.97 0,-0.38 0.05,-0.75 0.14,-1.12 1.51,-6.5 3.81,-11.1 6.98,-14.06 3.4,-3.17 8.37,-4.72 15.21,-4.72 14.7,0 22.8,7.76 22.8,21.84 0,13.13 -2.4,25.45 -7.14,36.61 -4.74,11.2 -11.73,21.02 -20.73,29.18 -8.97,8.11 -20.06,14.52 -32.97,19.05 -12.83,4.5 -27.39,6.78 -43.28,6.78 -19.95,0 -36.58,-3.34 -49.44,-9.93 -12.78,-6.56 -22.89,-14.55 -30.05,-23.75 -7.13,-9.17 -12.04,-18.85 -14.61,-28.77 -2.5,-9.66 -3.77,-17.85 -3.77,-24.35 0,-17.46 4.33,-31.71 12.89,-42.35 8.26,-10.29 18.84,-18.82 31.42,-25.36 12.29,-6.39 25.63,-11.7 39.65,-15.77 13.56,-3.94 26.41,-8.41 38.22,-13.29 11.38,-4.7 20.89,-10.67 28.28,-17.75 6.9,-6.62 10.25,-15.44 10.25,-26.95 0,-2.77 -0.9,-6.11 -2.66,-9.92 -1.79,-3.86 -4.79,-7.69 -8.91,-11.38 -4.16,-3.74 -9.86,-6.98 -16.95,-9.62 -7.09,-2.67 -16.05,-4.02 -26.63,-4.02 -10.92,0 -19.83,1.2 -26.46,3.56 -6.62,2.35 -12.07,5.36 -16.22,8.94 -4.23,3.65 -7.69,7.69 -10.28,12.02 -2.49,4.15 -4.87,8.3 -7.11,12.45 -0.06,0.3 -0.16,0.59 -0.28,0.87 -2.67,6.34 -6.02,12.8 -9.97,19.2 -4.86,7.92 -12.38,11.55 -21.4,10.54 -8.59,-0.95 -13.97,-2.79 -16.95,-5.76 -3.13,-3.13 -4.59,-8.31 -4.59,-16.29 0,-10.76 3.05,-21.7 9.05,-32.51 5.89,-10.61 14.15,-20.32 24.54,-28.86"
         inkscape:connector-curvature="0" /><path
         id="path42"
         style="fill:#100f0d;fill-opacity:1;fill-rule:nonzero;stroke:none"
         d="M 5700.89,6948.89 H 1622.92 c -8.28,0 -15,-6.72 -15,-15 0,-8.29 6.72,-15 15,-15 h 4077.97 c 8.28,0 15,6.71 15,15 0,8.28 -6.72,15 -15,15"
         inkscape:connector-curvature="0" /><path
         id="path44"
         style="fill:#100f0d;fill-opacity:1;fill-rule:nonzero;stroke:none"
         d="m 653.039,5398.57 c -107.894,0 -180.379,47.69 -180.379,92.25 v 34.24 c 40.078,-33.61 105.078,-55.34 180.379,-55.34 75.305,0 140.305,21.73 180.387,55.34 v -34.24 c 0,-44.56 -72.488,-92.25 -180.387,-92.25 z m 0,226.69 c -107.894,0 -180.379,47.69 -180.379,92.24 v 34.25 c 40.078,-33.61 105.078,-55.34 180.379,-55.34 75.305,0 140.305,21.73 180.387,55.34 v -34.25 c 0,-44.55 -72.488,-92.24 -180.387,-92.24 z m -180.379,13.15 c 40.078,-33.61 105.078,-55.33 180.379,-55.33 75.305,0 140.305,21.72 180.387,55.33 v -34.24 c 0,-44.56 -72.488,-92.26 -180.387,-92.26 -107.894,0 -180.379,47.7 -180.379,92.26 z m 180.379,284.67 c 107.899,0 180.387,-47.68 180.387,-92.24 0,-44.56 -72.488,-92.24 -180.387,-92.24 -107.894,0 -180.379,47.68 -180.379,92.24 0,44.56 72.485,92.24 180.379,92.24 z m 0,42.19 c -124.805,0 -222.566,-59.06 -222.566,-134.43 v -340.02 c 0,-75.38 97.761,-134.43 222.566,-134.43 124.813,0 222.57,59.05 222.57,134.43 v 340.02 c 0,75.37 -97.757,134.43 -222.57,134.43"
         inkscape:connector-curvature="0" /><path
         id="path46"
         style="fill:#100f0d;fill-opacity:1;fill-rule:nonzero;stroke:none"
         d="m 1167.24,5856.79 c 10.41,25.86 15.87,53.09 16.16,82.65 h 0.06 c 3.99,42.57 -7.5,82.72 -33.16,117.84 -41.86,69.32 -114.64,110.68 -194.687,110.68 -18.847,0 -37.593,-2.41 -56.023,-7.19 -11.516,178.92 -160.754,320.95 -342.539,320.95 -189.262,0 -343.235,-153.98 -343.235,-343.26 0,-43.77 8.489,-87.34 24.739,-127.85 C 106.23,6005.93 0,5896.82 0,5763.36 c 0,-136.43 110.984,-247.41 247.41,-247.41 11.66,0 21.094,9.43 21.094,21.09 0,11.66 -9.434,21.09 -21.094,21.09 -113.168,0 -205.2225,92.06 -205.2225,205.23 0,113.17 92.0545,205.22 205.2225,205.22 5.172,0 10.156,-0.74 15.141,-1.42 l 7.828,-1.01 c 7.578,-0.66 15.387,2.66 19.797,9.13 4.406,6.49 4.836,14.87 1.152,21.77 -23.113,43.32 -35.328,92.22 -35.328,141.41 0,166.01 135.047,301.07 301.051,301.07 166.004,0 301.074,-135.06 301.074,-301.07 h 18.086 l 0.305,-0.8 -18.723,-5.5 c -0.125,-7.09 3.293,-13.74 9.125,-17.76 5.785,-4.03 13.246,-4.9 19.84,-2.2 85.215,34.27 180.732,0.55 228.432,-78.24 20.44,-28.05 29.28,-58.54 26.31,-94.07 0,-31.13 -8.28,-61.59 -24.62,-90.57 -3.66,-6.51 -3.62,-14.46 0.13,-20.93 3.73,-6.45 10.61,-10.47 18.06,-10.53 71.05,-0.61 128.82,-58.85 128.82,-129.79 0,-71.64 -58.29,-129.94 -129.93,-129.94 -11.66,0 -21.1,-9.43 -21.1,-21.09 0,-11.66 9.44,-21.09 21.1,-21.09 94.92,0 172.12,77.2 172.12,172.12 0,83.16 -59.9,153.11 -138.84,168.72"
         inkscape:connector-curvature="0" /><path
         id="path48"
         style="fill:#100f0d;fill-opacity:1;fill-rule:nonzero;stroke:none"
         d="m 477.148,2157.83 v 32.59 c 39.336,-32.61 102.602,-53.67 175.891,-53.67 73.297,0 136.57,21.07 175.914,53.67 v -32.59 c 0,-43.33 -70.691,-89.73 -175.914,-89.73 -105.219,0 -175.891,46.4 -175.891,89.73 z m 175.891,422.2 c 105.223,0 175.914,-46.39 175.914,-89.73 0,-43.34 -70.691,-89.72 -175.914,-89.72 -105.219,0 -175.891,46.38 -175.891,89.72 0,43.34 70.672,89.73 175.891,89.73 z M 477.148,2412.06 c 39.336,-32.6 102.602,-53.67 175.891,-53.67 73.297,0 136.57,21.07 175.914,53.67 v -32.58 c 0,-43.34 -70.691,-89.73 -175.914,-89.73 -105.219,0 -175.891,46.39 -175.891,89.73 z m 0,-110.82 c 39.336,-32.61 102.602,-53.67 175.891,-53.67 73.297,0 136.57,21.07 175.914,53.67 v -32.58 c 0,-43.34 -70.691,-89.73 -175.914,-89.73 -105.219,0 -175.891,46.39 -175.891,89.73 z m 393.993,-143.41 v 332.47 c 0,73.97 -95.805,131.92 -218.102,131.92 -122.293,0 -218.078,-57.95 -218.078,-131.92 v -332.47 c 0,-73.96 95.785,-131.91 218.078,-131.91 122.297,0 218.102,57.95 218.102,131.91"
         inkscape:connector-curvature="0" /><path
         id="path50"
         style="fill:#100f0d;fill-opacity:1;fill-rule:nonzero;stroke:none"
         d="m 1297.62,2463.81 c -9.32,7.02 -22.56,5.05 -29.52,-4.26 l -60.96,-81.57 c -24.03,260.02 -222.386,467.91 -484.992,500.96 -275.011,34.83 -530.027,-133.69 -606.074,-400.61 -3.195,-11.2 3.293,-22.88 14.5,-26.07 11.309,-3.29 22.906,3.27 26.078,14.5 70.305,246.73 306.036,402.43 560.223,370.32 244.207,-30.73 428.215,-225.04 448.595,-467.39 l -84.12,62.83 c -9.33,6.98 -22.58,5.07 -29.52,-4.27 -6.98,-9.32 -5.07,-22.55 4.27,-29.51 l 123.79,-92.47 c 3.79,-2.84 8.22,-4.2 12.61,-4.2 6.42,0 12.77,2.92 16.91,8.47 l 92.47,123.76 c 6.98,9.32 5.07,22.55 -4.26,29.51"
         inkscape:connector-curvature="0" /><path
         id="path52"
         style="fill:#100f0d;fill-opacity:1;fill-rule:nonzero;stroke:none"
         d="m 1177.32,2195.9 c -11.11,3.19 -22.84,-3.31 -26.08,-14.49 -70.28,-246.65 -305.955,-402.52 -560.244,-370.38 -244.113,30.73 -428.086,224.93 -448.574,467.18 l 82.539,-64.36 c 9.144,-7.15 22.449,-5.55 29.598,3.64 7.168,9.19 5.543,22.45 -3.649,29.6 l -121.84,95.02 c -4.41,3.47 -10.031,4.92 -15.57,4.31 -5.543,-0.68 -10.59,-3.55 -14.0273,-7.95 L 4.47266,2216.65 c -7.17579,-9.19 -5.54297,-22.46 3.64062,-29.61 3.85152,-3 8.42972,-4.46 12.96092,-4.46 6.2774,0 12.5,2.78 16.6406,8.11 l 62.9302,80.69 c 23.539,-260.59 222.074,-469.11 485.078,-502.2 24.043,-3.03 47.875,-4.51 71.476,-4.51 246.793,0 465.201,161.64 534.621,405.15 3.19,11.21 -3.3,22.89 -14.5,26.08"
         inkscape:connector-curvature="0" /><path
         id="path54"
         style="fill:#100f0d;fill-opacity:1;fill-rule:nonzero;stroke:none"
         d="m 1116.22,3840.51 c -17.51,-201.92 -200.029,-245.8 -228.579,-251.43 -27.008,5.58 -211.325,50.98 -228.731,251.43 -12.914,149.11 -16.992,221.27 -18.265,251.71 39.484,5.36 131.332,24.31 246.933,90.51 115.602,-66.2 207.432,-85.15 246.922,-90.51 -1.28,-30.44 -5.34,-102.6 -18.28,-251.71 z M 518.738,3597.24 c -188.48,0 -347.73,85.36 -347.73,186.39 v 102.88 c 63.769,-74.14 193.867,-123.97 347.73,-123.97 38.789,0 75.305,4.12 110.293,10.15 17.457,-61.97 49.934,-107.7 86.496,-140.85 -56.523,-21.38 -124.121,-34.6 -196.789,-34.6 z m -347.73,496.75 c 63.769,-74.13 193.867,-123.96 347.73,-123.96 30.098,0 58.91,2.44 86.856,6.09 2.711,-36.6 6.347,-82.2 11.293,-139.26 0.699,-8 2.234,-15.2 3.375,-22.78 -32.403,-5.59 -66.172,-9.35 -101.524,-9.35 -188.48,0 -347.73,85.36 -347.73,186.39 z m 0,207.48 c 63.769,-74.14 193.867,-123.97 347.73,-123.97 153.871,0 283.981,49.83 347.746,123.97 v -82.03 c -142.332,-81.42 -247.312,-87.11 -248.379,-87.15 -11.265,-0.5 -20.187,-9.75 -20.226,-21.01 0,-1.37 0.023,-23.03 4.707,-92.73 -27.055,-3.78 -54.93,-6.33 -83.848,-6.33 -188.48,0 -347.73,85.34 -347.73,186.37 z m 347.73,291.02 c 188.496,0 347.746,-85.37 347.746,-186.41 0,-101.03 -159.25,-186.39 -347.746,-186.39 -188.48,0 -347.73,85.36 -347.73,186.39 0,101.04 159.25,186.41 347.73,186.41 z m 638.292,-460.2 c -1.06,0.04 -106.03,5.73 -248.358,87.15 v 186.64 c 0,128.19 -171.281,228.59 -389.934,228.59 -218.636,0 -389.91,-100.4 -389.91,-228.59 v -622.45 c 0,-128.18 171.274,-228.58 389.91,-228.58 89.719,0 170.325,17.71 235.485,46.53 65.066,-43.42 128.75,-54.59 130,-54.79 1.109,-0.19 2.246,-0.27 3.355,-0.27 1.113,0 2.246,0.08 3.36,0.27 2.449,0.39 245.822,42.41 267.312,290.07 18.97,218.45 19.01,272.23 19.01,274.42 -0.04,11.26 -8.96,20.51 -20.23,21.01"
         inkscape:connector-curvature="0" /><path
         id="path56"
         style="fill:#100f0d;fill-opacity:1;fill-rule:nonzero;stroke:none"
         d="m 933.758,3956.95 c 0,-25.48 -20.719,-46.2 -46.18,-46.2 -25.48,0 -46.203,20.72 -46.203,46.2 0,25.46 20.723,46.18 46.203,46.18 25.461,0 46.18,-20.72 46.18,-46.18 z m -134.57,0 c 0,-41.43 28.765,-76.04 67.296,-85.56 v -83.28 c 0,-11.66 9.438,-21.1 21.094,-21.1 11.66,0 21.094,9.44 21.094,21.1 v 83.28 c 38.527,9.52 67.273,44.13 67.273,85.56 0,48.74 -39.629,88.37 -88.367,88.37 -48.738,0 -88.39,-39.63 -88.39,-88.37"
         inkscape:connector-curvature="0" /><path
         id="path58"
         style="fill:#100f0d;fill-opacity:1;fill-rule:nonzero;stroke:none"
         d="m 1069.76,759.941 c 0,-124.171 -186.928,-225.179 -416.709,-225.179 -229.778,0 -416.735,101.008 -416.735,225.179 v 133.09 c 71.957,-91.75 229.352,-154.179 416.735,-154.179 187.371,0 344.762,62.429 416.709,154.179 z m 0,-246.281 c 0,-124.172 -186.928,-225.18 -416.709,-225.18 -229.778,0 -416.735,101.008 -416.735,225.18 v 133.07 c 71.957,-91.742 229.352,-154.16 416.735,-154.16 187.371,0 344.762,62.418 416.709,154.16 z m 0,-246.281 c 0,-124.16 -186.928,-225.1993 -416.709,-225.1993 -229.778,0 -416.735,101.0393 -416.735,225.1993 v 133.07 c 71.957,-91.738 229.352,-154.148 416.735,-154.148 187.371,0 344.762,62.41 416.709,154.148 z M 653.051,1231.43 c 229.781,0 416.709,-101.02 416.709,-225.19 0,-124.17 -186.928,-225.209 -416.709,-225.209 -229.778,0 -416.735,101.039 -416.735,225.209 0,124.17 186.957,225.19 416.735,225.19 z m 0,42.18 c -257.34,0 -458.918,-117.43 -458.918,-267.37 V 267.379 C 194.133,117.449 395.711,0 653.051,0 910.371,0 1111.95,117.449 1111.95,267.379 v 738.861 c 0,149.94 -201.579,267.37 -458.899,267.37"
         inkscape:connector-curvature="0" /><path
         id="path60"
         style="fill:#100f0d;fill-opacity:1;fill-rule:nonzero;stroke:none"
         d="m 3035.98,5398.57 c -50.26,0 -89.23,22.03 -89.23,40.98 v 124.98 c 23.29,-13.57 54.33,-21.95 89.23,-21.95 34.89,0 65.93,8.38 89.23,21.95 v -124.98 c 0,-18.95 -38.97,-40.98 -89.23,-40.98 z m 0,268.12 c 50.26,0 89.23,-22.02 89.23,-40.97 0,-18.93 -38.97,-40.95 -89.23,-40.95 -50.26,0 -89.23,22.02 -89.23,40.95 0,18.95 38.97,40.97 89.23,40.97 z m -300.99,-40.97 c 0,-18.93 -38.97,-40.95 -89.23,-40.95 -50.26,0 -89.24,22.02 -89.24,40.95 0,18.95 38.98,40.97 89.24,40.97 50.26,0 89.23,-22.02 89.23,-40.97 z m -89.23,-227.15 c -50.26,0 -89.24,22.03 -89.24,40.98 v 124.98 c 23.3,-13.57 54.34,-21.95 89.24,-21.95 34.89,0 65.93,8.38 89.23,21.95 v -124.98 c 0,-18.95 -38.97,-40.98 -89.23,-40.98 z m -300.99,227.15 c 0,-18.93 -38.98,-40.95 -89.23,-40.95 -50.27,0 -89.24,22.02 -89.24,40.95 0,18.95 38.97,40.97 89.24,40.97 50.25,0 89.23,-22.02 89.23,-40.97 z m -89.23,-227.15 c -50.27,0 -89.24,22.03 -89.24,40.98 v 124.98 c 23.3,-13.57 54.34,-21.95 89.24,-21.95 34.89,0 65.93,8.38 89.23,21.95 v -124.98 c 0,-18.95 -38.98,-40.98 -89.23,-40.98 z m 17.11,728.13 c 0,66.22 53.87,120.09 120.09,120.09 2.84,0 5.61,-0.43 8.35,-0.82 l 5.04,-0.64 c 7.75,-0.99 15.41,2.61 19.84,9.08 4.4,6.49 4.86,14.87 1.17,21.8 -14.01,26.26 -21.11,54.66 -21.11,84.47 0,99.18 80.68,179.87 179.85,179.87 99.18,0 179.87,-80.69 179.66,-183.72 -0.11,-7.05 3.34,-13.7 9.15,-17.69 5.82,-4.02 13.26,-4.8 19.77,-2.21 49.77,19.94 104.86,0.56 133.15,-46.1 11.57,-15.9 16.6,-33.1 14.89,-54.01 0,-18.03 -4.82,-35.74 -14.31,-52.63 -3.67,-6.51 -3.63,-14.46 0.12,-20.91 3.73,-6.46 10.61,-10.46 18.07,-10.53 39.98,-0.32 72.48,-33.1 72.48,-73.01 0,-40.32 -32.79,-73.11 -73.1,-73.11 h -553.02 c -66.22,0 -120.09,53.86 -120.09,120.07 z m 784.42,-419.13 v 113.79 c 0,11.66 -9.43,21.1 -21.09,21.1 h -369.13 v 121.98 h 278.91 c 63.56,0 115.29,51.73 115.29,115.3 0,52.52 -35.66,97.18 -84.04,110.87 4.67,14.14 7.16,29.03 7.43,45.2 l 0.08,-0.02 c 2.64,28.14 -5.25,55.76 -21.81,78.36 -32.42,53.7 -94.73,82.06 -156.04,70.18 -11.84,111.35 -106.35,198.4 -220.79,198.4 -122.44,0 -222.04,-99.61 -222.04,-222.05 0,-24.68 4.19,-49.27 12.22,-72.55 -81.68,-8.38 -145.59,-77.57 -145.59,-161.43 0,-89.46 72.79,-162.26 162.27,-162.26 h 231.92 v -121.98 h -369.12 c -11.66,0 -21.1,-9.44 -21.1,-21.1 v -113.79 c -63.26,-6.25 -110.33,-39.8 -110.33,-81.85 v -186.17 c 0,-46.64 57.72,-83.16 131.43,-83.16 73.7,0 131.42,36.52 131.42,83.16 v 186.17 c 0,42.05 -47.07,75.6 -110.33,81.85 v 92.7 h 348.03 v -92.7 c -63.25,-6.25 -110.32,-39.8 -110.32,-81.85 v -186.17 c 0,-46.64 57.71,-83.16 131.42,-83.16 73.7,0 131.42,36.52 131.42,83.16 v 186.17 c 0,42.05 -47.07,75.6 -110.33,81.85 v 92.7 h 348.04 v -92.7 c -63.26,-6.25 -110.33,-39.8 -110.33,-81.85 v -186.17 c 0,-46.64 57.72,-83.16 131.42,-83.16 73.7,0 131.42,36.52 131.42,83.16 v 186.17 c 0,42.05 -47.07,75.6 -110.33,81.85"
         inkscape:connector-curvature="0" /><path
         id="path62"
         style="fill:#100f0d;fill-opacity:1;fill-rule:nonzero;stroke:none"
         d="m 3149.46,2116.35 -64.33,-12.21 c -8.53,-1.63 -15.2,-8.31 -16.81,-16.86 -6.41,-34.33 -19.59,-66.24 -39.18,-94.83 -4.9,-7.17 -4.92,-16.62 -0.02,-23.79 l 36.77,-54.03 -24.21,-24.23 -54.04,36.8 c -7.13,4.92 -16.59,4.85 -23.8,-0.03 -28.57,-19.58 -60.5,-32.77 -94.86,-39.22 -8.52,-1.58 -15.22,-8.25 -16.82,-16.79 l -12.2,-64.31 h -34.25 l -12.22,64.31 c -1.63,8.54 -8.3,15.21 -16.83,16.79 -34.38,6.45 -66.29,19.64 -94.85,39.22 -7.17,4.86 -16.63,4.93 -23.8,0.03 l -54.05,-36.8 -24.2,24.21 36.79,54.05 c 4.9,7.17 4.88,16.62 -0.02,23.79 -19.61,28.61 -32.8,60.52 -39.2,94.83 -1.61,8.55 -8.28,15.23 -16.81,16.86 l -64.31,12.21 v 34.25 l 64.31,12.2 c 8.53,1.62 15.2,8.3 16.81,16.85 6.4,34.33 19.59,66.25 39.2,94.86 4.9,7.17 4.92,16.62 0.02,23.81 l -36.79,54.01 24.22,24.2 54.03,-36.76 c 7.19,-4.93 16.61,-4.87 23.8,0.01 28.56,19.59 60.47,32.78 94.85,39.22 8.53,1.6 15.2,8.27 16.83,16.79 l 12.22,64.31 h 34.25 l 12.2,-64.31 c 1.6,-8.52 8.3,-15.19 16.82,-16.81 34.36,-6.42 66.29,-19.61 94.86,-39.2 7.23,-4.9 16.65,-4.96 23.8,-0.01 l 54.02,36.76 24.23,-24.2 -36.77,-54.03 c -4.9,-7.17 -4.88,-16.6 0.02,-23.77 19.59,-28.63 32.77,-60.55 39.18,-94.88 1.61,-8.55 8.28,-15.23 16.81,-16.85 l 64.33,-12.2 z m -1007.4,2.22 v 95.02 c 58.99,-66.67 174.77,-111.73 312.08,-115.4 0.34,-9.82 7.33,-18.18 17.04,-20.03 l 67.69,-12.86 c 7.15,-30.01 18.85,-58.33 34.91,-84.49 l -21.97,-32.29 c -25.8,-3.66 -52.29,-6.25 -79.91,-6.25 -178.79,0 -329.84,80.75 -329.84,176.3 z m 0,292.45 c 61.55,-69.58 184.66,-116.12 329.84,-116.12 31.73,0 61.84,2.97 90.98,7.26 l 10.9,-16.02 c -16.06,-26.15 -27.76,-54.48 -34.91,-84.51 l -67.69,-12.83 c -9.95,-1.9 -17.16,-10.59 -17.16,-20.72 v -27.91 c -170.83,5.19 -311.96,83.46 -311.96,175.83 z m 0,197.41 c 61.55,-69.56 184.66,-116.12 329.84,-116.12 145.17,0 268.27,46.56 329.83,116.12 v -95.02 c 0,-3.75 -0.59,-7.43 -1.08,-11.13 h -12.41 c -10.14,0 -18.83,-7.2 -20.72,-17.15 l -11.13,-58.57 c -5.28,-4.86 -11.06,-9.54 -17.16,-14.11 -24.22,-7.22 -47.54,-16.72 -69.07,-29.94 l -56.89,38.72 c -8.34,5.68 -19.59,4.62 -26.78,-2.51 l -48.92,-48.93 c -7.17,-7.16 -8.22,-18.4 -2.51,-26.79 l 1.25,-1.84 c -20.96,-2.38 -42.34,-4.07 -64.41,-4.07 -178.79,0 -329.84,80.74 -329.84,176.32 z m 329.84,278.73 c 178.78,0 329.83,-80.75 329.83,-176.33 0,-95.58 -151.05,-176.33 -329.83,-176.33 -178.79,0 -329.84,80.75 -329.84,176.33 0,95.58 151.05,176.33 329.84,176.33 z m 702.59,-698.36 -67.71,12.83 c -7.13,30.01 -18.83,58.33 -34.92,84.51 l 38.73,56.88 c 5.7,8.37 4.65,19.61 -2.52,26.77 l -48.92,48.93 c -7.16,7.17 -18.39,8.21 -26.78,2.51 l -56.89,-38.72 c -26.14,16.06 -54.46,27.76 -84.5,34.93 l -12.83,67.69 c -1.89,9.95 -10.59,17.15 -20.72,17.15 h -13.52 v 208.55 c 0,122.52 -163.4,218.51 -372.01,218.51 -208.62,0 -372.03,-95.99 -372.03,-218.51 v -592.26 c 0,-122.52 163.41,-218.48 372.03,-218.48 21.07,0 41.4,1.39 61.38,3.34 1.03,-2.29 2.43,-4.44 4.29,-6.29 l 48.92,-48.93 c 7.19,-7.17 18.42,-8.25 26.78,-2.51 l 56.89,38.75 c 26.15,-16.07 54.47,-27.77 84.5,-34.94 l 12.86,-67.68 c 1.89,-9.96 10.58,-17.16 20.72,-17.16 h 69.19 c 10.13,0 18.83,7.2 20.72,17.16 l 12.83,67.68 c 30.04,7.15 58.36,18.87 84.5,34.94 l 56.89,-38.75 c 8.41,-5.76 19.65,-4.69 26.78,2.51 l 48.92,48.93 c 7.17,7.17 8.22,18.42 2.52,26.78 l -38.73,56.89 c 16.07,26.14 27.77,54.46 34.92,84.49 l 67.71,12.86 c 9.94,1.9 17.15,10.59 17.15,20.73 v 69.19 c 0,10.13 -7.21,18.82 -17.15,20.72"
         inkscape:connector-curvature="0" /><path
         id="path64"
         style="fill:#100f0d;fill-opacity:1;fill-rule:nonzero;stroke:none"
         d="m 2822.83,2016.96 c -64.25,0 -116.51,52.26 -116.51,116.51 0,64.24 52.26,116.5 116.51,116.5 64.24,0 116.5,-52.26 116.5,-116.5 0,-64.25 -52.26,-116.51 -116.5,-116.51 z m 0,275.2 c -87.51,0 -158.7,-71.18 -158.7,-158.69 0,-87.5 71.19,-158.7 158.7,-158.7 87.5,0 158.69,71.2 158.69,158.7 0,87.51 -71.19,158.69 -158.69,158.69"
         inkscape:connector-curvature="0" /><path
         id="path66"
         style="fill:#100f0d;fill-opacity:1;fill-rule:nonzero;stroke:none"
         d="m 2645.75,3588.71 c -115.23,0 -212.58,50.55 -212.58,110.37 v 46.35 c 45.23,-40.93 122.76,-67.45 212.58,-67.45 89.83,0 167.36,26.52 212.6,67.45 v -46.35 c 0,-59.82 -97.36,-110.37 -212.6,-110.37 z m 0,615.1 c 115.24,0 212.6,-50.55 212.6,-110.37 0,-59.82 -97.36,-110.35 -212.6,-110.35 -115.23,0 -212.58,50.53 -212.58,110.35 0,59.82 97.35,110.37 212.58,110.37 z M 2858.35,3962 c 0,-59.82 -97.36,-110.37 -212.6,-110.37 -115.23,0 -212.58,50.55 -212.58,110.37 v 46.34 c 45.23,-40.92 122.76,-67.44 212.58,-67.44 89.83,0 167.36,26.52 212.6,67.44 z m 0,-131.46 c 0,-59.82 -97.36,-110.37 -212.6,-110.37 -115.23,0 -212.58,50.55 -212.58,110.37 v 46.35 c 45.23,-40.93 122.76,-67.45 212.58,-67.45 89.83,0 167.36,26.52 212.6,67.45 z m -212.6,415.45 c -142.86,0 -254.77,-67.01 -254.77,-152.55 v -394.36 c 0,-85.55 111.91,-152.56 254.77,-152.56 142.87,0 254.78,67.01 254.78,152.56 v 394.36 c 0,85.54 -111.91,152.55 -254.78,152.55"
         inkscape:connector-curvature="0" /><path
         id="path68"
         style="fill:#100f0d;fill-opacity:1;fill-rule:nonzero;stroke:none"
         d="m 2645.75,4751.11 c 69.93,0 118.67,-30.32 118.67,-57.53 0,-27.21 -48.74,-57.51 -118.67,-57.51 -69.92,0 -118.65,30.3 -118.65,57.51 0,27.21 48.73,57.53 118.65,57.53 z m 0,-350.9 c -69.92,0 -118.65,30.33 -118.65,57.54 v 168.35 c 29.2,-19.78 71,-32.22 118.65,-32.22 47.65,0 89.46,12.45 118.67,32.22 v -168.35 c 0,-27.21 -48.74,-57.54 -118.67,-57.54 z m 0,-42.18 c 90.2,0 160.85,43.79 160.85,99.72 v 235.83 c 0,55.93 -70.65,99.72 -160.85,99.72 -90.19,0 -160.84,-43.79 -160.84,-99.72 v -235.83 c 0,-55.93 70.65,-99.72 160.84,-99.72"
         inkscape:connector-curvature="0" /><path
         id="path70"
         style="fill:#100f0d;fill-opacity:1;fill-rule:nonzero;stroke:none"
         d="m 2228.99,3944.18 c -8.23,8.24 -21.58,8.24 -29.82,0 -8.24,-8.24 -8.24,-21.59 0,-29.82 l 62.73,-62.73 h -182.8 v 714.26 h 226.19 c 11.66,0 21.1,9.44 21.1,21.09 0,11.66 -9.44,21.1 -21.1,21.1 H 2058 c -11.65,0 -21.09,-9.44 -21.09,-21.1 v -756.44 c 0,-11.66 9.44,-21.1 21.09,-21.1 h 203.91 l -62.74,-62.74 c -8.24,-8.24 -8.24,-21.59 0,-29.83 4.11,-4.12 9.51,-6.18 14.91,-6.18 5.4,0 10.79,2.06 14.91,6.18 l 98.75,98.75 c 3.96,3.96 6.18,9.32 6.18,14.92 0,5.6 -2.22,10.95 -6.18,14.91 l -98.75,98.73"
         inkscape:connector-curvature="0" /><path
         id="path72"
         style="fill:#100f0d;fill-opacity:1;fill-rule:nonzero;stroke:none"
         d="M 3233.51,4608.08 H 3029.6 l 62.75,62.74 c 8.23,8.24 8.23,21.59 0,29.83 -8.24,8.24 -21.59,8.24 -29.83,0 l -98.75,-98.75 c -3.96,-3.96 -6.18,-9.31 -6.18,-14.92 0,-5.6 2.22,-10.95 6.18,-14.91 l 98.75,-98.73 c 4.12,-4.12 9.51,-6.18 14.91,-6.18 5.4,0 10.8,2.06 14.92,6.18 8.23,8.24 8.23,21.59 0,29.83 l -62.74,62.72 h 182.81 v -714.26 h -226.2 c -11.66,0 -21.09,-9.43 -21.09,-21.09 0,-11.66 9.43,-21.1 21.09,-21.1 h 247.29 c 11.66,0 21.09,9.44 21.09,21.1 v 756.44 c 0,11.66 -9.43,21.1 -21.09,21.1"
         inkscape:connector-curvature="0" /><path
         id="path74"
         style="fill:#100f0d;fill-opacity:1;fill-rule:nonzero;stroke:none"
         d="m 2897.72,966.629 c -125.14,0 -230.87,55.241 -230.87,120.631 0,65.4 105.73,120.64 230.87,120.64 125.13,0 230.85,-55.24 230.85,-120.64 0,-65.39 -105.72,-120.631 -230.85,-120.631 z m 230.85,-21.09 c 0,-48.508 -58.48,-91.078 -139.6,-110.008 -16.29,34.211 -46.46,64.641 -87.11,89.071 96.61,0.828 179.43,30.128 226.71,74.82 z m 0,-141.738 c 0,-45.699 -51.96,-86.121 -125.77,-106.52 v 79.739 c 0,6.23 -0.68,12.339 -1.54,18.429 52.76,12.641 97.45,34.012 127.31,62.242 z m 0,-141.742 c 0,-45.707 -51.96,-86.118 -125.77,-106.508 v 98.527 c 52.07,12.703 96.2,33.922 125.77,61.883 z M 2960.61,210.082 c 0,-91.012 -144.19,-167.9023 -314.85,-167.9023 -170.66,0 -314.85,76.8903 -314.85,167.9023 v 88.438 c 59.67,-65.739 176.96,-109.54 314.85,-109.54 137.89,0 255.18,43.801 314.85,109.54 z m -797.67,451.977 v 53.902 c 29.57,-27.961 73.71,-49.172 125.78,-61.883 v -98.519 c -73.81,20.382 -125.78,60.8 -125.78,106.5 z m 0,195.632 c 29.86,-28.23 74.56,-49.589 127.31,-62.242 -0.86,-6.078 -1.53,-12.199 -1.53,-18.429 v -79.731 c -73.81,20.391 -125.78,60.813 -125.78,106.512 z m 0,141.739 c 47.28,-44.7 130.12,-73.989 226.71,-74.828 -40.65,-24.43 -70.81,-54.852 -87.11,-89.063 -81.12,18.922 -139.6,61.492 -139.6,110 z m 230.87,208.47 c 125.14,0 230.85,-55.24 230.85,-120.64 0,-65.39 -105.71,-120.631 -230.85,-120.631 -125.13,0 -230.87,55.241 -230.87,120.631 0,65.4 105.74,120.64 230.87,120.64 z m 251.95,-598.779 c -170.66,0 -314.85,76.899 -314.85,167.899 0,91.011 144.19,167.878 314.85,167.878 170.66,0 314.85,-76.867 314.85,-167.878 0,-91 -144.19,-167.899 -314.85,-167.899 z m 314.85,-21.09 c 0,-91.011 -144.19,-167.879 -314.85,-167.879 -170.66,0 -314.85,76.868 -314.85,167.879 v 88.43 c 59.67,-65.742 176.96,-109.531 314.85,-109.531 137.89,0 255.18,43.789 314.85,109.531 z m 0,-188.98 c 0,-91 -144.19,-167.879 -314.85,-167.879 -170.66,0 -314.85,76.879 -314.85,167.879 v 88.429 c 59.67,-65.73 176.96,-109.519 314.85,-109.519 137.89,0 255.18,43.789 314.85,109.519 z m -62.89,851.039 c -114.87,0 -211.07,-40.26 -251.96,-98.94 -40.88,58.68 -137.07,98.94 -251.95,98.94 -153.11,0 -273.05,-71.52 -273.05,-162.83 V 662.059 c 0,-68.887 68.7,-126.008 167.96,-150.157 V 210.082 C 2288.72,92.2695 2445.56,0 2645.76,0 c 200.2,0 357.04,92.2695 357.04,210.082 v 301.82 c 99.26,24.137 167.96,81.27 167.96,150.157 v 425.201 c 0,91.31 -119.93,162.83 -273.04,162.83"
         inkscape:connector-curvature="0" /><path
         id="path76"
         style="fill:#100f0d;fill-opacity:1;fill-rule:nonzero;stroke:none"
         d="m 5135.66,5593.75 c -50.26,0 -89.23,22.02 -89.23,40.95 v 124.98 c 23.3,-13.57 54.34,-21.95 89.23,-21.95 34.9,0 65.94,8.38 89.24,21.95 V 5634.7 c 0,-18.93 -38.97,-40.95 -89.24,-40.95 z m 89.24,227.14 c 0,-18.95 -38.97,-40.97 -89.24,-40.97 -50.26,0 -89.23,22.02 -89.23,40.97 0,18.93 38.97,40.95 89.23,40.95 50.27,0 89.24,-22.02 89.24,-40.95 z m -499.11,-195.17 c 0,-18.95 -38.98,-40.97 -89.23,-40.97 -50.24,0 -89.22,22.02 -89.22,40.97 0,18.95 38.98,40.97 89.22,40.97 50.25,0 89.23,-22.02 89.23,-40.97 z m -89.23,-227.15 c -50.24,0 -89.22,22.03 -89.22,40.98 v 124.96 c 23.3,-13.57 54.33,-21.95 89.22,-21.95 34.89,0 65.93,8.38 89.23,21.95 v -124.96 c 0,-18.95 -38.98,-40.98 -89.23,-40.98 z m 0,1167.58 c 118.27,0 218.19,-51.97 218.19,-113.5 0,-61.53 -99.92,-113.51 -218.19,-113.51 -118.26,0 -218.18,51.98 -218.18,113.51 0,61.53 99.92,113.5 218.18,113.5 z m 0,-403.82 c 92.45,0 172.12,27.48 218.19,69.77 v -48.67 c 0,-61.53 -99.92,-113.5 -218.19,-113.5 -118.26,0 -218.18,51.97 -218.18,113.5 v 48.66 c 46.07,-42.29 125.72,-69.76 218.18,-69.76 z m 218.19,155.71 c 0,-61.53 -99.92,-113.52 -218.19,-113.52 -118.26,0 -218.18,51.99 -218.18,113.52 v 48.66 c 46.07,-42.28 125.72,-69.75 218.18,-69.75 92.45,0 172.12,27.47 218.19,69.76 z m -218.19,-382.72 c -118.26,0 -218.18,51.99 -218.18,113.52 v 48.65 c 46.07,-42.28 125.72,-69.75 218.18,-69.75 92.45,0 172.12,27.47 218.19,69.76 v -48.66 c 0,-61.53 -99.92,-113.52 -218.19,-113.52 z m -495.3,-341.57 c -50.24,0 -89.21,22.02 -89.21,40.95 v 124.98 c 23.29,-13.57 54.33,-21.95 89.21,-21.95 34.89,0 65.94,8.38 89.24,21.95 V 5634.7 c 0,-18.93 -38.98,-40.95 -89.24,-40.95 z m 0,268.09 c 50.26,0 89.24,-22.02 89.24,-40.95 0,-18.95 -38.98,-40.97 -89.24,-40.97 -50.24,0 -89.21,22.02 -89.21,40.97 0,18.93 38.97,40.95 89.21,40.95 z m 994.4,42.19 c -20.45,0 -39.43,-3.04 -56.53,-8.1 l -203.96,89.7 c 13.95,19.24 21.77,40.56 21.77,63.21 v 403.81 c 0,87.3 -114.38,155.69 -260.38,155.69 -146,0 -260.37,-68.39 -260.37,-155.69 v -403.81 c 0,-23.15 8.22,-44.89 22.74,-64.44 l -201.14,-88.47 c -17.09,5.06 -36.08,8.1 -56.53,8.1 -73.68,0 -131.4,-36.53 -131.4,-83.14 V 5634.7 c 0,-46.61 57.72,-83.14 131.4,-83.14 73.7,0 131.42,36.53 131.42,83.14 v 186.19 c 0,19.11 -10.07,36.32 -26.6,50.21 l 184.9,81.32 c 43.28,-33.21 108.8,-55.19 184.49,-58.67 v -186.18 c -63.24,-6.25 -110.32,-39.81 -110.32,-81.85 v -186.17 c 0,-46.64 57.73,-83.16 131.41,-83.16 73.7,0 131.42,36.52 131.42,83.16 v 186.17 c 0,42.05 -47.07,75.6 -110.34,81.85 v 186.18 c 76.49,3.52 142.59,25.95 185.84,59.75 l 187.36,-82.4 c -16.53,-13.89 -26.59,-31.1 -26.59,-50.21 V 5634.7 c 0,-46.61 57.71,-83.14 131.41,-83.14 73.7,0 131.42,36.53 131.42,83.14 v 186.19 c 0,46.61 -57.72,83.14 -131.42,83.14"
         inkscape:connector-curvature="0" /><path
         id="path78"
         style="fill:#100f0d;fill-opacity:1;fill-rule:nonzero;stroke:none"
         d="m 4529.09,2315.46 c -69.91,0 -118.65,30.3 -118.65,57.51 v 168.35 c 29.2,-19.78 71,-32.21 118.65,-32.21 47.65,0 89.45,12.44 118.66,32.22 v -168.36 c 0,-27.21 -48.73,-57.51 -118.66,-57.51 z m 0,350.9 c 69.93,0 118.66,-30.33 118.66,-57.53 0,-27.22 -48.73,-57.54 -118.66,-57.54 -69.91,0 -118.65,30.32 -118.65,57.54 0,27.2 48.74,57.53 118.65,57.53 z m 0,42.18 c -90.19,0 -160.84,-43.79 -160.84,-99.71 v -235.86 c 0,-55.91 70.65,-99.7 160.84,-99.7 90.2,0 160.85,43.79 160.85,99.7 v 235.86 c 0,55.92 -70.65,99.71 -160.85,99.71"
         inkscape:connector-curvature="0" /><path
         id="path80"
         style="fill:#100f0d;fill-opacity:1;fill-rule:nonzero;stroke:none"
         d="m 5183.63,1823.1 c -21.71,-21.66 -56.97,-21.66 -78.69,0 l -292.93,292.94 c -4.08,4.08 -9.47,6.18 -14.91,6.18 -4.16,0 -8.35,-1.21 -11.97,-3.72 -179.5,-123.71 -421.64,-101.58 -575.86,52.62 -176.32,176.35 -176.32,463.25 0,639.59 176.32,176.33 463.27,176.33 639.59,0 157.91,-157.91 175.91,-411.75 41.9,-590.46 -6.31,-8.39 -5.46,-20.14 1.95,-27.56 l 290.92,-290.91 c 21.69,-21.69 21.69,-56.99 0,-78.68 z m 29.83,108.5 -278.23,278.22 c 134.72,194.4 111.79,462.41 -56.54,630.72 -192.76,192.8 -506.48,192.8 -699.25,0 -192.78,-192.79 -192.78,-506.46 0,-699.24 164.41,-164.41 420.36,-191.57 614.93,-67.28 l 280.75,-280.74 c 19.07,-19.07 44.12,-28.61 69.17,-28.61 25.04,0 50.09,9.54 69.17,28.61 18.47,18.48 28.63,43.03 28.63,69.17 0,26.12 -10.16,50.67 -28.63,69.15"
         inkscape:connector-curvature="0" /><path
         id="path82"
         style="fill:#100f0d;fill-opacity:1;fill-rule:nonzero;stroke:none"
         d="m 4741.48,2278.54 v -0.02 c -56.89,-57.3 -132.56,-88.96 -213.03,-89.13 -0.21,0 -0.39,0 -0.6,0 -79.78,0.02 -154.76,31.05 -211.2,87.45 -117.19,117.11 -117.17,308.42 0.04,426.43 56.91,57.33 132.58,88.99 213.05,89.13 0.21,0 0.4,0 0.58,0 79.81,0 154.78,-31.04 211.22,-87.44 117.17,-117.11 117.15,-308.41 -0.06,-426.42 z m -211.16,556.05 c -0.2,0 -0.43,0 -0.65,0 -91.77,-0.17 -178.04,-36.26 -242.92,-101.57 -133.53,-134.49 -133.49,-352.51 0.07,-486.01 64.42,-64.37 149.99,-99.8 241.03,-99.8 0.22,0 0.45,0 0.68,0 91.77,0.18 178.03,36.28 242.9,101.61 v -0.02 c 133.52,134.49 133.5,352.49 -0.06,485.98 -64.42,64.38 -149.98,99.81 -241.05,99.81"
         inkscape:connector-curvature="0" /><path
         id="path84"
         style="fill:#100f0d;fill-opacity:1;fill-rule:nonzero;stroke:none"
         d="m 5052.77,3588.71 c -107.29,0 -197.93,46.76 -197.93,102.11 v 40.6 c 42.94,-37.51 114.83,-61.7 197.93,-61.7 83.11,0 155,24.19 197.94,61.7 v -40.6 c 0,-55.35 -90.63,-102.11 -197.94,-102.11 z m -588.48,212.25 v 259.48 c 0,45.86 -33.91,86.05 -87.75,112.3 l 174.72,196.41 c 24.57,-10.58 54.46,-16.81 87.22,-16.81 32.99,0 63.06,6.35 87.73,17.07 l 173.37,-197.04 c -53.38,-26.26 -86.93,-66.3 -86.93,-111.93 v -259.48 z m -240.12,-212.25 c -107.3,0 -197.93,46.76 -197.93,102.11 v 40.6 c 42.94,-37.51 114.82,-61.7 197.93,-61.7 83.1,0 155,24.19 197.94,61.7 v -40.6 c 0,-55.35 -90.64,-102.11 -197.94,-102.11 z m -197.93,265.93 c 42.94,-37.51 114.82,-61.7 197.93,-61.7 83.1,0 155,24.19 197.94,61.7 v -40.6 c 0,-5.14 -1.55,-10.11 -3.06,-15.08 -7.26,-3.32 -12.37,-10.57 -12.37,-19.1 0,-1.19 0.49,-2.23 0.67,-3.37 -29.71,-37.39 -101.46,-64.58 -183.18,-64.58 -107.3,0 -197.93,46.76 -197.93,102.13 z m 395.87,82.6 c 0,-55.35 -90.64,-102.11 -197.94,-102.11 -107.3,0 -197.93,46.76 -197.93,102.11 v 40.6 c 42.94,-37.51 114.82,-61.69 197.93,-61.69 83.1,0 155,24.18 197.94,61.69 z m -197.94,225.33 c 107.3,0 197.94,-46.76 197.94,-102.13 0,-55.35 -90.64,-102.11 -197.94,-102.11 -107.3,0 -197.93,46.76 -197.93,102.11 0,55.37 90.63,102.13 197.93,102.13 z m 414.31,558.18 c 62.88,0 109.89,-27.77 109.89,-52.59 0,-24.82 -47.01,-52.58 -109.89,-52.58 -62.9,0 -109.9,27.76 -109.9,52.58 0,24.82 47,52.59 109.9,52.59 z m -109.9,-273.63 v 155.15 c 27.49,-17.83 66.16,-28.88 109.9,-28.88 43.72,0 82.39,11.05 109.89,28.88 v -155.15 c 0,-24.83 -47.01,-52.59 -109.89,-52.59 -62.9,0 -109.9,27.76 -109.9,52.59 z m 722.13,-386.68 c 0,-55.35 -90.63,-102.11 -197.94,-102.11 -107.29,0 -197.93,46.76 -197.93,102.11 0,34.34 34.95,65.32 87.04,83.93 0.25,0.09 0.48,0.22 0.73,0.32 31.73,11.22 69.75,17.88 110.16,17.88 107.31,0 197.94,-46.76 197.94,-102.13 z m 0,-123.2 c 0,-55.35 -90.63,-102.11 -197.94,-102.11 -107.29,0 -197.93,46.76 -197.93,102.11 v 40.6 c 42.94,-37.51 114.83,-61.69 197.93,-61.69 83.11,0 155,24.18 197.94,61.69 z m 0,-123.2 c 0,-55.37 -90.63,-102.13 -197.94,-102.13 -107.29,0 -197.93,46.76 -197.93,102.13 v 40.6 c 42.94,-37.51 114.83,-61.7 197.93,-61.7 83.11,0 155,24.19 197.94,61.7 z m -197.94,390.72 c -40.49,0 -78.25,-5.83 -111.38,-16.04 l -178.85,203.25 c 17.55,15.46 28.02,34.36 28.02,55.15 v 221.04 c 0,53.15 -66.81,94.78 -152.08,94.78 -85.29,0 -152.09,-41.63 -152.09,-94.78 v -221.04 c 0,-20.94 10.65,-39.94 28.42,-55.46 l -180.27,-202.65 c -32.9,10.02 -70.28,15.75 -110.37,15.75 -134.65,0 -240.12,-63.39 -240.12,-144.32 v -369.62 c 0,-80.92 105.47,-144.3 240.12,-144.3 134.66,0 240.12,63.38 240.12,144.3 v 67.95 h 348.36 v -67.95 c 0,-80.92 105.47,-144.3 240.12,-144.3 134.66,0 240.12,63.38 240.12,144.3 v 369.62 c 0,80.93 -105.46,144.32 -240.12,144.32"
         inkscape:connector-curvature="0" /><path
         id="path86"
         style="fill:#100f0d;fill-opacity:1;fill-rule:nonzero;stroke:none"
         d="m 4895.27,42.1797 c -166.99,0 -308.06,75.1403 -308.06,164.0703 v 85.59 c 58.77,-64.07 173.39,-106.68 308.06,-106.68 134.68,0 249.3,42.61 308.08,106.68 v -85.59 c 0,-88.93 -141.08,-164.0703 -308.08,-164.0703 z m -513.6,258.1013 c -166.99,0 -308.08,75.149 -308.08,164.09 v 85.57 c 58.78,-64.05 173.41,-106.66 308.08,-106.66 59.58,0 114.73,8.789 163.35,23.641 V 326.891 c -47.81,-16.461 -103.58,-26.61 -163.35,-26.61 z m -308.08,434.848 c 58.78,-64.066 173.41,-106.688 308.08,-106.688 59.58,0 114.73,8.789 163.35,23.649 V 512.082 c -47.81,-16.473 -103.58,-26.613 -163.35,-26.613 -166.99,0 -308.08,75.133 -308.08,164.062 z m 0,185.16 c 58.78,-64.059 173.41,-106.668 308.08,-106.668 72.69,0 139.15,12.738 194.53,34.231 -19.89,-26.09 -31.18,-55.141 -31.18,-86.071 v -64.539 c -47.81,-16.472 -103.58,-26.621 -163.35,-26.621 -166.99,0 -308.08,75.149 -308.08,164.098 z m 308.08,263.671 c 167.01,0 308.09,-75.13 308.09,-164.08 0,-88.919 -141.08,-164.071 -308.09,-164.071 -166.99,0 -308.08,75.152 -308.08,164.071 0,88.95 141.09,164.08 308.08,164.08 z m 513.6,-771.429 c -166.99,0 -308.06,75.141 -308.06,164.059 v 85.601 C 4645.98,598.109 4760.6,555.5 4895.27,555.5 c 134.68,0 249.3,42.609 308.08,106.691 V 576.59 c 0,-88.918 -141.08,-164.059 -308.08,-164.059 z M 4587.21,477 c 58.77,-64.051 173.39,-106.66 308.06,-106.66 134.68,0 249.3,42.609 308.08,106.66 v -85.559 c 0,-88.953 -141.08,-164.101 -308.08,-164.101 -166.99,0 -308.06,75.148 -308.06,164.101 z m 616.14,284.781 c 0,-88.953 -141.08,-164.09 -308.08,-164.09 -166.99,0 -308.06,75.137 -308.06,164.09 0,88.918 141.07,164.071 308.06,164.071 167,0 308.08,-75.153 308.08,-164.071 z m -308.08,206.25 c -59.39,0 -114.78,-8.402 -163.32,-23.16 v 75.009 c 0,115.66 -153.86,206.27 -350.28,206.27 -196.41,0 -350.27,-90.61 -350.27,-206.27 V 464.371 c 0,-115.66 153.86,-206.269 350.27,-206.269 59.62,0 114.72,8.886 163.35,23.789 V 206.25 C 4545.02,90.5898 4698.87,0 4895.27,0 c 196.42,0 350.27,90.5898 350.27,206.25 v 555.531 c 0,115.66 -153.85,206.25 -350.27,206.25"
         inkscape:connector-curvature="0" /><path
         id="path88"
         style="fill:#100f0d;fill-opacity:1;fill-rule:nonzero;stroke:none"
         d="m 6913.7,5398.57 c -108.7,0 -200.55,47.45 -200.55,103.6 v 41.61 c 43.35,-38.12 116.25,-62.71 200.55,-62.71 84.28,0 157.18,24.59 200.53,62.7 v -41.6 c 0,-56.15 -91.83,-103.6 -200.53,-103.6 z m 0,581.22 c 108.7,0 200.53,-47.44 200.53,-103.59 0,-56.16 -91.83,-103.59 -200.53,-103.59 -108.7,0 -200.55,47.43 -200.55,103.59 0,56.15 91.85,103.59 200.55,103.59 z m 200.53,-228.28 c 0,-56.13 -91.83,-103.57 -200.53,-103.57 -108.7,0 -200.55,47.44 -200.55,103.57 v 41.61 c 43.35,-38.11 116.25,-62.7 200.55,-62.7 84.28,0 157.18,24.59 200.53,62.7 z m 0,-124.66 c 0,-56.15 -91.83,-103.59 -200.53,-103.59 -108.7,0 -200.55,47.44 -200.55,103.59 v 41.6 c 43.35,-38.1 116.25,-62.69 200.55,-62.69 84.28,0 157.18,24.59 200.53,62.69 z m -200.53,395.13 c -136.11,0 -242.73,-64.05 -242.73,-145.78 v -374.03 c 0,-81.74 106.62,-145.78 242.73,-145.78 136.09,0 242.71,64.04 242.71,145.78 v 374.03 c 0,81.73 -106.62,145.78 -242.71,145.78"
         inkscape:connector-curvature="0" /><path
         id="path90"
         style="fill:#100f0d;fill-opacity:1;fill-rule:nonzero;stroke:none"
         d="m 6148.15,6108.16 v 30.23 c 38.28,-31.18 99.13,-51.32 169.61,-51.32 70.48,0 131.32,20.14 169.61,51.32 v -30.23 c 0,-40.76 -69.67,-86.18 -169.61,-86.18 -99.95,0 -169.61,45.42 -169.61,86.18 z m 169.61,408 c 99.94,0 169.61,-45.42 169.61,-86.18 0,-40.77 -69.67,-86.19 -169.61,-86.19 -99.95,0 -169.61,45.42 -169.61,86.19 0,40.76 69.66,86.18 169.61,86.18 z m -169.61,-270.51 c 38.28,-31.18 99.13,-51.32 169.61,-51.32 70.48,0 131.32,20.14 169.61,51.32 v -30.23 c 0,-40.77 -69.67,-86.17 -169.61,-86.17 -99.95,0 -169.61,45.4 -169.61,86.17 z m 339.22,77.05 c 0,-40.77 -69.67,-86.19 -169.61,-86.19 -99.95,0 -169.61,45.42 -169.61,86.19 v 30.23 c 38.28,-31.19 99.13,-51.33 169.61,-51.33 70.48,0 131.32,20.14 169.61,51.33 z m 42.18,-214.54 v 321.82 c 0,71.99 -93.02,128.36 -211.79,128.36 -118.78,0 -211.79,-56.37 -211.79,-128.36 v -321.82 c 0,-71.99 93.01,-128.37 211.79,-128.37 118.77,0 211.79,56.38 211.79,128.37"
         inkscape:connector-curvature="0" /><path
         id="path92"
         style="fill:#100f0d;fill-opacity:1;fill-rule:nonzero;stroke:none"
         d="m 6893.1,6195.27 -77.78,77.78 c -8.24,8.24 -21.59,8.24 -29.82,0 -8.25,-8.24 -8.25,-21.59 0,-29.82 l 113.78,-113.79 c 4.12,-4.12 9.52,-6.18 14.92,-6.18 5.39,0 10.79,2.06 14.91,6.18 l 113.79,113.79 c 8.23,8.23 8.23,21.58 0,29.82 -8.24,8.24 -21.59,8.24 -29.83,0 l -77.79,-77.78 v 237.24 c 0,11.65 -9.43,21.09 -21.08,21.09 h -253 c -11.66,0 -21.09,-9.44 -21.09,-21.09 0,-11.66 9.43,-21.09 21.09,-21.09 h 231.9 v -216.15"
         inkscape:connector-curvature="0" /><path
         id="path94"
         style="fill:#100f0d;fill-opacity:1;fill-rule:nonzero;stroke:none"
         d="m 6569.66,5545.51 h -231.9 v 216.14 l 77.78,-77.78 c 4.12,-4.12 9.52,-6.18 14.92,-6.18 5.39,0 10.79,2.06 14.91,6.18 8.23,8.24 8.23,21.58 0,29.83 l -113.79,113.78 c -8.24,8.24 -21.59,8.24 -29.82,0 L 6187.97,5713.7 c -8.24,-8.25 -8.24,-21.59 0,-29.83 8.24,-8.24 21.58,-8.24 29.82,0 l 77.78,77.78 v -237.24 c 0,-11.66 9.44,-21.09 21.1,-21.09 h 252.99 c 11.66,0 21.09,9.43 21.09,21.09 0,11.66 -9.43,21.1 -21.09,21.1"
         inkscape:connector-curvature="0" /><path
         id="path96"
         style="fill:#100f0d;fill-opacity:1;fill-rule:nonzero;stroke:none"
         d="m 6840,1815.88 -402.07,420.13 h 234 c 11.66,0 21.1,9.43 21.1,21.09 v 368.31 h 293.91 l -0.02,-368.33 c 0,-5.61 2.23,-10.96 6.18,-14.91 3.96,-3.96 9.32,-6.18 14.92,-6.18 h 234.02 z m -518.29,131.81 c -178.69,0 -329.66,80.71 -329.66,176.25 v 94.93 c 61.53,-69.52 184.57,-116.03 329.66,-116.03 59.4,0 114.91,8.01 164.25,21.96 l 99.99,-104.48 c -60.68,-43.64 -157.35,-72.63 -264.24,-72.63 z m -329.66,468.49 c 61.53,-69.52 184.57,-116.02 329.66,-116.02 144.63,0 267.39,46.19 329.13,115.34 v -99.92 c -0.81,-12.83 -4.34,-25.32 -10.27,-37.39 h -252.02 c -8.44,0 -16.08,-5.05 -19.4,-12.81 -3.31,-7.76 -1.67,-16.77 4.16,-22.86 l 78.91,-82.45 c -40.29,-9.6 -84.44,-15.05 -130.51,-15.05 -178.69,0 -329.66,80.71 -329.66,176.23 z m 0,197.33 c 61.53,-69.53 184.57,-116.04 329.66,-116.04 144.63,0 267.39,46.2 329.13,115.36 v -99.94 c -5.87,-93 -153.99,-170.55 -329.13,-170.55 -178.69,0 -329.66,80.71 -329.66,176.22 z m 329.66,278.61 c 178.72,0 329.69,-80.7 329.69,-176.22 0,-95.54 -150.97,-176.24 -329.69,-176.24 -178.69,0 -329.66,80.7 -329.66,176.24 0,95.52 150.97,176.22 329.66,176.22 z m 518.27,138.34 c 131.17,0 241.99,-58.11 241.99,-126.91 0,-68.77 -110.82,-126.89 -241.99,-126.89 -131.17,0 -241.97,58.12 -241.97,126.89 0,68.8 110.8,126.91 241.97,126.91 z m 241.99,-274.89 c 0,-34.1 -27.27,-65.54 -70.7,-88.62 -1.1,0.18 -2.11,0.65 -3.23,0.65 h -314.46 v 48.3 c 0,15.83 -2.84,31.19 -8.04,45.98 44.23,-17.06 96.66,-27.41 154.44,-27.41 103.63,0 192.4,31.53 241.99,79.57 z m 0,-148 c 0,-29.11 -20.01,-56.24 -52.84,-77.93 v 99.32 c 20.41,10.8 38.44,23.14 52.84,37.09 z m 0,-147.98 c 0,-29.12 -20.01,-56.27 -52.85,-77.96 v 99.34 c 20.42,10.79 38.45,23.13 52.85,37.09 z m 228.85,-194.23 c -3.31,7.76 -10.96,12.81 -19.41,12.81 h -262.3 l 0.01,54.46 c 58.49,30.76 95.04,75.8 95.04,126.96 v 443.96 c 0,94.82 -124.84,169.1 -284.18,169.1 -159.36,0 -284.16,-74.28 -284.16,-169.1 v -16.88 c -63.53,29.86 -144.59,47.64 -234.11,47.64 -208.52,0 -371.85,-95.93 -371.85,-218.41 v -591.96 c 0,-122.49 163.33,-218.44 371.85,-218.44 121.07,0 226.64,32.48 294.12,83.59 l 208.53,-217.91 c 3.98,-4.16 10.26,-6.51 16.01,-6.51 5.74,0 11.26,2.35 15.24,6.51 l 451.05,471.32 c 5.83,6.09 7.48,15.1 4.16,22.86"
         inkscape:connector-curvature="0" /><path
         id="path98"
         style="fill:#100f0d;fill-opacity:1;fill-rule:nonzero;stroke:none"
         d="m 7008.02,3939.19 c -11.66,0 -21.1,-9.43 -21.1,-21.09 v -329.39 h -293.89 v 329.39 c 0,11.66 -9.44,21.09 -21.1,21.09 h -234 l 402.05,420.12 402.06,-420.12 z m -686.31,-209.65 c -178.69,0 -329.66,80.71 -329.66,176.25 v 94.93 c 61.53,-69.52 184.57,-116.03 329.66,-116.03 43.87,0 85.56,4.47 124.34,12.32 h 204.49 c -8.95,-91.63 -155.65,-167.47 -328.83,-167.47 z m -329.66,468.49 c 61.53,-69.51 184.57,-116.02 329.66,-116.02 95.08,0 180.53,20.09 245.61,53.4 l -194.01,-202.72 c -0.94,-0.99 -1.06,-2.36 -1.77,-3.48 -16.33,-1.39 -32.9,-2.33 -49.83,-2.33 -178.69,0 -329.66,80.7 -329.66,176.22 z m 0,197.33 c 61.53,-69.52 184.57,-116.04 329.66,-116.04 145.1,0 268.14,46.52 329.69,116.05 v -94.96 c 0,-95.51 -150.97,-176.22 -329.69,-176.22 -178.69,0 -329.66,80.71 -329.66,176.22 z m 329.66,278.61 c 178.72,0 329.69,-80.7 329.69,-176.22 0,-95.54 -150.97,-176.24 -329.69,-176.24 -178.69,0 -329.66,80.7 -329.66,176.24 0,95.52 150.97,176.22 329.66,176.22 z m 371.87,-281.39 c 29.82,-10.6 62.86,-18.4 98.88,-21.91 l -98.88,-104.34 z m 146.4,17.93 c -54.8,0 -105.33,10.59 -146.4,27.43 v 59.81 c 0,15.83 -2.84,31.2 -8.04,45.99 44.23,-17.06 96.66,-27.41 154.44,-27.41 103.63,0 192.4,31.52 241.99,79.56 v -58.47 c 0,-68.8 -110.82,-126.91 -241.99,-126.91 z m 241.99,-110.6 v -58.47 c 0,-18.16 -7.9,-35.53 -21.67,-51.32 l -57.68,60.28 c 31.82,13.11 59.02,29.81 79.35,49.51 z m -111.03,-16.41 -83.6,87.35 c 82.96,8.02 152.81,36.54 194.63,77.06 v -58.49 c 0,-43.69 -44.79,-83 -111.03,-105.92 z m -130.96,528.81 c 131.17,0 241.99,-58.11 241.99,-126.9 0,-68.78 -110.82,-126.89 -241.99,-126.89 -131.17,0 -241.97,58.11 -241.97,126.89 0,68.79 110.8,126.9 241.97,126.9 z m 466.68,-879.62 -217.04,226.8 c 22.04,24.15 34.54,52.01 34.54,81.95 v 443.97 c 0,94.81 -124.84,169.09 -284.18,169.09 -159.36,0 -284.16,-74.28 -284.16,-169.09 v -16.89 c -63.53,29.87 -144.59,47.64 -234.11,47.64 -208.52,0 -371.85,-95.93 -371.85,-218.41 v -591.96 c 0,-122.48 163.33,-218.44 371.85,-218.44 144.63,0 267.39,46.21 329.13,115.36 v -235.09 c 0,-11.66 9.43,-21.1 21.09,-21.1 h 336.09 c 11.66,0 21.09,9.44 21.09,21.1 v 329.39 h 262.3 c 8.45,0 16.1,5.05 19.41,12.81 3.32,7.77 1.67,16.77 -4.16,22.87"
         inkscape:connector-curvature="0" /><path
         id="path100"
         style="fill:#100f0d;fill-opacity:1;fill-rule:nonzero;stroke:none"
         d="m 7076.1,172.031 h -71.71 V 894.82 c 0,1.059 -0.45,1.961 -0.59,2.961 -0.23,1.571 -0.35,3.129 -0.93,4.629 -0.58,1.481 -1.51,2.68 -2.38,3.969 -0.58,0.871 -0.87,1.859 -1.59,2.652 l -156.06,171.299 c -0.12,0.13 -0.27,0.17 -0.39,0.29 -1.18,1.23 -2.67,2.07 -4.11,3 -0.87,0.54 -1.61,1.3 -2.53,1.7 -1.24,0.56 -2.66,0.68 -4.01,0.98 -1.34,0.29 -2.61,0.76 -3.97,0.8 -0.2,0 -0.38,0.12 -0.59,0.12 h -527.08 v 87.64 h 775.94 z m -140.55,743.891 h -87.21 v 95.718 z M 6962.21,42.1797 H 6186.28 V 1045.03 h 619.87 V 894.82 c 0,-11.66 9.43,-21.09 21.09,-21.09 h 134.97 z M 7097.2,1217.05 h -818.13 c -11.66,0 -21.09,-9.43 -21.09,-21.09 v -108.74 h -92.8 c -11.66,0 -21.09,-9.44 -21.09,-21.1 V 21.082 C 6144.09,9.42969 6153.52,0 6165.18,0 h 818.12 c 11.66,0 21.09,9.42969 21.09,21.082 v 108.77 h 92.81 c 11.66,0 21.09,9.437 21.09,21.097 V 1195.96 c 0,11.66 -9.43,21.09 -21.09,21.09"
         inkscape:connector-curvature="0" /><path
         id="path102"
         style="fill:#100f0d;fill-opacity:1;fill-rule:nonzero;stroke:none"
         d="m 6283.32,772.32 c 0,-11.66 9.43,-21.09 21.09,-21.09 h 539.66 c 11.66,0 21.09,9.43 21.09,21.09 0,11.66 -9.43,21.102 -21.09,21.102 h -539.66 c -11.66,0 -21.09,-9.442 -21.09,-21.102"
         inkscape:connector-curvature="0" /><path
         id="path104"
         style="fill:#100f0d;fill-opacity:1;fill-rule:nonzero;stroke:none"
         d="m 6844.07,656.602 h -539.66 c -11.66,0 -21.09,-9.43 -21.09,-21.09 0,-11.66 9.43,-21.102 21.09,-21.102 h 539.66 c 11.66,0 21.09,9.442 21.09,21.102 0,11.66 -9.43,21.09 -21.09,21.09"
         inkscape:connector-curvature="0" /><path
         id="path106"
         style="fill:#100f0d;fill-opacity:1;fill-rule:nonzero;stroke:none"
         d="m 6844.07,519.781 h -539.66 c -11.66,0 -21.09,-9.429 -21.09,-21.09 0,-11.66 9.43,-21.089 21.09,-21.089 h 539.66 c 11.66,0 21.09,9.429 21.09,21.089 0,11.661 -9.43,21.09 -21.09,21.09"
         inkscape:connector-curvature="0" /><path
         id="path108"
         style="fill:#100f0d;fill-opacity:1;fill-rule:nonzero;stroke:none"
         d="m 6653.44,382.992 h -349.03 c -11.66,0 -21.09,-9.441 -21.09,-21.101 0,-11.661 9.43,-21.09 21.09,-21.09 h 349.03 c 11.66,0 21.09,9.429 21.09,21.09 0,11.66 -9.43,21.101 -21.09,21.101"
         inkscape:connector-curvature="0" /></g></g></svg>