<?xml version="1.0" encoding="utf-8"?>
<!-- Generator: Adobe Illustrator 22.0.0, SVG Export Plug-In . SVG Version: 6.00 Build 0)  -->
<svg width="64" height="64" version="1.1" id="Layer_1" xmlns="http://www.w3.org/2000/svg" xmlns:xlink="http://www.w3.org/1999/xlink" x="0px" y="0px"
	 viewBox="0 0 64 64" style="enable-background:new 0 0 64 64;" xml:space="preserve">
<style type="text/css">
	.st0{fill:#FFFFFF;}
	.st1{fill:#AAAAAA;}
</style>
<g>
	<g>
		<g>
			<path class="st0" d="M45.5,46.6h-44c-0.6,0-1-0.4-1-1v-44c0-0.6,0.4-1,1-1h44c0.6,0,1,0.4,1,1v44C46.5,46.1,46.1,46.6,45.5,46.6z
				"/>
			<path class="st1" d="M45.5,47.1h-44c-0.8,0-1.5-0.7-1.5-1.5v-44C0,0.7,0.7,0,1.5,0h44C46.3,0,47,0.7,47,1.5v44
				C47,46.4,46.3,47.1,45.5,47.1z M1.5,1C1.2,1,1,1.3,1,1.5v44c0,0.3,0.2,0.5,0.5,0.5h44c0.3,0,0.5-0.2,0.5-0.5v-44
				C46,1.3,45.8,1,45.5,1H1.5z"/>
		</g>
		<g>
			<rect x="0.5" y="7.6" class="st1" width="46" height="1"/>
		</g>
		<g>
			<path class="st1" d="M40.7,5.6c-0.8,0-1.5-0.7-1.5-1.5s0.7-1.5,1.5-1.5c0.8,0,1.5,0.7,1.5,1.5S41.5,5.6,40.7,5.6z M40.7,3.6
				c-0.3,0-0.5,0.2-0.5,0.5s0.2,0.5,0.5,0.5c0.3,0,0.5-0.2,0.5-0.5S40.9,3.6,40.7,3.6z"/>
		</g>
	</g>
	<g>
		<g>
			<circle class="st0" cx="47" cy="47" r="16.5"/>
			<path class="st1" d="M47,64c-9.4,0-17-7.6-17-17s7.6-17,17-17s17,7.6,17,17S56.4,64,47,64z M47,31c-8.8,0-16,7.2-16,16
				s7.2,16,16,16s16-7.2,16-16S55.8,31,47,31z"/>
		</g>
	</g>
	<g>
		<g>
			<path class="st0" d="M14.5,34.5h-4c-0.3,0-0.5-0.2-0.5-0.5v-7c0-0.3,0.2-0.5,0.5-0.5h4c0.3,0,0.5,0.2,0.5,0.5v7
				C15,34.2,14.8,34.5,14.5,34.5z"/>
			<path class="st1" d="M14.5,35h-4c-0.6,0-1-0.4-1-1v-7c0-0.6,0.4-1,1-1h4c0.6,0,1,0.4,1,1v7C15.5,34.5,15,35,14.5,35z M14.5,34
				v0.5V34C14.5,34,14.5,34,14.5,34z M10.5,26.9v7h4v-7H10.5z"/>
		</g>
		<g>
			<path class="st0" d="M23.9,34.5h-4c-0.3,0-0.5-0.2-0.5-0.5v-14c0-0.3,0.2-0.5,0.5-0.5h4c0.3,0,0.5,0.2,0.5,0.5v14
				C24.4,34.2,24.2,34.5,23.9,34.5z"/>
			<path class="st1" d="M23.9,35h-4c-0.6,0-1-0.4-1-1v-14c0-0.6,0.4-1,1-1h4c0.6,0,1,0.4,1,1v14C24.9,34.5,24.5,35,23.9,35z
				 M23.9,34v0.5V34L23.9,34z M19.9,19.9v14h4l0-14H19.9z"/>
		</g>
		<g>
			<path class="st0" d="M33.2,34.8h-4c-0.3,0-0.5-0.2-0.5-0.5v-19c0-0.3,0.2-0.5,0.5-0.5h4c0.3,0,0.5,0.2,0.5,0.5v19
				C33.7,34.6,33.5,34.8,33.2,34.8z"/>
			<path class="st1" d="M33.2,35.3h-4c-0.6,0-1-0.4-1-1v-19c0-0.6,0.4-1,1-1h4c0.6,0,1,0.4,1,1v19C34.2,34.9,33.8,35.3,33.2,35.3z
				 M33.2,34.3v0.5V34.3L33.2,34.3z M29.2,15.3v19h4v-19H29.2z"/>
		</g>
	</g>
	<g>
		<g>
			<circle class="st0" cx="37.5" cy="43.9" r="1.4"/>
			<path class="st1" d="M37.5,45.8c-1,0-1.9-0.8-1.9-1.9c0-1,0.8-1.9,1.9-1.9c1,0,1.9,0.8,1.9,1.9C39.3,44.9,38.5,45.8,37.5,45.8z
				 M37.5,43c-0.5,0-0.9,0.4-0.9,0.9c0,0.5,0.4,0.9,0.9,0.9c0.5,0,0.9-0.4,0.9-0.9C38.3,43.4,38,43,37.5,43z"/>
		</g>
		<g>
			<circle class="st0" cx="43.8" cy="50.2" r="1.4"/>
			<path class="st1" d="M43.8,52.1c-1,0-1.9-0.8-1.9-1.9c0-1,0.8-1.9,1.9-1.9c1,0,1.9,0.8,1.9,1.9C45.7,51.3,44.8,52.1,43.8,52.1z
				 M43.8,49.4c-0.5,0-0.9,0.4-0.9,0.9c0,0.5,0.4,0.9,0.9,0.9c0.5,0,0.9-0.4,0.9-0.9C44.7,49.8,44.3,49.4,43.8,49.4z"/>
		</g>
		<g>
			<circle class="st0" cx="50.3" cy="43.7" r="1.4"/>
			<path class="st1" d="M50.3,45.6c-1,0-1.9-0.8-1.9-1.9c0-1,0.8-1.9,1.9-1.9c1,0,1.9,0.8,1.9,1.9C52.2,44.7,51.4,45.6,50.3,45.6z
				 M50.3,42.8c-0.5,0-0.9,0.4-0.9,0.9c0,0.5,0.4,0.9,0.9,0.9s0.9-0.4,0.9-0.9C51.2,43.2,50.8,42.8,50.3,42.8z"/>
		</g>
		<g>
			<circle class="st0" cx="56.5" cy="49.7" r="1.4"/>
			<path class="st1" d="M56.5,51.6c-1,0-1.9-0.8-1.9-1.9c0-1,0.8-1.9,1.9-1.9c1,0,1.9,0.8,1.9,1.9C58.4,50.7,57.5,51.6,56.5,51.6z
				 M56.5,48.9c-0.5,0-0.9,0.4-0.9,0.9s0.4,0.9,0.9,0.9c0.5,0,0.9-0.4,0.9-0.9S57,48.9,56.5,48.9z"/>
		</g>
		<g>
			<rect x="40.1" y="44" transform="matrix(0.7071 -0.7071 0.7071 0.7071 -21.3775 42.5219)" class="st1" width="1" height="6.2"/>
		</g>
		<g>
			
				<rect x="43.8" y="46.4" transform="matrix(0.7071 -0.7071 0.7071 0.7071 -19.4034 47.0419)" class="st1" width="6.6" height="1"/>
		</g>
		<g>
			<rect x="53" y="43.7" transform="matrix(0.7071 -0.7071 0.7071 0.7071 -17.3634 51.5238)" class="st1" width="1" height="6.1"/>
		</g>
	</g>
</g>
</svg>
