<?xml version="1.0" encoding="utf-8"?>
<!-- Generator: Adobe Illustrator 22.0.0, SVG Export Plug-In . SVG Version: 6.00 Build 0)  -->
<svg width="64" height="64" version="1.1" id="Layer_1" xmlns="http://www.w3.org/2000/svg" xmlns:xlink="http://www.w3.org/1999/xlink" x="0px" y="0px"
	 viewBox="0 0 64 64" style="enable-background:new 0 0 64 64;" xml:space="preserve">
<style type="text/css">
	.st0{fill:#FFFFFF;}
	.st1{fill:#AAAAAA;}
</style>
<g>
	<g>
		<g>
			<path class="st0" d="M46.5,1.6v44c0,0.5-0.4,1-1,1h-44c-0.5,0-1-0.4-1-1v-44c0-0.5,0.4-1,1-1h44C46,0.6,46.5,1.1,46.5,1.6z"/>
			<path class="st1" d="M45.5,47.1h-44c-0.8,0-1.5-0.7-1.5-1.5v-44c0-0.8,0.7-1.5,1.5-1.5h44c0.8,0,1.5,0.7,1.5,1.5v44
				C47,46.4,46.3,47.1,45.5,47.1z M1.5,1.1C1.2,1.1,1,1.3,1,1.6v44c0,0.3,0.2,0.5,0.5,0.5h44c0.3,0,0.5-0.2,0.5-0.5v-44
				c0-0.3-0.2-0.5-0.5-0.5H1.5z"/>
		</g>
		<g>
			<rect x="0.1" y="7.7" class="st1" width="46" height="1"/>
		</g>
		<g>
			<path class="st1" d="M40.6,5.7c-0.8,0-1.5-0.7-1.5-1.5s0.7-1.5,1.5-1.5s1.5,0.7,1.5,1.5S41.4,5.7,40.6,5.7z M40.6,3.7
				c-0.3,0-0.5,0.2-0.5,0.5s0.2,0.5,0.5,0.5c0.3,0,0.5-0.2,0.5-0.5S40.9,3.7,40.6,3.7z"/>
		</g>
	</g>
	<g>
		<path class="st1" d="M30.1,47.1H17.6c-0.1,0-0.2,0-0.3-0.1l0,0c-0.1,0.1-0.2,0.1-0.3,0.1h-4.2c-0.1,0-0.3-0.1-0.4-0.1L11,45.4
			c-0.1-0.1-0.1-0.2-0.1-0.4c0-0.1,0.1-0.3,0.1-0.4l2-2c-0.7-1.1-1.1-2.3-1.4-3.5H8.7c-0.3,0-0.5-0.2-0.5-0.5v-5.1
			c0-0.3,0.2-0.5,0.5-0.5h2.9c0.3-1.2,0.8-2.4,1.4-3.5l-2-2c-0.1-0.1-0.1-0.2-0.1-0.4s0.1-0.3,0.1-0.4l3.6-3.6
			c0.1-0.1,0.2-0.1,0.4-0.1c0,0,0,0,0,0c0.1,0,0.3,0.1,0.4,0.1l2,2c1.1-0.7,2.3-1.1,3.5-1.4v-2.9c0-0.3,0.2-0.5,0.5-0.5h5.1
			c0.3,0,0.5,0.2,0.5,0.5v2.9c1.2,0.3,2.4,0.8,3.5,1.4l2-2c0.1-0.1,0.2-0.1,0.4-0.1c0,0,0,0,0,0c0.1,0,0.3,0.1,0.4,0.1l3.6,3.6
			c0.1,0.1,0.1,0.2,0.1,0.4s-0.1,0.3-0.1,0.4l-2,2c0.7,1.1,1.1,2.3,1.4,3.5h2.9c0.3,0,0.5,0.2,0.5,0.5v5.1c0,0.3-0.2,0.5-0.5,0.5
			h-2.9c-0.3,1.2-0.8,2.4-1.4,3.5l2,2c0.1,0.1,0.1,0.2,0.1,0.4c0,0.1-0.1,0.3-0.1,0.4l-1.5,1.5c-0.2,0.2-0.5,0.2-0.7,0
			c-0.2-0.2-0.2-0.5,0-0.7l1.2-1.2l-2-2c-0.2-0.2-0.2-0.4-0.1-0.6c0.8-1.2,1.3-2.5,1.6-3.9c0-0.2,0.3-0.4,0.5-0.4h2.8V34h-2.8
			c-0.2,0-0.4-0.2-0.5-0.4c-0.3-1.4-0.8-2.7-1.6-3.9c-0.1-0.2-0.1-0.5,0.1-0.6l2-2l-2.9-2.9l-2,2c-0.2,0.2-0.4,0.2-0.6,0.1
			c-1.2-0.8-2.5-1.3-3.9-1.6c-0.2,0-0.4-0.3-0.4-0.5v-2.8h-4.1v2.8c0,0.2-0.2,0.4-0.4,0.5c-1.4,0.3-2.7,0.8-3.9,1.6
			c-0.2,0.1-0.5,0.1-0.6-0.1l-2-2L12,27.1l2,2c0.2,0.2,0.2,0.4,0.1,0.6c-0.8,1.2-1.3,2.5-1.6,3.9c0,0.2-0.3,0.4-0.5,0.4H9.2v4.1h2.8
			c0.2,0,0.4,0.2,0.5,0.4c0.3,1.4,0.8,2.7,1.6,3.9c0.1,0.2,0.1,0.5-0.1,0.6l-2,2l1,1h3.8l0.1-0.1c0.2-0.2,0.4-0.2,0.6-0.1l0.3,0.2
			L30,46l0.2-0.1c0.2-0.1,0.4-0.1,0.6,0.1l0.2,0.2c0.2,0.2,0.2,0.5,0,0.7c-0.2,0.2-0.5,0.2-0.7,0l-0.1,0
			C30.3,47.1,30.2,47.1,30.1,47.1z M23.9,43c-0.9,0-1.7-0.2-2.5-0.5c0,0,0,0,0,0l0,0c0,0,0,0,0,0c0,0,0,0,0,0l-0.1,0
			c-0.1,0-0.1,0-0.2-0.1c-0.1,0-0.1,0-0.2-0.1c-1.2-0.6-2.2-1.5-2.9-2.6c-0.2-0.3-0.3-0.5-0.4-0.8c0,0,0,0,0,0c0,0,0-0.1-0.1-0.1
			l0,0c0,0,0,0,0,0c0,0,0-0.1,0-0.1c0,0,0,0,0,0C17.2,37.8,17,37,17,36.1c0-0.9,0.2-1.7,0.5-2.5c0,0,0,0,0,0c0,0,0,0,0,0
			c0,0,0-0.1,0-0.1c0-0.1,0-0.1,0.1-0.1c0-0.1,0-0.1,0.1-0.2c0.7-1.5,1.9-2.7,3.4-3.3c0,0,0,0,0,0c0,0,0,0,0,0c0,0,0.1,0,0.1-0.1
			l0,0c0,0,0,0,0,0c0,0,0,0,0.1,0c0,0,0,0,0,0c1.6-0.6,3.4-0.6,5,0c0,0,0,0,0,0l0,0c0,0,0,0,0,0c0,0,0,0,0,0c0,0,0.1,0,0.1,0.1
			c0,0,0.1,0,0.1,0.1c0.1,0,0.1,0,0.2,0.1c1.5,0.7,2.7,1.9,3.3,3.4c0,0,0,0,0,0c0,0,0,0.1,0.1,0.2c0,0,0,0.1,0,0.1c0,0,0,0,0,0l0,0
			c0.3,0.8,0.5,1.6,0.5,2.5c0,0.9-0.2,1.7-0.5,2.5c0,0,0,0,0,0c0,0,0,0,0,0l0,0.1c0,0.1,0,0.1-0.1,0.2c0,0.1-0.1,0.1-0.1,0.2
			c-0.7,1.4-1.8,2.5-3.2,3.2c-0.1,0-0.2,0.1-0.3,0.1c0,0,0,0,0,0c0,0-0.1,0-0.1,0.1c0,0,0,0,0,0c0,0,0,0-0.1,0c0,0,0,0,0,0
			C25.6,42.8,24.8,43,23.9,43z M23.9,42c0.8,0,1.5-0.1,2.1-0.4l0.2-0.1c0,0,0,0,0,0c0,0,0,0,0,0c0,0,0.1,0,0.1-0.1
			c1.3-0.6,2.3-1.7,2.9-3c0,0,0,0,0,0l0.1-0.2c0.3-0.7,0.4-1.4,0.4-2.1c0,0,0,0,0,0c0,0,0,0,0,0c0-0.7-0.1-1.5-0.4-2.1l-0.1-0.2
			c0,0,0,0,0,0c0,0,0-0.1-0.1-0.1c-0.6-1.3-1.7-2.3-2.9-2.9c0,0,0,0,0,0L26,30.6c-0.7-0.3-1.4-0.4-2.1-0.4c-0.7,0-1.5,0.1-2.2,0.4
			l-0.2,0.1c0,0,0,0,0,0c0,0,0,0,0,0c0,0,0,0,0,0c0,0,0,0,0,0c0,0-0.1,0-0.1,0.1c-1.3,0.6-2.3,1.7-2.9,3c0,0,0,0,0,0L18.4,34
			c-0.3,0.7-0.4,1.4-0.4,2.1c0,0,0,0,0,0c0,0.7,0.1,1.5,0.4,2.1l0.1,0.2c0,0,0,0,0,0c0,0,0,0,0,0c0,0,0,0.1,0.1,0.1
			c0.6,1.3,1.6,2.3,2.9,2.9l0,0c0,0,0,0,0,0c0,0,0,0,0.1,0c0,0,0,0,0,0l0.2,0.1C22.4,41.8,23.1,42,23.9,42C23.9,42,23.9,42,23.9,42z
			"/>
	</g>
	<g>
		<g>
			<circle class="st0" cx="47" cy="46.9" r="16.5"/>
			<path class="st1" d="M47,63.9c-9.4,0-17-7.6-17-17s7.6-17,17-17s17,7.6,17,17S56.4,63.9,47,63.9z M47,30.9c-8.8,0-16,7.2-16,16
				s7.2,16,16,16s16-7.2,16-16S55.8,30.9,47,30.9z"/>
		</g>
	</g>
	<g>
		<path class="st1" d="M63.4,48.9h-6.1v-0.5c0-1.6-1.3-2.8-2.8-2.8c-1.6,0-2.8,1.3-2.8,2.8v0.5H45v-5.7c-1.9-0.2-3.3-1.9-3.3-3.8
			c0-2,1.5-3.6,3.3-3.8v-5.1h1v6.1h-0.5c-1.6,0-2.8,1.3-2.8,2.8c0,1.6,1.3,2.8,2.8,2.8H46v5.6h4.7c0.2-1.9,1.9-3.3,3.8-3.3
			c2,0,3.6,1.5,3.8,3.3h5.1V48.9z"/>
	</g>
	<g>
		<path class="st1" d="M46,63.3h-1v-3.1h0.5c1.6,0,2.8-1.3,2.8-2.8c0-1.6-1.3-2.8-2.8-2.8H45v-5.6h-4.7c-0.2,1.9-1.9,3.3-3.8,3.3
			c-2,0-3.6-1.5-3.8-3.3h-2.1v-1h3v0.5c0,1.6,1.3,2.8,2.8,2.8c1.6,0,2.8-1.3,2.8-2.8v-0.5H46v5.7c1.9,0.2,3.3,1.9,3.3,3.8
			S47.9,61,46,61.2V63.3z"/>
	</g>
</g>
</svg>
