<?xml version="1.0" encoding="UTF-8" standalone="no"?>
<svg
   xmlns:dc="http://purl.org/dc/elements/1.1/"
   xmlns:cc="http://creativecommons.org/ns#"
   xmlns:rdf="http://www.w3.org/1999/02/22-rdf-syntax-ns#"
   xmlns:svg="http://www.w3.org/2000/svg"
   xmlns="http://www.w3.org/2000/svg"
   xmlns:sodipodi="http://sodipodi.sourceforge.net/DTD/sodipodi-0.dtd"
   xmlns:inkscape="http://www.inkscape.org/namespaces/inkscape"
   viewBox="0 0 64 64"
   height="64"
   width="64"
   xml:space="preserve"
   id="svg2"
   version="1.1"
   sodipodi:docname="DIGI503533354_AppIcon4.svg"
   inkscape:version="0.92.3 (2405546, 2018-03-11)"><sodipodi:namedview
     pagecolor="#ffffff"
     bordercolor="#666666"
     borderopacity="1"
     objecttolerance="10"
     gridtolerance="10"
     guidetolerance="10"
     inkscape:pageopacity="0"
     inkscape:pageshadow="2"
     inkscape:window-width="1920"
     inkscape:window-height="986"
     id="namedview1350"
     showgrid="false"
     showborder="false"
     inkscape:zoom="4.259388"
     inkscape:cx="137.21492"
     inkscape:cy="-7.617771"
     inkscape:window-x="-11"
     inkscape:window-y="-11"
     inkscape:window-maximized="1"
     inkscape:current-layer="svg2" /><metadata
     id="metadata8"><rdf:RDF><cc:Work
         rdf:about=""><dc:format>image/svg+xml</dc:format><dc:type
           rdf:resource="http://purl.org/dc/dcmitype/StillImage" /><dc:title></dc:title></cc:Work></rdf:RDF></metadata><defs
     id="defs6"><clipPath
       clipPathUnits="userSpaceOnUse"
       id="clipPath1354"><rect
         style="opacity:0;fill:#ff7f2a;fill-opacity:1;stroke-width:0.75"
         id="rect1356"
         width="61.5"
         height="58.5"
         x="201.7038"
         y="-261.4679"
         rx="5.9137502"
         ry="0.98565006"
         transform="scale(1,-1)" /></clipPath></defs><g
     transform="matrix(1.0406504,0,0,-1.0940171,-209.90314,286.05034)"
     id="g10"
     clip-path="url(#clipPath1354)"><g
       transform="scale(0.1)"
       id="g12"><path
         id="path14"
         style="fill:#3b3d3f;fill-opacity:1;fill-rule:nonzero;stroke:none"
         d="m 2258,1252 h -90 c -11.03,0 -20,8.98 -20,20 v 400 c 0,11.03 8.97,20 20,20 h 200 c 11.02,0 20,-8.97 20,-20 v -80 c 0,-5.52 4.48,-10 10,-10 5.52,0 10,4.48 10,10 v 80 c 0,22.06 -17.94,40 -40,40 h -200 c -22.06,0 -40,-17.94 -40,-40 v -400 c 0,-22.06 17.94,-40 40,-40 h 90 c 5.52,0 10,4.48 10,10 0,5.52 -4.48,10 -10,10"
         inkscape:connector-curvature="0" /><path
         id="path16"
         style="fill:#3b3d3f;fill-opacity:1;fill-rule:nonzero;stroke:none"
         d="m 2238,1662 c -5.52,0 -10,-4.48 -10,-10 0,-5.52 4.48,-10 10,-10 h 60 c 5.52,0 10,4.48 10,10 0,5.52 -4.48,10 -10,10 h -60"
         inkscape:connector-curvature="0" /><path
         id="path18"
         style="fill:#3b3d3f;fill-opacity:1;fill-rule:nonzero;stroke:none"
         d="m 2508,1365.67 -14.82,-3.29 c -6.64,-1.46 -12.83,-7.11 -15.05,-13.77 -1.57,-4.72 -3.48,-9.37 -5.75,-13.89 -3.08,-6.24 -2.69,-14.58 0.94,-20.32 l 8.14,-12.78 -23.1,-23.08 -12.77,8.14 c -5.63,3.55 -14.46,3.87 -20.31,0.92 -4.48,-2.23 -9.17,-4.16 -13.9,-5.74 -6.61,-2.19 -12.26,-8.37 -13.74,-15.02 l -3.32,-14.84 h -32.64 l -3.3,14.78 c -1.46,6.68 -7.11,12.87 -13.73,15.08 -4.82,1.6 -9.49,3.53 -13.9,5.72 -6.06,3.03 -14.79,2.63 -20.34,-0.92 l -12.79,-8.12 -23.09,23.08 8.15,12.77 c 3.65,5.75 4.02,14.11 0.91,20.33 -2.28,4.6 -4.2,9.26 -5.73,13.93 -2.2,6.58 -8.36,12.23 -15.03,13.73 l -14.83,3.28 v 32.68 l 14.82,3.28 c 6.63,1.47 12.82,7.1 15.07,13.79 1.52,4.69 3.45,9.35 5.7,13.85 3.11,6.26 2.73,14.63 -0.91,20.34 l -8.15,12.79 23.09,23.08 12.75,-8.13 c 5.63,-3.59 14.38,-3.94 20.38,-0.91 4.38,2.18 9.04,4.11 13.94,5.73 6.6,2.23 12.23,8.42 13.69,15.01 l 3.3,14.83 h 32.64 l 3.3,-14.8 c 1.46,-6.63 7.09,-12.82 13.75,-15.06 4.82,-1.59 9.48,-3.53 13.86,-5.71 6.05,-3.02 14.73,-2.67 20.38,0.91 l 12.75,8.13 23.1,-23.09 -8.16,-12.81 c -3.62,-5.74 -4,-14.08 -0.9,-20.33 2.25,-4.47 4.16,-9.12 5.73,-13.89 2.22,-6.62 8.41,-12.26 15.03,-13.73 l 14.84,-3.29 z m 6.22,51.77 -16.35,3.6 c -0.25,0.12 -0.7,0.56 -0.76,0.62 -1.86,5.64 -4.15,11.2 -6.74,16.33 -0.1,0.29 -0.05,0.99 -0.17,0.87 l 9.19,14.45 c 4.28,6.79 3.25,16.18 -2.42,21.84 l -25.81,25.81 c -5.46,5.52 -15.18,6.66 -21.9,2.42 l -14.05,-8.99 -1.03,-0.07 c -5.23,2.61 -10.78,4.9 -16.31,6.72 -0.27,0.14 -0.72,0.57 -0.72,0.48 l -3.73,16.66 c -1.7,7.87 -9.08,13.82 -17.17,13.82 h -36.5 c -8.09,0 -15.47,-5.95 -17.17,-13.77 l -3.62,-16.34 c -0.12,-0.26 -0.57,-0.72 -0.62,-0.77 -5.74,-1.9 -11.31,-4.19 -17.21,-6.91 l -14.39,9.17 c -6.58,4.19 -16.33,3.15 -21.91,-2.4 l -25.87,-25.86 c -5.63,-5.71 -6.64,-15.1 -2.34,-21.85 l 9,-14.05 c 0.08,-0.27 0.08,-0.93 0.08,-1.04 -2.69,-5.35 -4.98,-10.92 -6.74,-16.32 -0.13,-0.26 -0.58,-0.71 -0.44,-0.71 l -16.79,-3.72 c -7.82,-1.77 -13.73,-9.15 -13.73,-17.17 v -36.53 c 0,-8.03 5.91,-15.41 13.78,-17.17 l 16.33,-3.59 c 0.27,-0.12 0.72,-0.57 0.77,-0.61 1.8,-5.5 4.09,-11.07 6.75,-16.39 0.07,-0.28 0,-0.87 0.17,-0.82 l -9.19,-14.44 c -4.29,-6.76 -3.27,-16.15 2.4,-21.86 l 25.85,-25.84 c 5.52,-5.5 15.32,-6.56 21.86,-2.39 l 14.08,8.99 1.02,0.08 c 5.25,-2.62 10.8,-4.9 16.32,-6.74 0.26,-0.14 0.69,-0.55 0.71,-0.49 l 3.73,-16.64 c 1.7,-7.88 9.08,-13.82 17.17,-13.82 h 36.5 c 8.09,0 15.47,5.94 17.17,13.76 l 3.62,16.35 c 0.13,0.25 0.56,0.7 0.65,0.76 5.62,1.88 11.17,4.17 17.15,6.93 l 14.44,-9.19 c 2.73,-1.74 5.96,-2.66 9.33,-2.66 4.75,0 9.32,1.85 12.52,5.07 l 25.84,25.84 c 5.67,5.65 6.7,15.05 2.41,21.87 l -8.99,14.05 c -0.1,0.28 -0.1,0.95 -0.1,1.04 2.67,5.32 4.96,10.88 6.74,16.32 0.14,0.26 0.59,0.7 0.47,0.71 l 16.73,3.71 c 7.85,1.76 13.77,9.14 13.77,17.17 v 36.53 c 0,8.04 -5.92,15.42 -13.78,17.18"
         inkscape:connector-curvature="0" /><path
         id="path20"
         style="fill:#3b3d3f;fill-opacity:1;fill-rule:nonzero;stroke:none"
         d="m 2378,1352 c -16.54,0 -30,13.46 -30,30 0,16.54 13.46,30 30,30 16.54,0 30,-13.46 30,-30 0,-16.54 -13.46,-30 -30,-30 z m 0,80 c -27.57,0 -50,-22.43 -50,-50 0,-27.57 22.43,-50 50,-50 27.57,0 50,22.43 50,50 0,27.57 -22.43,50 -50,50"
         inkscape:connector-curvature="0" /><path
         id="path22"
         style="fill:#3b3d3f;fill-opacity:1;fill-rule:nonzero;stroke:none"
         d="m 1692,2448 h -440 v 60 c 0,11.03 8.97,20 20,20 h 400 c 11.03,0 20,-8.97 20,-20 z m 0,-300 c 0,-11.03 -8.97,-20 -20,-20 h -400 c -11.03,0 -20,8.97 -20,20 v 280 h 440 z m -20,400 h -400 c -22.05,0 -40,-17.95 -40,-40 v -360 c 0,-22.06 17.95,-40 40,-40 h 400 c 22.06,0 40,17.94 40,40 v 360 c 0,22.05 -17.94,40 -40,40"
         inkscape:connector-curvature="0" /><path
         id="path24"
         style="fill:#3b3d3f;fill-opacity:1;fill-rule:nonzero;stroke:none"
         d="m 1292,2503 c -8.29,0 -15,-6.71 -15,-15 0,-8.29 6.71,-15 15,-15 8.29,0 15,6.71 15,15 0,8.29 -6.71,15 -15,15"
         inkscape:connector-curvature="0" /><path
         id="path26"
         style="fill:#3b3d3f;fill-opacity:1;fill-rule:nonzero;stroke:none"
         d="m 1352,2503 c -8.29,0 -15,-6.71 -15,-15 0,-8.29 6.71,-15 15,-15 8.29,0 15,6.71 15,15 0,8.29 -6.71,15 -15,15"
         inkscape:connector-curvature="0" /><path
         id="path28"
         style="fill:#3b3d3f;fill-opacity:1;fill-rule:nonzero;stroke:none"
         d="m 1332.34,2276.18 c 0.13,-0.69 0.27,-1.34 0.54,-1.99 0.09,-0.22 0.07,-0.45 0.18,-0.66 l 40,-80 c 1.75,-3.51 5.28,-5.53 8.95,-5.53 1.5,0 3.03,0.33 4.46,1.05 4.95,2.47 6.95,8.48 4.48,13.42 l -37.77,75.53 37.77,75.53 c 2.47,4.94 0.47,10.94 -4.48,13.41 -4.95,2.47 -10.95,0.47 -13.41,-4.47 l -40,-80 c -0.11,-0.21 -0.09,-0.45 -0.18,-0.67 -0.27,-0.64 -0.41,-1.29 -0.54,-1.98 -0.12,-0.62 -0.24,-1.21 -0.24,-1.82 0,-0.62 0.12,-1.21 0.24,-1.82"
         inkscape:connector-curvature="0" /><path
         id="path30"
         style="fill:#3b3d3f;fill-opacity:1;fill-rule:nonzero;stroke:none"
         d="m 1557.53,2189.05 c 1.43,-0.72 2.96,-1.05 4.46,-1.05 3.67,0 7.2,2.02 8.96,5.53 l 40,80 c 0.1,0.21 0.09,0.44 0.18,0.66 0.27,0.65 0.4,1.3 0.54,1.99 0.11,0.61 0.23,1.2 0.23,1.82 0,0.61 -0.12,1.2 -0.23,1.82 -0.14,0.69 -0.27,1.34 -0.54,1.98 -0.09,0.22 -0.08,0.46 -0.18,0.67 l -40,80 c -2.47,4.94 -8.46,6.94 -13.42,4.47 -4.94,-2.47 -6.94,-8.47 -4.47,-13.41 l 37.76,-75.53 -37.76,-75.53 c -2.47,-4.94 -0.47,-10.95 4.47,-13.42"
         inkscape:connector-curvature="0" /><path
         id="path32"
         style="fill:#3b3d3f;fill-opacity:1;fill-rule:nonzero;stroke:none"
         d="m 1438.49,2188.63 c 1.16,-0.43 2.34,-0.64 3.51,-0.64 4.05,0 7.86,2.48 9.37,6.5 l 60,160 c 1.94,5.17 -0.69,10.93 -5.86,12.87 -5.17,1.93 -10.93,-0.68 -12.87,-5.85 l -60,-160 c -1.94,-5.17 0.68,-10.93 5.85,-12.88"
         inkscape:connector-curvature="0" /><path
         id="path34"
         style="fill:#3b3d3f;fill-opacity:1;fill-rule:nonzero;stroke:none"
         d="m 2547.99,2448 h -440 v 60 c 0,11.03 8.96,20 20,20 h 400 c 11.03,0 20,-8.97 20,-20 z m -20,100 h -400 c -22.05,0 -40,-17.95 -40,-40 v -360 c 0,-22.06 17.95,-40 40,-40 h 160 c 5.53,0 10,4.48 10,10 0,5.52 -4.47,10 -10,10 h -160 c -11.04,0 -20,8.97 -20,20 v 280 h 440 v -50 c 0,-5.52 4.47,-10 10,-10 5.53,0 10,4.48 10,10 v 130 c 0,22.05 -17.95,40 -40,40"
         inkscape:connector-curvature="0" /><path
         id="path36"
         style="fill:#3b3d3f;fill-opacity:1;fill-rule:nonzero;stroke:none"
         d="m 2147.99,2503 c -8.29,0 -15,-6.71 -15,-15 0,-8.29 6.71,-15 15,-15 8.29,0 15,6.71 15,15 0,8.29 -6.71,15 -15,15"
         inkscape:connector-curvature="0" /><path
         id="path38"
         style="fill:#3b3d3f;fill-opacity:1;fill-rule:nonzero;stroke:none"
         d="m 2207.99,2503 c -8.29,0 -15,-6.71 -15,-15 0,-8.29 6.71,-15 15,-15 8.29,0 15,6.71 15,15 0,8.29 -6.71,15 -15,15"
         inkscape:connector-curvature="0" /><path
         id="path40"
         style="fill:#3b3d3f;fill-opacity:1;fill-rule:nonzero;stroke:none"
         d="m 2387.99,2168 c -55.14,0 -100,44.86 -100,100 0,55.14 44.86,100 100,100 55.14,0 100,-44.86 100,-100 0,-55.14 -44.86,-100 -100,-100 z m 91.54,22.59 c 17.72,20.92 28.46,47.92 28.46,77.41 0,66.17 -53.83,120 -120,120 -66.17,0 -120,-53.83 -120,-120 0,-66.17 53.83,-120 120,-120 29.49,0 56.48,10.74 77.4,28.45 l 85.53,-85.52 c 1.95,-1.96 4.51,-2.93 7.07,-2.93 2.56,0 5.12,0.97 7.07,2.93 3.9,3.9 3.9,10.23 0,14.14 l -85.53,85.52"
         inkscape:connector-curvature="0" /><path
         id="path42"
         style="fill:#3b3d3f;fill-opacity:1;fill-rule:nonzero;stroke:none"
         d="m 836.008,3077.67 -14.817,-3.29 c -6.644,-1.47 -12.836,-7.11 -15.062,-13.78 -1.559,-4.72 -3.477,-9.37 -5.742,-13.89 -3.078,-6.24 -2.692,-14.58 0.945,-20.32 l 8.137,-12.77 -23.098,-23.1 -12.781,8.15 c -5.61,3.56 -14.442,3.87 -20.297,0.92 -4.488,-2.23 -9.172,-4.16 -13.906,-5.74 -6.61,-2.19 -12.258,-8.37 -13.746,-15.03 L 722.324,2964 h -32.636 l -3.305,14.77 c -1.449,6.68 -7.106,12.87 -13.731,15.07 -4.808,1.61 -9.488,3.54 -13.89,5.73 -6.059,3.02 -14.801,2.63 -20.34,-0.92 l -12.793,-8.13 -23.094,23.09 8.145,12.78 c 3.656,5.74 4.031,14.1 0.925,20.32 -2.285,4.6 -4.207,9.27 -5.738,13.93 -2.195,6.58 -8.355,12.23 -15.023,13.73 l -14.836,3.29 v 32.67 l 14.82,3.28 c 6.637,1.46 12.82,7.1 15.067,13.79 1.531,4.69 3.453,9.35 5.707,13.85 3.105,6.26 2.722,14.63 -0.922,20.34 l -8.145,12.8 23.086,23.07 12.762,-8.12 c 5.617,-3.59 14.359,-3.95 20.379,-0.92 4.375,2.19 9.043,4.11 13.937,5.73 6.602,2.24 12.235,8.42 13.684,15.01 l 3.308,14.84 h 32.629 l 3.305,-14.81 c 1.461,-6.63 7.094,-12.81 13.754,-15.06 4.816,-1.59 9.476,-3.52 13.863,-5.71 6.039,-3.02 14.727,-2.67 20.367,0.91 l 12.762,8.13 23.098,-23.09 -8.156,-12.8 c -3.625,-5.75 -4.004,-14.09 -0.899,-20.34 2.238,-4.47 4.156,-9.12 5.731,-13.88 2.21,-6.63 8.402,-12.27 15.027,-13.73 l 14.836,-3.3 z m 6.219,51.76 -16.344,3.59 c -0.258,0.13 -0.707,0.58 -0.762,0.63 -1.859,5.64 -4.152,11.21 -6.738,16.33 -0.09,0.29 -0.004,0.96 -0.184,0.87 l 9.207,14.45 c 4.278,6.79 3.235,16.18 -2.426,21.84 l -25.808,25.81 c -5.473,5.52 -15.18,6.66 -21.91,2.43 l -14.035,-8.99 -1.039,-0.08 c -5.235,2.62 -10.786,4.9 -16.309,6.73 -0.274,0.14 -0.738,0.57 -0.727,0.48 l -3.722,16.65 c -1.707,7.88 -9.09,13.83 -17.172,13.83 h -36.504 c -8.082,0 -15.465,-5.95 -17.164,-13.77 l -3.613,-16.35 c -0.129,-0.25 -0.582,-0.71 -0.629,-0.77 -5.743,-1.9 -11.305,-4.19 -17.207,-6.91 l -14.399,9.17 c -6.578,4.2 -16.32,3.15 -21.898,-2.4 l -25.867,-25.86 c -5.637,-5.7 -6.649,-15.1 -2.344,-21.84 l 8.988,-14.06 c 0.094,-0.28 0.094,-0.93 0.086,-1.03 -2.687,-5.36 -4.98,-10.93 -6.734,-16.33 -0.137,-0.26 -0.582,-0.7 -0.453,-0.71 l -16.786,-3.71 c -7.824,-1.78 -13.726,-9.16 -13.726,-17.17 v -36.54 c 0,-8.03 5.91,-15.41 13.773,-17.16 l 16.336,-3.6 c 0.266,-0.12 0.715,-0.57 0.77,-0.6 1.804,-5.51 4.09,-11.07 6.746,-16.4 0.082,-0.27 0.043,-0.91 0.18,-0.82 l -9.196,-14.43 c -4.285,-6.77 -3.265,-16.16 2.403,-21.87 L 612.875,2975 c 5.516,-5.5 15.309,-6.56 21.855,-2.39 l 14.083,8.99 1.015,0.08 c 5.25,-2.62 10.797,-4.91 16.324,-6.74 0.254,-0.14 0.684,-0.56 0.7,-0.48 l 3.73,-16.65 c 1.707,-7.88 9.09,-13.81 17.172,-13.81 h 36.504 c 8.082,0 15.465,5.93 17.164,13.75 l 3.629,16.35 c 0.125,0.26 0.558,0.7 0.64,0.77 5.625,1.87 11.172,4.16 17.164,6.92 l 14.43,-9.19 c 2.738,-1.74 5.969,-2.65 9.336,-2.65 4.75,0 9.32,1.85 12.52,5.06 l 25.839,25.84 c 5.661,5.66 6.704,15.04 2.399,21.88 l -8.984,14.04 c -0.094,0.28 -0.098,0.96 -0.098,1.04 2.672,5.33 4.965,10.89 6.746,16.32 0.133,0.26 0.582,0.71 0.465,0.72 l 16.726,3.71 c 7.856,1.75 13.774,9.13 13.774,17.16 v 36.54 c 0,8.03 -5.918,15.42 -13.781,17.17"
         inkscape:connector-curvature="0" /><path
         id="path44"
         style="fill:#3b3d3f;fill-opacity:1;fill-rule:nonzero;stroke:none"
         d="m 706.008,3064 c -16.543,0 -30,13.45 -30,30 0,16.54 13.457,30 30,30 16.543,0 30,-13.46 30,-30 0,-16.55 -13.457,-30 -30,-30 z m 0,80 c -27.57,0 -50,-22.44 -50,-50 0,-27.57 22.43,-50 50,-50 27.566,0 50,22.43 50,50 0,27.56 -22.434,50 -50,50"
         inkscape:connector-curvature="0" /><path
         id="path46"
         style="fill:#3b3d3f;fill-opacity:1;fill-rule:nonzero;stroke:none"
         d="m 836.008,3303.99 h -440 v 60 c 0,11.03 8.969,20 20,20 h 400 c 11.027,0 20,-8.97 20,-20 z m -20,100 h -400 c -22.059,0 -40,-17.94 -40,-40 V 3004 c 0,-22.06 17.941,-40 40,-40 h 110 c 5.519,0 10,4.47 10,10 0,5.52 -4.481,10 -10,10 h -110 c -11.031,0 -20,8.96 -20,20 v 280 h 440 v -30 c 0,-5.53 4.476,-10 10,-10 5.519,0 10,4.47 10,10 v 109.99 c 0,22.06 -17.945,40 -40,40"
         inkscape:connector-curvature="0" /><path
         id="path48"
         style="fill:#3b3d3f;fill-opacity:1;fill-rule:nonzero;stroke:none"
         d="m 436.008,3358.99 c -8.293,0 -15,-6.7 -15,-15 0,-8.29 6.707,-15 15,-15 8.289,0 15,6.71 15,15 0,8.3 -6.711,15 -15,15"
         inkscape:connector-curvature="0" /><path
         id="path50"
         style="fill:#3b3d3f;fill-opacity:1;fill-rule:nonzero;stroke:none"
         d="m 496.008,3358.99 c -8.293,0 -15,-6.7 -15,-15 0,-8.29 6.707,-15 15,-15 8.289,0 15,6.71 15,15 0,8.3 -6.711,15 -15,15"
         inkscape:connector-curvature="0" /><path
         id="path52"
         style="fill:#3b3d3f;fill-opacity:1;fill-rule:nonzero;stroke:none"
         d="m 2249.98,3085.24 c -1.64,7.51 -8.27,14.78 -15.77,17.28 -6.26,2.08 -12.39,4.61 -18.23,7.52 -7.06,3.53 -16.9,3.09 -23.35,-1.04 l -18.23,-11.82 -33.19,32.9 11.82,18.55 c 4.12,6.46 4.55,16.27 1.03,23.31 -2.99,6.02 -5.52,12.15 -7.52,18.27 -2.53,7.56 -9.59,14.04 -17.22,15.77 l -21.32,4.52 -0.21,46.73 21.54,4.78 c 7.47,1.66 14.71,8.29 17.23,15.83 2.03,6.18 4.54,12.29 7.5,18.21 3.52,7.07 3.07,16.88 -1.03,23.32 l -11.85,18.25 32.91,33.16 18.51,-11.8 c 6.49,-4.14 16.35,-4.57 23.36,-1.03 5.78,2.87 11.91,5.41 18.28,7.52 7.47,2.52 14.09,9.76 15.74,17.22 l 4.55,21.3 46.7,0.19 4.79,-21.48 c 1.65,-7.47 8.27,-14.71 15.77,-17.24 6.32,-2.1 12.45,-4.63 18.22,-7.5 7.05,-3.53 16.87,-3.1 23.36,1.02 l 18.21,11.83 33.19,-32.91 -11.8,-18.54 c -2.97,-4.66 -1.59,-10.84 3.07,-13.8 4.66,-2.97 10.84,-1.59 13.8,3.07 l 11.82,18.57 c 4.8,7.62 3.64,18.17 -2.71,24.53 l -33.19,33.19 c -6.36,6.41 -16.93,7.6 -24.61,2.72 l -18.47,-11.76 c -0.77,-0.41 -2.92,-0.43 -3.74,-0.02 -6.62,3.29 -13.63,6.18 -20.8,8.57 -0.85,0.29 -2.36,1.8 -2.61,2.61 l -4.77,21.43 c -1.93,8.85 -10.22,15.52 -19.3,15.52 h -46.93 c -9.07,0 -17.36,-6.67 -19.28,-15.47 l -4.78,-21.45 c -0.26,-0.84 -1.76,-2.35 -2.59,-2.63 -7.22,-2.41 -14.23,-5.3 -20.89,-8.61 -0.78,-0.4 -2.91,-0.38 -3.64,0.01 l -18.53,11.81 c -7.56,4.8 -18.12,3.67 -24.59,-2.71 l -33.22,-33.22 c -6.35,-6.4 -7.5,-16.96 -2.65,-24.57 l 11.77,-18.49 c 0.42,-0.78 0.42,-2.92 0.04,-3.7 -3.39,-6.75 -6.29,-13.78 -8.59,-20.84 -0.29,-0.84 -1.81,-2.35 -2.58,-2.59 l -21.58,-4.78 c -8.79,-1.99 -15.42,-10.28 -15.42,-19.28 v -46.97 c 0,-9.03 6.65,-17.32 15.48,-19.28 l 21.44,-4.74 c 0.83,-0.25 2.37,-1.77 2.64,-2.55 2.28,-6.97 5.17,-14 8.6,-20.91 0.4,-0.79 0.38,-2.93 0.01,-3.65 l -11.85,-18.58 c -4.79,-7.61 -3.64,-18.15 2.72,-24.56 l 33.23,-33.2 c 6.39,-6.37 16.95,-7.51 24.56,-2.7 l 18.52,11.79 c 0.76,0.41 2.89,0.43 3.7,0.02 6.68,-3.33 13.69,-6.22 20.84,-8.6 0.82,-0.28 2.31,-1.79 2.56,-2.61 l 4.8,-21.48 c 1.04,-4.65 5.17,-7.82 9.75,-7.82 0.72,0 1.46,0.08 2.19,0.24 5.39,1.21 8.79,6.55 7.58,11.94 l -4.79,21.43"
         inkscape:connector-curvature="0" /><path
         id="path54"
         style="fill:#3b3d3f;fill-opacity:1;fill-rule:nonzero;stroke:none"
         d="m 2278,3192.57 c -22.84,0 -41.43,18.58 -41.43,41.43 0,22.84 18.59,41.42 41.43,41.42 22.84,0 41.42,-18.58 41.42,-41.42 0,-22.85 -18.58,-41.43 -41.42,-41.43 z m 61.42,41.43 c 0,33.87 -27.54,61.42 -61.42,61.42 -33.88,0 -61.43,-27.55 -61.43,-61.42 0,-33.88 27.55,-61.43 61.43,-61.43 33.88,0 61.42,27.55 61.42,61.43"
         inkscape:connector-curvature="0" /><path
         id="path56"
         style="fill:#3b3d3f;fill-opacity:1;fill-rule:nonzero;stroke:none"
         d="m 2548,2984 c 0,-11.04 -8.98,-20 -20,-20 h -113.8 c -12.55,0 -28.12,10.02 -33.31,21.45 l -51.99,114.38 c -2.33,5.12 -0.15,10.95 4.98,13.28 1.28,0.6 2.64,0.89 4.05,0.89 3.93,0 7.54,-2.31 9.16,-5.84 l 31.8,-70 c 1.95,-4.29 6.66,-6.64 11.23,-5.64 4.6,1 7.88,5.07 7.88,9.78 V 3224 c 0,5.51 4.48,10 10,10 5.52,0 10,-4.49 10,-10 v -90 c 0,-4.39 2.86,-8.27 7.06,-9.56 l 101.33,-31.18 c 11.72,-3.61 21.61,-17.01 21.61,-29.26 z m -15.73,128.37 -94.27,29.01 V 3224 c 0,16.54 -13.46,30 -30,30 -16.54,0 -30,-13.46 -30,-30 v -135.51 l -12.72,27.99 c -4.91,10.65 -15.64,17.52 -27.35,17.52 -4.32,0 -8.49,-0.91 -12.38,-2.7 -15.04,-6.85 -21.7,-24.68 -14.86,-39.74 l 51.99,-114.39 c 8.45,-18.6 31.09,-33.17 51.52,-33.17 H 2528 c 22.06,0 40,17.94 40,40 v 80 c 0,20.95 -15.7,42.2 -35.73,48.37"
         inkscape:connector-curvature="0" /><path
         id="path58"
         style="fill:#3b3d3f;fill-opacity:1;fill-rule:nonzero;stroke:none"
         d="m 3023.99,2408 c -27.56,0 -50,22.43 -50,50 0,27.57 22.44,50 50,50 27.57,0 50,-22.43 50,-50 0,-27.57 -22.43,-50 -50,-50 z m 0,120 c -38.6,0 -70,-31.4 -70,-70 0,-35.2 26.14,-64.33 60,-69.2 V 2138 c 0,-5.52 4.49,-10 10,-10 5.52,0 10,4.48 10,10 v 250.8 c 33.87,4.87 60,34 60,69.2 0,38.6 -31.39,70 -70,70"
         inkscape:connector-curvature="0" /><path
         id="path60"
         style="fill:#3b3d3f;fill-opacity:1;fill-rule:nonzero;stroke:none"
         d="m 3183.99,2188 c -27.56,0 -50,22.43 -50,50 0,27.57 22.44,50 50,50 27.57,0 50,-22.43 50,-50 0,-27.57 -22.43,-50 -50,-50 z m 10,119.2 V 2488 c 0,5.52 -4.48,10 -10,10 -5.51,0 -10,-4.48 -10,-10 v -180.8 c -33.86,-4.88 -60,-34.01 -60,-69.2 0,-35.2 26.14,-64.33 60,-69.2 V 2138 c 0,-5.52 4.49,-10 10,-10 5.52,0 10,4.48 10,10 v 30.8 c 33.87,4.87 60,34 60,69.2 0,35.19 -26.13,64.32 -60,69.2"
         inkscape:connector-curvature="0" /><path
         id="path62"
         style="fill:#3b3d3f;fill-opacity:1;fill-rule:nonzero;stroke:none"
         d="m 3343.99,2348 c -27.56,0 -50,22.43 -50,50 0,27.57 22.44,50 50,50 27.57,0 50,-22.43 50,-50 0,-27.57 -22.43,-50 -50,-50 z m 70,50 c 0,35.19 -26.13,64.32 -60,69.2 v 50.8 c 0,5.52 -4.48,10 -10,10 -5.51,0 -10,-4.48 -10,-10 v -50.8 c -33.86,-4.88 -60,-34.01 -60,-69.2 0,-35.2 26.14,-64.33 60,-69.2 V 2138 c 0,-5.52 4.49,-10 10,-10 5.52,0 10,4.48 10,10 v 190.8 c 33.87,4.87 60,34 60,69.2"
         inkscape:connector-curvature="0" /><path
         id="path64"
         style="fill:#3b3d3f;fill-opacity:1;fill-rule:nonzero;stroke:none"
         d="m 836.008,1592 h -440 v 60 c 0,11.03 8.969,20 20,20 h 400 c 11.027,0 20,-8.97 20,-20 z m 0,-300 c 0,-11.02 -8.973,-20 -20,-20 h -400 c -11.031,0 -20,8.98 -20,20 v 280 h 440 z m -20,400 h -400 c -22.059,0 -40,-17.94 -40,-40 v -360 c 0,-22.06 17.941,-40 40,-40 h 400 c 22.055,0 40,17.94 40,40 v 360 c 0,22.06 -17.945,40 -40,40"
         inkscape:connector-curvature="0" /><path
         id="path66"
         style="fill:#3b3d3f;fill-opacity:1;fill-rule:nonzero;stroke:none"
         d="m 436.008,1647 c -8.293,0 -15,-6.71 -15,-15 0,-8.29 6.707,-15 15,-15 8.289,0 15,6.71 15,15 0,8.29 -6.711,15 -15,15"
         inkscape:connector-curvature="0" /><path
         id="path68"
         style="fill:#3b3d3f;fill-opacity:1;fill-rule:nonzero;stroke:none"
         d="m 496.008,1647 c -8.293,0 -15,-6.71 -15,-15 0,-8.29 6.707,-15 15,-15 8.289,0 15,6.71 15,15 0,8.29 -6.711,15 -15,15"
         inkscape:connector-curvature="0" /><path
         id="path70"
         style="fill:#3b3d3f;fill-opacity:1;fill-rule:nonzero;stroke:none"
         d="m 616.008,1482 c 5.519,0 10,4.48 10,10 v 30 c 0,5.52 -4.481,10 -10,10 -5.524,0 -10,-4.48 -10,-10 v -30 c 0,-5.52 4.476,-10 10,-10"
         inkscape:connector-curvature="0" /><path
         id="path72"
         style="fill:#3b3d3f;fill-opacity:1;fill-rule:nonzero;stroke:none"
         d="m 558.715,1480.15 c 1.48,-4.07 5.312,-6.6 9.398,-6.6 1.141,0 2.293,0.2 3.418,0.61 5.192,1.89 7.867,7.64 5.985,12.82 l -10.254,28.19 c -1.895,5.2 -7.649,7.86 -12.821,5.98 -5.187,-1.89 -7.863,-7.63 -5.98,-12.82 l 10.254,-28.18"
         inkscape:connector-curvature="0" /><path
         id="path74"
         style="fill:#3b3d3f;fill-opacity:1;fill-rule:nonzero;stroke:none"
         d="m 518.344,1452.82 c 1.976,-2.35 4.808,-3.57 7.668,-3.57 2.265,0 4.547,0.77 6.422,2.33 4.23,3.56 4.785,9.87 1.234,14.09 l -19.277,22.99 c -3.551,4.23 -9.856,4.79 -14.086,1.24 -4.235,-3.55 -4.785,-9.86 -1.239,-14.09 l 19.278,-22.99"
         inkscape:connector-curvature="0" /><path
         id="path76"
         style="fill:#3b3d3f;fill-opacity:1;fill-rule:nonzero;stroke:none"
         d="m 463.762,1428.34 25.972,-15 c 1.575,-0.91 3.297,-1.34 4.993,-1.34 3.457,0 6.816,1.79 8.671,5 2.758,4.78 1.122,10.9 -3.664,13.66 l -25.972,15 c -4.785,2.77 -10.907,1.13 -13.664,-3.66 -2.758,-4.77 -1.121,-10.9 3.664,-13.66"
         inkscape:connector-curvature="0" /><path
         id="path78"
         style="fill:#3b3d3f;fill-opacity:1;fill-rule:nonzero;stroke:none"
         d="m 446.82,1371.68 29.551,-5.23 c 0.594,-0.1 1.18,-0.15 1.754,-0.15 4.762,0 8.98,3.41 9.84,8.25 0.961,5.45 -2.668,10.63 -8.106,11.6 l -29.55,5.24 c -5.481,0.94 -10.629,-2.68 -11.594,-8.11 -0.961,-5.45 2.668,-10.62 8.105,-11.6"
         inkscape:connector-curvature="0" /><path
         id="path80"
         style="fill:#3b3d3f;fill-opacity:1;fill-rule:nonzero;stroke:none"
         d="m 744.047,1374.57 c 0.855,-4.86 5.074,-8.27 9.84,-8.27 0.57,0 1.156,0.05 1.742,0.15 l 29.512,5.19 c 5.441,0.96 9.074,6.15 8.117,11.58 -0.957,5.45 -6.113,9.08 -11.582,8.13 l -29.512,-5.2 c -5.441,-0.95 -9.074,-6.15 -8.117,-11.58"
         inkscape:connector-curvature="0" /><path
         id="path82"
         style="fill:#3b3d3f;fill-opacity:1;fill-rule:nonzero;stroke:none"
         d="m 728.59,1417.01 c 1.848,-3.21 5.215,-5.01 8.676,-5.01 1.695,0 3.41,0.43 4.98,1.34 l 25.977,14.96 c 4.785,2.75 6.429,8.87 3.675,13.65 -2.757,4.79 -8.875,6.43 -13.656,3.67 l -25.976,-14.96 c -4.786,-2.75 -6.43,-8.86 -3.676,-13.65"
         inkscape:connector-curvature="0" /><path
         id="path84"
         style="fill:#3b3d3f;fill-opacity:1;fill-rule:nonzero;stroke:none"
         d="m 706,1449.25 c 2.852,0 5.684,1.22 7.66,3.56 l 19.278,22.95 c 3.554,4.24 3.003,10.55 -1.223,14.09 -4.227,3.56 -10.539,3 -14.086,-1.22 l -19.277,-22.95 c -3.555,-4.23 -3.004,-10.54 1.222,-14.09 1.875,-1.57 4.156,-2.34 6.426,-2.34"
         inkscape:connector-curvature="0" /><path
         id="path86"
         style="fill:#3b3d3f;fill-opacity:1;fill-rule:nonzero;stroke:none"
         d="m 660.473,1474.17 c 1.132,-0.42 2.285,-0.62 3.422,-0.62 4.085,0 7.921,2.53 9.398,6.59 l 10.254,28.16 c 1.887,5.2 -0.789,10.94 -5.973,12.82 -5.203,1.91 -10.933,-0.78 -12.816,-5.96 l -10.254,-28.17 c -1.891,-5.19 0.785,-10.94 5.969,-12.82"
         inkscape:connector-curvature="0" /><path
         id="path88"
         style="fill:#3b3d3f;fill-opacity:1;fill-rule:nonzero;stroke:none"
         d="m 611.008,1314.05 c 1.574,-0.91 3.293,-1.34 4.988,-1.34 3.457,0 6.817,1.8 8.672,5 l 40,69.29 c 2.758,4.79 1.117,10.9 -3.66,13.66 -4.801,2.78 -10.903,1.12 -13.664,-3.66 l -40,-69.29 c -2.758,-4.78 -1.117,-10.89 3.664,-13.66"
         inkscape:connector-curvature="0" /><path
         id="path90"
         style="fill:#3b3d3f;fill-opacity:1;fill-rule:nonzero;stroke:none"
         d="m 2963.99,1652 c 0,11.03 8.98,20 20,20 h 400 c 11.03,0 20,-8.97 20,-20 v -60 h -440 z m 130,-380 h -110 c -11.02,0 -20,8.98 -20,20 v 280 h 440 v -30 c 0,-5.52 4.49,-10 10,-10 5.52,0 10,4.48 10,10 v 110 c 0,22.06 -17.94,40 -40,40 h -400 c -22.06,0 -40,-17.94 -40,-40 v -360 c 0,-22.06 17.94,-40 40,-40 h 110 c 5.52,0 10,4.48 10,10 0,5.52 -4.48,10 -10,10"
         inkscape:connector-curvature="0" /><path
         id="path92"
         style="fill:#3b3d3f;fill-opacity:1;fill-rule:nonzero;stroke:none"
         d="m 3003.99,1647 c -8.29,0 -15,-6.71 -15,-15 0,-8.29 6.71,-15 15,-15 8.3,0 15,6.71 15,15 0,8.29 -6.7,15 -15,15"
         inkscape:connector-curvature="0" /><path
         id="path94"
         style="fill:#3b3d3f;fill-opacity:1;fill-rule:nonzero;stroke:none"
         d="m 3063.99,1647 c -8.29,0 -15,-6.71 -15,-15 0,-8.29 6.71,-15 15,-15 8.3,0 15,6.71 15,15 0,8.29 -6.7,15 -15,15"
         inkscape:connector-curvature="0" /><path
         id="path96"
         style="fill:#3b3d3f;fill-opacity:1;fill-rule:nonzero;stroke:none"
         d="m 3316.62,1357.05 c -3.51,-2.54 -5,-7.08 -3.65,-11.21 l 25.41,-77.74 -66.62,48.11 c -1.74,1.27 -3.79,1.9 -5.85,1.9 -2.06,0 -4.11,-0.63 -5.85,-1.9 l -66.63,-48.11 25.42,77.74 c 1.35,4.13 -0.14,8.67 -3.65,11.21 l -66.45,48 h 82.21 c 4.32,0 8.16,2.78 9.51,6.89 l 25.45,77.88 25.45,-77.88 c 1.34,-4.11 5.18,-6.89 9.51,-6.89 h 82.19 z m 106.9,61.07 c -1.35,4.13 -5.19,6.93 -9.53,6.93 h -105.86 l -32.72,100.06 c -1.35,4.11 -5.18,6.89 -9.5,6.89 -4.33,0 -8.16,-2.78 -9.5,-6.89 l -32.7,-100.06 h -105.89 c -4.33,0 -8.17,-2.8 -9.52,-6.93 -1.33,-4.12 0.16,-8.64 3.67,-11.18 l 85.59,-61.82 -32.7,-100.01 c -1.33,-4.11 0.12,-8.63 3.62,-11.18 1.75,-1.29 3.82,-1.93 5.9,-1.93 2.05,0 4.1,0.64 5.85,1.9 l 85.68,61.87 85.65,-61.87 c 3.52,-2.54 8.26,-2.53 11.76,0.03 3.5,2.55 4.95,7.07 3.61,11.18 l -32.67,100.01 85.58,61.82 c 3.52,2.54 5,7.06 3.68,11.18"
         inkscape:connector-curvature="0" /><path
         id="path98"
         style="fill:#3b3d3f;fill-opacity:1;fill-rule:nonzero;stroke:none"
         d="m 1412,1272 h -140 c -11.03,0 -20,8.98 -20,20 v 280 h 290 c 5.52,0 10,4.48 10,10 0,5.52 -4.48,10 -10,10 h -290 v 60 c 0,11.03 8.97,20 20,20 h 400 c 11.03,0 20,-8.97 20,-20 0,-5.52 4.48,-10 10,-10 5.52,0 10,4.48 10,10 0,22.06 -17.94,40 -40,40 h -400 c -22.05,0 -40,-17.94 -40,-40 v -360 c 0,-22.06 17.95,-40 40,-40 h 140 c 5.52,0 10,4.48 10,10 0,5.52 -4.48,10 -10,10"
         inkscape:connector-curvature="0" /><path
         id="path100"
         style="fill:#3b3d3f;fill-opacity:1;fill-rule:nonzero;stroke:none"
         d="m 1277,1632 c 0,-8.29 6.71,-15 15,-15 8.29,0 15,6.71 15,15 0,8.29 -6.71,15 -15,15 -8.29,0 -15,-6.71 -15,-15"
         inkscape:connector-curvature="0" /><path
         id="path102"
         style="fill:#3b3d3f;fill-opacity:1;fill-rule:nonzero;stroke:none"
         d="m 1337,1632 c 0,-8.29 6.71,-15 15,-15 8.29,0 15,6.71 15,15 0,8.29 -6.71,15 -15,15 -8.29,0 -15,-6.71 -15,-15"
         inkscape:connector-curvature="0" /><path
         id="path104"
         style="fill:#3b3d3f;fill-opacity:1;fill-rule:nonzero;stroke:none"
         d="m 1689.32,1552.25 -10,-17.32 -51.97,30 10,17.32 c 3.56,6.17 10.21,10.02 17.35,10.02 3.48,0 6.93,-0.94 9.98,-2.7 l 17.31,-10 c 9.55,-5.51 12.84,-17.77 7.33,-27.32 z m -150,-259.81 c -1.9,-3.28 -6.76,-8.16 -10.02,-10.06 l -45.89,-26.76 0.24,53.13 c 0.02,3.77 1.81,10.42 3.71,13.69 l 129.99,225.17 51.97,-30 z m 152.67,304.45 -17.31,10 c -6.08,3.52 -12.99,5.38 -19.98,5.38 -14.26,0 -27.55,-7.68 -34.67,-20.02 l -14.99,-25.97 c 0,-0.01 -0.01,-0.01 -0.01,-0.01 0,0 0,-0.01 -0.01,-0.02 l -134.97,-233.79 c -3.62,-6.25 -6.37,-16.41 -6.4,-23.63 l -0.27,-60.63 c -0.02,-6.14 2.46,-9.94 4.55,-12.03 2.69,-2.69 6.29,-4.17 10.16,-4.17 3,0 6,0.86 8.92,2.57 l 52.34,30.53 c 6.23,3.61 13.66,11.07 17.29,17.34 l 135,233.83 15,25.98 c 11.02,19.1 4.45,43.61 -14.65,54.64"
         inkscape:connector-curvature="0" /><path
         id="path106"
         style="fill:#3b3d3f;fill-opacity:1;fill-rule:nonzero;stroke:none"
         d="m 1551.99,633.141 -11.55,-2.551 c -6.19,-1.348 -11.94,-6.59 -14,-12.801 -1.25,-3.84 -2.88,-7.758 -4.82,-11.668 -2.86,-5.75 -2.51,-13.48 0.88,-18.832 l 6.34,-9.98 -18.17,-18.168 -10.04,6.398 c -5.21,3.27 -13.19,3.602 -18.77,0.82 -3.78,-1.89 -7.72,-3.519 -11.71,-4.839 -6.12,-2.032 -11.35,-7.758 -12.72,-13.918 l -2.6,-11.59 h -25.68 l -2.58,11.547 c -1.36,6.179 -6.59,11.921 -12.75,13.961 -4.03,1.332 -7.96,2.949 -11.72,4.851 -5.61,2.77 -13.63,2.418 -18.81,-0.879 l -10,-6.351 -18.17,18.16 6.36,9.988 c 3.39,5.332 3.74,13.082 0.88,18.801 -1.92,3.879 -3.54,7.82 -4.83,11.762 -2.04,6.109 -7.76,11.347 -13.94,12.718 l -11.6,2.571 v 25.73 l 11.54,2.559 c 6.18,1.32 11.93,6.55 14.01,12.761 1.29,3.938 2.91,7.868 4.83,11.707 2.86,5.813 2.48,13.551 -0.89,18.832 l -6.37,9.981 18.17,18.16 9.98,-6.351 c 5.22,-3.34 13.21,-3.692 18.9,-0.848 3.62,1.828 7.55,3.449 11.74,4.84 6.11,2.07 11.32,7.789 12.66,13.879 l 2.59,11.621 h 25.68 l 2.58,-11.614 c 1.36,-6.109 6.57,-11.816 12.74,-13.918 4.11,-1.359 8.04,-2.98 11.68,-4.82 5.62,-2.808 13.65,-2.469 18.85,0.852 l 9.98,6.359 18.18,-18.18 -6.36,-10 c -3.37,-5.32 -3.72,-13.05 -0.85,-18.839 1.93,-3.872 3.56,-7.782 4.83,-11.692 2.05,-6.168 7.81,-11.41 13.94,-12.711 l 11.59,-2.578 z m 7.07,44.629 -13.61,2.64 c -1.56,4.801 -3.56,9.629 -6.09,13.559 l 7.87,12.363 c 4.04,6.367 3.08,15.18 -2.26,20.52 l -22.08,22.078 c -5.12,5.211 -14.16,6.332 -20.59,2.332 l -11.48,-7.723 c -4.5,2.262 -9.34,4.25 -13.89,5.211 l -3.17,14.262 c -1.59,7.41 -8.53,13 -16.12,13 h -31.29 c -7.6,0 -14.53,-5.59 -16.11,-12.922 l -2.7,-13.621 c -5.04,-1.68 -9.89,-3.668 -13.53,-6.078 l -12.33,7.828 c -6.18,3.98 -15.32,2.98 -20.56,-2.231 l -22.2,-22.187 c -5.25,-5.34 -6.19,-14.141 -2.18,-20.492 l 7.71,-11.52 c -2.33,-4.66 -4.32,-9.508 -5.19,-13.828 l -14.39,-3.191 c -7.34,-1.68 -12.88,-8.598 -12.88,-16.122 V 630.34 c 0,-7.559 5.57,-14.481 12.93,-16.098 l 13.62,-2.664 c 1.57,-4.797 3.56,-9.637 6.07,-13.547 l -7.9,-12.39 c -3.98,-6.321 -3.03,-15.11 2.27,-20.5 l 22.15,-22.121 c 5.2,-5.211 14.47,-6.149 20.52,-2.258 l 11.52,7.718 c 4.58,-2.308 9.42,-4.3 13.87,-5.242 l 3.18,-14.258 c 1.6,-7.402 8.53,-12.968 16.13,-12.968 h 31.29 c 7.59,0 14.52,5.566 16.11,12.898 l 2.69,13.629 c 4.89,1.609 9.72,3.609 13.5,6.09 l 12.36,-7.867 c 6.25,-3.981 15.49,-2.891 20.52,2.258 l 22.15,22.14 c 5.33,5.32 6.3,14.141 2.25,20.52 l -7.69,11.539 c 2.37,4.761 4.37,9.601 5.21,13.832 l 14.32,3.191 c 7.37,1.637 12.93,8.559 12.93,16.098 v 31.308 c 0,7.551 -5.56,14.481 -12.93,16.122"
         inkscape:connector-curvature="0" /><path
         id="path108"
         style="fill:#3b3d3f;fill-opacity:1;fill-rule:nonzero;stroke:none"
         d="m 1441.99,621.711 c -13.4,0 -24.29,10.898 -24.29,24.301 0,13.386 10.89,24.289 24.29,24.289 13.39,0 24.28,-10.903 24.28,-24.289 0,-13.403 -10.89,-24.301 -24.28,-24.301 z m 0,68.59 c -24.42,0 -44.29,-19.871 -44.29,-44.289 0,-24.434 19.87,-44.301 44.29,-44.301 24.42,0 44.28,19.867 44.28,44.301 0,24.418 -19.86,44.289 -44.28,44.289"
         inkscape:connector-curvature="0" /><path
         id="path110"
         style="fill:#3b3d3f;fill-opacity:1;fill-rule:nonzero;stroke:none"
         d="m 1441.99,456.012 c -104.76,0 -190,85.226 -190,190 0,104.758 85.24,190 190,190 104.77,0 190,-85.242 190,-190 0,-104.774 -85.23,-190 -190,-190 z m 267.07,-62.93 -111.91,111.906 c 33.95,37.313 54.84,86.711 54.84,141.024 0,115.789 -94.2,210 -210,210 -115.79,0 -210,-94.211 -210,-210 0,-115.801 94.21,-210 210,-210 54.31,0 103.7,20.879 141.02,54.84 l 111.91,-111.911 c 1.96,-1.961 4.51,-2.929 7.07,-2.929 2.56,0 5.12,0.968 7.07,2.929 3.91,3.899 3.91,10.231 0,14.141"
         inkscape:connector-curvature="0" /><path
         id="path112"
         style="fill:#3b3d3f;fill-opacity:1;fill-rule:nonzero;stroke:none"
         d="m 3243.98,456.012 c -55.13,0 -100,44.847 -100,100 0,55.136 44.87,100 100,100 55.14,0 100,-44.864 100,-100 0,-55.153 -44.86,-100 -100,-100 z m 91.56,22.59 c 17.7,20.918 28.44,47.918 28.44,77.41 0,66.16 -53.82,120 -120,120 -66.17,0 -120,-53.84 -120,-120 0,-66.172 53.83,-120 120,-120 29.5,0 56.5,10.738 77.42,28.449 l 85.51,-85.52 c 1.96,-1.961 4.52,-2.929 7.07,-2.929 2.56,0 5.12,0.968 7.07,2.929 3.91,3.899 3.91,10.231 0,14.141 l -85.51,85.52"
         inkscape:connector-curvature="0" /><path
         id="path114"
         style="fill:#3b3d3f;fill-opacity:1;fill-rule:nonzero;stroke:none"
         d="m 2964.47,606.012 h 79.79 c 0.8,-33.422 5.5,-65.614 13.79,-95 h -67.42 c -15.8,28.988 -24.65,61.308 -26.16,95 z m 26.16,115 h 67.42 c -8.29,-29.403 -12.99,-61.59 -13.79,-95 h -79.79 c 1.51,33.679 10.36,66 26.16,95 z m 37.79,50.558 c 24.48,24.481 53.79,42.282 85.7,52.942 -11.19,-10.992 -21.54,-24.692 -30.74,-40.992 -7.34,-13.008 -13.61,-27.348 -18.99,-42.508 h -61.33 c 7.49,10.789 15.87,21.078 25.36,30.558 z m 145.56,63.551 v -94.109 h -88.4 c 4.44,11.59 9.5,22.558 15.22,32.679 20.2,35.84 45.88,57.188 73.18,61.43 z m 20,0 c 27.31,-4.242 53,-25.59 73.21,-61.441 5.65,-10 10.73,-20.918 15.22,-32.668 h -88.43 z m 145.57,-63.551 c 9.49,-9.48 17.87,-19.769 25.36,-30.558 h -61.36 c -5.43,15.359 -11.69,29.679 -18.94,42.508 -9.2,16.3 -19.55,30 -30.76,40.992 31.91,-10.66 61.22,-28.461 85.7,-52.942 z M 3183.98,396.012 c -58.77,0 -114.01,22.879 -155.56,64.429 -9.49,9.481 -17.87,19.77 -25.36,30.571 h 61.33 c 5.38,-15.172 11.65,-29.512 18.99,-42.512 1.83,-3.27 5.23,-5.09 8.72,-5.09 1.67,0 3.35,0.422 4.91,1.301 4.81,2.711 6.51,8.809 3.79,13.609 -5.72,10.121 -10.78,21.09 -15.22,32.692 h 8.4 c 5.53,0 10,4.48 10,10 0,5.508 -4.47,10 -10,10 h -15.28 c -8.74,29.019 -13.6,61.347 -14.44,95 h 19.72 c 5.53,0 10,4.48 10,10 0,5.508 -4.47,10 -10,10 h -19.72 c 0.84,33.636 5.7,65.968 14.44,95 h 95.28 v -15 c 0,-5.52 4.48,-10 10,-10 5.53,0 10,4.48 10,10 v 15 h 95.19 c 1.71,-5.66 3.35,-11.422 4.81,-17.391 1.31,-5.359 6.73,-8.621 12.09,-7.332 5.38,1.332 8.66,6.742 7.33,12.102 -1.06,4.32 -2.31,8.441 -3.49,12.621 h 67.43 c 17.36,-31.871 26.64,-67.711 26.64,-105 0,-5.52 4.48,-10 10,-10 5.53,0 10,4.48 10,10 0,64.109 -24.96,124.379 -70.29,169.699 -45.33,45.328 -105.59,70.301 -169.71,70.301 -64.11,0 -124.37,-24.973 -169.7,-70.301 -45.33,-45.32 -70.3,-105.59 -70.3,-169.699 0,-64.121 24.97,-124.391 70.3,-169.711 45.33,-45.321 105.59,-70.289 169.7,-70.289 5.53,0 10,4.48 10,10 0,5.508 -4.47,10 -10,10"
         inkscape:connector-curvature="0" /><path
         id="path116"
         style="fill:#3b3d3f;fill-opacity:1;fill-rule:nonzero;stroke:none"
         d="m 396.492,606.012 h 79.793 c 0.789,-33.422 5.492,-65.614 13.778,-95 h -67.411 c -15.797,28.968 -24.656,61.289 -26.16,95 z m 26.16,115 h 67.411 c -8.286,-29.403 -12.989,-61.59 -13.778,-95 h -79.793 c 1.504,33.699 10.363,66.019 26.16,95 z m 37.836,50.527 c 24.446,24.5 53.742,42.313 85.66,52.973 C 534.949,813.52 524.594,799.82 515.406,783.52 508.059,770.512 501.785,756.172 496.41,741.012 h -61.308 c 7.496,10.789 15.89,21.058 25.386,30.527 z m 145.52,63.582 v -94.109 h -88.414 c 4.449,11.59 9.511,22.558 15.226,32.679 20.192,35.84 45.879,57.188 73.188,61.43 z m 20,0 c 27.305,-4.242 52.992,-25.59 73.195,-61.441 5.652,-10 10.735,-20.918 15.223,-32.668 h -88.418 z m 145.523,-63.59 c 9.43,-9.422 17.871,-19.679 25.383,-30.519 h -61.351 c -5.434,15.359 -11.696,29.679 -18.942,42.508 -9.195,16.3 -19.555,30 -30.758,40.992 31.918,-10.66 61.223,-28.473 85.668,-52.981 z M 568.164,401.27 c -40.73,9 -77.969,29.48 -107.695,59.222 -9.492,9.469 -17.875,19.727 -25.371,30.52 h 61.312 c 5.375,-15.172 11.649,-29.512 18.996,-42.512 1.836,-3.27 5.223,-5.09 8.715,-5.09 1.664,0 3.356,0.422 4.906,1.301 4.813,2.711 6.504,8.809 3.789,13.609 -22.402,39.649 -35.156,91.801 -36.539,147.692 h 19.731 c 5.519,0 10,4.48 10,10 0,5.508 -4.481,10 -10,10 h -19.731 c 0.836,33.648 5.696,65.976 14.446,95 h 95.285 v -15 c 0,-5.52 4.476,-10 10,-10 5.519,0 10,4.48 10,10 v 15 h 95.176 c 1.711,-5.66 3.343,-11.422 4.808,-17.391 1.313,-5.359 6.735,-8.621 12.094,-7.332 5.359,1.332 8.648,6.742 7.328,12.102 -1.059,4.32 -2.305,8.441 -3.488,12.621 h 67.289 c 8.203,-15.071 14.711,-31.012 19.129,-47.571 1.418,-5.332 6.886,-8.5 12.238,-7.089 5.336,1.41 8.512,6.886 7.09,12.218 -10.719,40.239 -32.16,77.27 -61.988,107.09 -45.254,45.371 -105.512,70.352 -169.676,70.352 -64.168,0 -124.426,-24.981 -169.66,-70.332 -45.364,-45.25 -70.34,-105.5 -70.34,-169.668 0,-64.172 24.976,-124.434 70.332,-169.672 32.41,-32.43 73.047,-54.77 117.508,-64.598 0.726,-0.164 1.449,-0.242 2.168,-0.242 4.586,0 8.718,3.18 9.754,7.852 1.195,5.386 -2.211,10.73 -7.606,11.918"
         inkscape:connector-curvature="0" /><path
         id="path118"
         style="fill:#3b3d3f;fill-opacity:1;fill-rule:nonzero;stroke:none"
         d="m 836.008,509.68 -14.817,-3.289 c -6.644,-1.469 -12.836,-7.11 -15.062,-13.77 -1.559,-4.73 -3.477,-9.383 -5.742,-13.902 -3.078,-6.239 -2.692,-14.578 0.945,-20.309 l 8.137,-12.789 -23.098,-23.082 -12.781,8.141 c -5.61,3.562 -14.442,3.879 -20.297,0.922 -4.488,-2.231 -9.172,-4.161 -13.906,-5.743 -6.61,-2.187 -12.258,-8.371 -13.746,-15.019 l -3.317,-14.828 h -32.636 l -3.305,14.769 c -1.449,6.68 -7.106,12.867 -13.731,15.078 -4.808,1.602 -9.488,3.532 -13.89,5.719 -6.059,3.031 -14.801,2.641 -20.34,-0.918 l -12.793,-8.121 -23.094,23.082 8.145,12.777 c 3.656,5.743 4.031,14.102 0.925,20.321 -2.285,4.601 -4.207,9.273 -5.738,13.941 -2.195,6.582 -8.355,12.219 -15.023,13.731 l -14.836,3.281 v 32.668 l 14.82,3.281 c 6.637,1.469 12.82,7.098 15.067,13.789 1.531,4.692 3.453,9.352 5.707,13.852 3.105,6.258 2.722,14.629 -0.922,20.34 l -8.145,12.796 23.086,23.071 12.762,-8.117 c 5.617,-3.602 14.359,-3.942 20.379,-0.922 4.375,2.191 9.043,4.109 13.937,5.73 6.602,2.238 12.235,8.422 13.684,15.012 l 3.308,14.84 h 32.629 l 3.305,-14.813 c 1.461,-6.629 7.094,-12.808 13.754,-15.058 4.816,-1.59 9.476,-3.52 13.863,-5.711 6.039,-3.02 14.727,-2.668 20.367,0.922 l 12.762,8.117 23.098,-23.078 -8.156,-12.821 c -3.625,-5.742 -4.004,-14.082 -0.899,-20.332 2.238,-4.468 4.156,-9.117 5.731,-13.879 2.21,-6.629 8.402,-12.269 15.027,-13.738 l 14.836,-3.289 z m 6.219,51.769 -16.344,3.59 c -0.258,0.133 -0.707,0.57 -0.762,0.621 -1.859,5.649 -4.152,11.211 -6.738,16.328 -0.09,0.301 -0.004,0.942 -0.184,0.871 l 9.207,14.45 c 4.278,6.793 3.235,16.191 -2.426,21.839 l -25.808,25.813 c -5.473,5.519 -15.18,6.66 -21.91,2.418 l -14.035,-8.981 -1.039,-0.078 c -5.235,2.621 -10.786,4.899 -16.309,6.731 -0.274,0.14 -0.738,0.57 -0.727,0.48 l -3.722,16.66 c -1.707,7.868 -9.09,13.821 -17.172,13.821 h -36.504 c -8.082,0 -15.465,-5.953 -17.164,-13.774 l -3.613,-16.34 c -0.129,-0.269 -0.582,-0.718 -0.629,-0.769 -5.743,-1.91 -11.305,-4.188 -17.207,-6.918 l -14.399,9.168 c -6.578,4.18 -16.32,3.152 -21.898,-2.399 l -25.867,-25.859 c -5.637,-5.699 -6.649,-15.101 -2.344,-21.84 l 8.988,-14.062 c 0.094,-0.27 0.094,-0.93 0.086,-1.028 -2.687,-5.351 -4.98,-10.929 -6.734,-16.332 -0.137,-0.25 -0.582,-0.699 -0.453,-0.699 l -16.786,-3.719 c -7.824,-1.769 -13.726,-9.152 -13.726,-17.171 v -36.54 c 0,-8.019 5.91,-15.41 13.773,-17.16 l 16.336,-3.601 c 0.266,-0.11 0.715,-0.559 0.77,-0.598 1.804,-5.512 4.09,-11.082 6.746,-16.402 0.082,-0.27 0.043,-0.93 0.18,-0.821 l -9.196,-14.429 c -4.285,-6.77 -3.265,-16.16 2.403,-21.867 l 25.855,-25.84 c 5.516,-5.5 15.309,-6.563 21.855,-2.391 l 14.083,8.988 1.015,0.082 c 5.25,-2.621 10.797,-4.902 16.324,-6.742 0.254,-0.129 0.684,-0.558 0.7,-0.488 l 3.73,-16.641 c 1.707,-7.879 9.09,-13.808 17.172,-13.808 h 36.504 c 8.082,0 15.465,5.929 17.164,13.758 l 3.629,16.339 c 0.125,0.262 0.558,0.711 0.64,0.762 5.625,1.879 11.172,4.168 17.164,6.938 l 14.43,-9.2 c 2.738,-1.738 5.969,-2.66 9.336,-2.66 4.75,0 9.32,1.86 12.52,5.071 l 25.839,25.839 c 5.661,5.661 6.704,15.051 2.399,21.879 l -8.984,14.043 c -0.094,0.278 -0.098,0.957 -0.098,1.039 2.672,5.328 4.965,10.879 6.746,16.321 0.133,0.269 0.582,0.711 0.465,0.718 l 16.726,3.711 c 7.856,1.75 13.774,9.141 13.774,17.16 v 36.54 c 0,8.031 -5.918,15.421 -13.781,17.179"
         inkscape:connector-curvature="0" /><path
         id="path120"
         style="fill:#3b3d3f;fill-opacity:1;fill-rule:nonzero;stroke:none"
         d="m 706.008,496.012 c -16.543,0 -30,13.449 -30,30 0,16.539 13.457,30 30,30 16.543,0 30,-13.461 30,-30 0,-16.551 -13.457,-30 -30,-30 z m 0,80 c -27.57,0 -50,-22.442 -50,-50 0,-27.571 22.43,-50 50,-50 27.566,0 50,22.429 50,50 0,27.558 -22.434,50 -50,50"
         inkscape:connector-curvature="0" /><path
         id="path122"
         style="fill:#3b3d3f;fill-opacity:1;fill-rule:nonzero;stroke:none"
         d="m 3403.99,3303.99 h -440 v 60 c 0,11.03 8.98,20 20,20 h 400 c 11.03,0 20,-8.97 20,-20 z m 0,-299.99 c 0,-11.04 -8.97,-20 -20,-20 h -400 c -11.02,0 -20,8.96 -20,20 v 280 h 440 z m -20,399.99 h -400 c -22.06,0 -40,-17.94 -40,-40 V 3004 c 0,-22.06 17.94,-40 40,-40 h 400 c 22.06,0 40,17.94 40,40 v 359.99 c 0,22.06 -17.94,40 -40,40"
         inkscape:connector-curvature="0" /><path
         id="path124"
         style="fill:#3b3d3f;fill-opacity:1;fill-rule:nonzero;stroke:none"
         d="m 3003.99,3358.99 c -8.29,0 -15,-6.7 -15,-15 0,-8.29 6.71,-15 15,-15 8.3,0 15,6.71 15,15 0,8.3 -6.7,15 -15,15"
         inkscape:connector-curvature="0" /><path
         id="path126"
         style="fill:#3b3d3f;fill-opacity:1;fill-rule:nonzero;stroke:none"
         d="m 3043.99,3084 c 11.03,0 20,-8.98 20,-20 0,-11.04 -8.97,-20 -20,-20 -11.02,0 -20,8.96 -20,20 0,11.02 8.98,20 20,20 z m 80,120 c 11.03,0 20,-8.98 20,-20 0,-11.04 -8.97,-20 -20,-20 -11.02,0 -20,8.96 -20,20 0,11.02 8.98,20 20,20 z m 120,-90 c 11.03,0 20,-8.98 20,-20 0,-11.04 -8.97,-20 -20,-20 -11.02,0 -20,8.96 -20,20 0,11.02 8.98,20 20,20 z m 80,110 c 11.03,0 20,-8.98 20,-20 0,-11.04 -8.97,-20 -20,-20 -11.02,0 -20,8.96 -20,20 0,11.02 8.98,20 20,20 z m -280,-200 c 22.06,0 40,17.94 40,40 0,10.2 -3.95,19.43 -10.27,26.51 l 37.19,55.86 c 4.12,-1.44 8.47,-2.37 13.08,-2.37 9.43,0 17.98,3.41 24.83,8.88 l 58.21,-43.67 c -1.93,-4.7 -3.04,-9.82 -3.04,-15.21 0,-22.06 17.94,-40 40,-40 22.06,0 40,17.94 40,40 0,9.63 -3.56,18.36 -9.25,25.27 l 34.62,47.59 c 4.54,-1.8 9.46,-2.86 14.63,-2.86 22.06,0 40,17.94 40,40 0,22.05 -17.94,40 -40,40 -22.06,0 -40,-17.95 -40,-40 0,-9.64 3.57,-18.37 9.26,-25.28 l -34.62,-47.59 c -4.54,1.8 -9.46,2.87 -14.64,2.87 -9.42,0 -17.97,-3.42 -24.82,-8.89 l -58.21,43.67 c 1.93,4.7 3.03,9.83 3.03,15.22 0,22.05 -17.94,40 -40,40 -22.06,0 -40,-17.95 -40,-40 0,-10.21 3.96,-19.44 10.28,-26.52 l -37.19,-55.86 c -4.12,1.44 -8.48,2.38 -13.09,2.38 -22.06,0 -40,-17.95 -40,-40 0,-22.06 17.94,-40 40,-40"
         inkscape:connector-curvature="0" /><path
         id="path128"
         style="fill:#3b3d3f;fill-opacity:1;fill-rule:nonzero;stroke:none"
         d="m 3063.99,3358.99 c -8.29,0 -15,-6.7 -15,-15 0,-8.29 6.71,-15 15,-15 8.3,0 15,6.71 15,15 0,8.3 -6.7,15 -15,15"
         inkscape:connector-curvature="0" /><path
         id="path130"
         style="fill:#3b3d3f;fill-opacity:1;fill-rule:nonzero;stroke:none"
         d="m 2188,476.012 c 5.52,0 10,4.48 10,10 v 60 c 0,5.508 4.48,10 10,10 h 20 c 5.52,0 10,-4.492 10,-10 v -60 c 0,-5.52 4.48,-10 10,-10 5.52,0 10,4.48 10,10 v 60 c 0,16.539 -13.46,30 -30,30 h -20 c -16.54,0 -30,-13.461 -30,-30 v -60 c 0,-5.52 4.48,-10 10,-10"
         inkscape:connector-curvature="0" /><path
         id="path132"
         style="fill:#3b3d3f;fill-opacity:1;fill-rule:nonzero;stroke:none"
         d="m 2298,476.012 c 5.52,0 10,4.48 10,10 v 120 c 0,5.508 4.48,10 10,10 h 20 c 5.52,0 10,-4.492 10,-10 v -120 c 0,-5.52 4.48,-10 10,-10 5.52,0 10,4.48 10,10 v 120 c 0,16.539 -13.46,30 -30,30 h -20 c -16.54,0 -30,-13.461 -30,-30 v -120 c 0,-5.52 4.48,-10 10,-10"
         inkscape:connector-curvature="0" /><path
         id="path134"
         style="fill:#3b3d3f;fill-opacity:1;fill-rule:nonzero;stroke:none"
         d="m 2408,476.012 c 5.52,0 10,4.48 10,10 v 180 c 0,5.508 4.48,10 10,10 h 20 c 5.52,0 10,-4.492 10,-10 v -180 c 0,-5.52 4.48,-10 10,-10 5.52,0 10,4.48 10,10 v 180 c 0,16.539 -13.46,30 -30,30 h -20 c -16.54,0 -30,-13.461 -30,-30 v -180 c 0,-5.52 4.48,-10 10,-10"
         inkscape:connector-curvature="0" /><path
         id="path136"
         style="fill:#3b3d3f;fill-opacity:1;fill-rule:nonzero;stroke:none"
         d="m 2548,756.012 h -440 v 60 c 0,11.019 8.97,20 20,20 h 400 c 11.02,0 20,-8.981 20,-20 z m 0,-300 c 0,-11.032 -8.98,-20 -20,-20 h -400 c -11.03,0 -20,8.968 -20,20 v 280 h 440 z m -20,400 h -400 c -22.06,0 -40,-17.942 -40,-40 v -360 c 0,-22.063 17.94,-40 40,-40 h 400 c 22.06,0 40,17.937 40,40 v 360 c 0,22.058 -17.94,40 -40,40"
         inkscape:connector-curvature="0" /><path
         id="path138"
         style="fill:#3b3d3f;fill-opacity:1;fill-rule:nonzero;stroke:none"
         d="m 2148,811.012 c -8.29,0 -15,-6.711 -15,-15 0,-8.301 6.71,-15 15,-15 8.29,0 15,6.699 15,15 0,8.289 -6.71,15 -15,15"
         inkscape:connector-curvature="0" /><path
         id="path140"
         style="fill:#3b3d3f;fill-opacity:1;fill-rule:nonzero;stroke:none"
         d="m 2208,811.012 c -8.29,0 -15,-6.711 -15,-15 0,-8.301 6.71,-15 15,-15 8.29,0 15,6.699 15,15 0,8.289 -6.71,15 -15,15"
         inkscape:connector-curvature="0" /><path
         id="path142"
         style="fill:#3b3d3f;fill-opacity:1;fill-rule:nonzero;stroke:none"
         d="m 616.008,2108 c -7.535,0 -15.11,0.38 -22.512,1.14 -7.258,0.73 -14.605,1.85 -21.832,3.32 -7.109,1.46 -14.203,3.28 -21.09,5.43 -6.789,2.11 -13.586,4.6 -20.215,7.4 -6.41,2.7 -12.875,5.82 -19.207,9.25 -6.195,3.37 -12.3,7.07 -18.14,11.02 -5.844,3.95 -11.543,8.21 -16.938,12.67 -5.461,4.51 -10.719,9.29 -15.625,14.2 -4.996,5 -9.781,10.26 -14.211,15.62 -4.476,5.43 -8.738,11.13 -12.664,16.94 -3.965,5.87 -7.672,11.98 -11.019,18.15 -3.36,6.17 -6.477,12.64 -9.262,19.22 -2.801,6.61 -5.285,13.41 -7.395,20.2 -2.168,6.99 -3.996,14.09 -5.425,21.07 -1.473,7.26 -2.59,14.61 -3.328,21.87 -0.754,7.39 -1.137,14.96 -1.137,22.5 0,7.53 0.383,15.11 1.14,22.51 0.735,7.25 1.852,14.6 3.321,21.83 1.441,7.02 3.265,14.12 5.429,21.09 2.11,6.79 4.594,13.59 7.395,20.2 2.758,6.52 5.871,12.99 9.27,19.23 3.339,6.17 7.046,12.27 11,18.13 4.003,5.9 8.269,11.61 12.671,16.94 4.469,5.4 9.25,10.67 14.2,15.62 4.972,4.97 10.234,9.75 15.64,14.22 5.332,4.4 11.035,8.67 16.938,12.66 5.859,3.96 11.965,7.67 18.14,11.02 6.235,3.39 12.7,6.5 19.215,9.26 6.621,2.8 13.418,5.29 20.203,7.4 6.981,2.16 14.075,3.98 21.086,5.42 7.235,1.47 14.582,2.59 21.852,3.33 7.39,0.75 14.965,1.14 22.5,1.14 5.519,0 10,4.48 10,10 0,5.52 -4.481,10 -10,10 -8.215,0 -16.465,-0.42 -24.524,-1.24 -7.914,-0.8 -15.933,-2.02 -23.832,-3.64 -7.664,-1.56 -15.406,-3.55 -23.011,-5.91 -7.414,-2.31 -14.836,-5.02 -22.063,-8.08 -7.113,-3.01 -14.172,-6.41 -20.969,-10.1 -6.738,-3.65 -13.394,-7.7 -19.8,-12.03 -6.442,-4.36 -12.653,-9.01 -18.469,-13.81 -5.891,-4.86 -11.621,-10.07 -17.051,-15.49 -5.398,-5.41 -10.609,-11.15 -15.473,-17.04 -4.804,-5.81 -9.453,-12.02 -13.82,-18.47 -4.324,-6.4 -8.367,-13.06 -12.012,-19.79 -3.699,-6.8 -7.097,-13.86 -10.113,-20.98 -3.055,-7.22 -5.769,-14.64 -8.074,-22.06 -2.359,-7.6 -4.352,-15.35 -5.922,-23.02 -1.605,-7.89 -2.828,-15.91 -3.625,-23.81 -0.824,-8.07 -1.242,-16.32 -1.242,-24.53 0,-8.21 0.418,-16.47 1.238,-24.52 0.801,-7.91 2.024,-15.93 3.633,-23.85 1.562,-7.64 3.555,-15.38 5.918,-22.99 2.305,-7.43 5.019,-14.86 8.074,-22.07 3.043,-7.19 6.445,-14.25 10.109,-20.98 3.649,-6.72 7.692,-13.38 12.016,-19.8 4.289,-6.33 8.938,-12.55 13.82,-18.47 4.832,-5.85 10.039,-11.57 15.485,-17.03 5.359,-5.36 11.094,-10.57 17.039,-15.48 5.883,-4.87 12.098,-9.51 18.473,-13.82 6.371,-4.31 13.031,-8.35 19.796,-12.03 6.914,-3.75 13.973,-7.15 20.973,-10.09 7.223,-3.06 14.645,-5.78 22.051,-8.08 7.515,-2.34 15.262,-4.33 23.027,-5.92 7.891,-1.61 15.91,-2.83 23.817,-3.63 8.066,-0.82 16.316,-1.24 24.531,-1.24 5.519,0 10,4.48 10,10 0,5.52 -4.481,10 -10,10"
         inkscape:connector-curvature="0" /><path
         id="path144"
         style="fill:#3b3d3f;fill-opacity:1;fill-rule:nonzero;stroke:none"
         d="m 854.766,2352.52 c -0.801,7.91 -2.024,15.93 -3.633,23.83 -1.586,7.76 -3.578,15.51 -5.918,23.02 -2.305,7.41 -5.02,14.83 -8.07,22.05 -2.957,7 -6.352,14.06 -10.098,20.97 -2.629,4.85 -8.688,6.66 -13.563,4.03 -4.851,-2.63 -6.66,-8.7 -4.027,-13.56 3.438,-6.34 6.555,-12.81 9.266,-19.22 2.797,-6.62 5.281,-13.42 7.394,-20.22 2.145,-6.88 3.973,-13.97 5.422,-21.07 1.473,-7.24 2.594,-14.59 3.328,-21.85 0.754,-7.4 1.141,-14.97 1.141,-22.5 0,-7.54 -0.387,-15.1 -1.145,-22.51 -0.73,-7.25 -1.851,-14.6 -3.32,-21.84 -1.453,-7.09 -3.277,-14.18 -5.43,-21.09 -2.109,-6.79 -4.593,-13.59 -7.398,-20.21 -2.735,-6.48 -5.848,-12.95 -9.246,-19.21 -3.371,-6.19 -7.082,-12.3 -11.031,-18.15 -3.875,-5.75 -8.141,-11.45 -12.661,-16.93 -4.476,-5.42 -9.257,-10.68 -14.207,-15.63 -4.945,-4.94 -10.203,-9.72 -15.617,-14.2 -5.488,-4.52 -11.187,-8.79 -16.933,-12.66 -5.86,-3.95 -11.965,-7.66 -18.145,-11.03 -6.273,-3.4 -12.746,-6.52 -19.234,-9.26 -6.606,-2.79 -13.403,-5.28 -20.211,-7.39 -6.895,-2.15 -13.985,-3.97 -21.075,-5.43 -5.41,-1.1 -8.894,-6.39 -7.789,-11.8 0.969,-4.73 5.133,-7.99 9.789,-7.99 0.665,0 1.336,0.06 2.016,0.2 7.738,1.58 15.484,3.58 22.996,5.92 7.43,2.3 14.856,5.02 22.059,8.07 7.078,2.99 14.144,6.39 21,10.11 6.742,3.67 13.398,7.71 19.773,12.01 6.281,4.24 12.496,8.89 18.485,13.83 5.91,4.88 11.636,10.09 17.031,15.48 5.39,5.39 10.598,11.12 15.484,17.04 4.934,5.98 9.586,12.19 13.821,18.47 4.3,6.38 8.343,13.04 12.023,19.79 3.715,6.84 7.113,13.91 10.098,20.98 3.054,7.21 5.769,14.64 8.07,22.06 2.348,7.52 4.34,15.26 5.926,23.02 1.605,7.9 2.828,15.92 3.625,23.82 0.824,8.06 1.246,16.32 1.246,24.53 0,8.21 -0.422,16.46 -1.242,24.52"
         inkscape:connector-curvature="0" /><path
         id="path146"
         style="fill:#3b3d3f;fill-opacity:1;fill-rule:nonzero;stroke:none"
         d="m 660.355,2543.54 c 7.004,-1.44 14.098,-3.27 21.086,-5.43 6.797,-2.11 13.594,-4.6 20.2,-7.4 6.586,-2.79 13.054,-5.9 19.234,-9.26 6.16,-3.35 12.266,-7.06 18.133,-11.02 5.816,-3.93 11.515,-8.19 16.937,-12.66 5.368,-4.44 10.625,-9.22 15.625,-14.21 4.914,-4.91 9.696,-10.17 14.207,-15.63 1.977,-2.4 4.832,-3.63 7.715,-3.63 2.238,0 4.5,0.75 6.363,2.29 4.254,3.52 4.856,9.82 1.34,14.07 -4.91,5.95 -10.121,11.68 -15.488,17.05 -5.449,5.44 -11.172,10.64 -17.031,15.48 -5.91,4.88 -12.129,9.53 -18.477,13.82 -6.406,4.32 -13.058,8.37 -19.773,12.01 -6.738,3.67 -13.801,7.07 -20.992,10.11 -7.211,3.06 -14.637,5.77 -22.067,8.08 -7.617,2.36 -15.355,4.35 -22.996,5.91 -5.453,1.15 -10.699,-2.37 -11.805,-7.78 -1.105,-5.41 2.379,-10.7 7.789,-11.8"
         inkscape:connector-curvature="0" /><path
         id="path148"
         style="fill:#3b3d3f;fill-opacity:1;fill-rule:nonzero;stroke:none"
         d="m 536.008,2203 c 5.519,0 10,4.48 10,10 v 100 c 0,16.54 -13.457,30 -30,30 h -20 c -16.543,0 -30,-13.46 -30,-30 v -100 c 0,-5.52 4.476,-10 10,-10 5.519,0 10,4.48 10,10 v 100 c 0,5.51 4.484,10 10,10 h 20 c 5.512,0 10,-4.49 10,-10 v -100 c 0,-5.52 4.476,-10 10,-10"
         inkscape:connector-curvature="0" /><path
         id="path150"
         style="fill:#3b3d3f;fill-opacity:1;fill-rule:nonzero;stroke:none"
         d="m 656.008,2213 v 210 c 0,16.54 -13.457,30 -30,30 h -20 c -16.543,0 -30,-13.46 -30,-30 v -210 c 0,-5.52 4.476,-10 10,-10 5.519,0 10,4.48 10,10 v 210 c 0,5.51 4.484,10 10,10 h 20 c 5.512,0 10,-4.49 10,-10 v -210 c 0,-5.52 4.476,-10 10,-10 5.519,0 10,4.48 10,10"
         inkscape:connector-curvature="0" /><path
         id="path152"
         style="fill:#3b3d3f;fill-opacity:1;fill-rule:nonzero;stroke:none"
         d="m 756.008,2203 c 5.519,0 10,4.48 10,10 v 140 c 0,16.54 -13.457,30 -30,30 h -20 c -16.543,0 -30,-13.46 -30,-30 v -140 c 0,-5.52 4.476,-10 10,-10 5.519,0 10,4.48 10,10 v 140 c 0,5.51 4.484,10 10,10 h 20 c 5.512,0 10,-4.49 10,-10 v -140 c 0,-5.52 4.476,-10 10,-10"
         inkscape:connector-curvature="0" /><path
         id="path154"
         style="fill:#3b3d3f;fill-opacity:1;fill-rule:nonzero;stroke:none"
         d="m 1709.06,2961.06 -111.85,111.86 c 35.27,38.74 54.78,88.35 54.78,141.08 0,5.52 -4.48,10 -10,10 -5.52,0 -10,-4.48 -10,-10 0,-50.7 -19.73,-98.37 -55.55,-134.25 -0.04,-0.04 -0.09,-0.05 -0.12,-0.08 -0.04,-0.04 -0.05,-0.08 -0.08,-0.12 -35.88,-35.82 -83.55,-55.55 -134.25,-55.55 -50.74,0 -98.45,19.75 -134.34,55.64 -3.91,3.91 -10.24,3.91 -14.14,0 -3.91,-3.91 -3.91,-10.24 0,-14.14 39.67,-39.66 92.4,-61.5 148.48,-61.5 52.73,0 102.35,19.51 141.08,54.78 l 111.85,-111.85 c 1.96,-1.96 4.51,-2.93 7.07,-2.93 2.56,0 5.12,0.97 7.07,2.93 3.91,3.9 3.91,10.23 0,14.13"
         inkscape:connector-curvature="0" /><path
         id="path156"
         style="fill:#3b3d3f;fill-opacity:1;fill-rule:nonzero;stroke:none"
         d="m 1251.99,3214 c 0,50.73 19.76,98.45 55.65,134.34 35.9,35.89 83.61,55.65 134.35,55.65 50.74,0 98.45,-19.76 134.36,-55.65 3.9,-3.89 10.24,-3.9 14.14,0.01 3.9,3.91 3.9,10.24 0,14.15 -39.68,39.65 -92.42,61.49 -148.5,61.49 -56.08,0 -108.81,-21.84 -148.5,-61.5 -39.66,-39.68 -61.5,-92.42 -61.5,-148.49 0,-5.53 4.48,-10 10,-10 5.52,0 10,4.47 10,10"
         inkscape:connector-curvature="0" /><path
         id="path158"
         style="fill:#3b3d3f;fill-opacity:1;fill-rule:nonzero;stroke:none"
         d="m 1545.13,3313 c 0,-5.52 4.47,-10 10,-10 l 70.7,-0.01 c 5.52,0 10,4.47 10,10 v 70.71 c 0,5.52 -4.48,10 -10,10 -5.52,0 -10,-4.48 -10,-10 v -60.71 l -60.7,0.01 c -5.53,0 -10,-4.48 -10,-10"
         inkscape:connector-curvature="0" /><path
         id="path160"
         style="fill:#3b3d3f;fill-opacity:1;fill-rule:nonzero;stroke:none"
         d="m 1338.86,3115.01 c 0,5.52 -4.48,10 -10,10 h -70.72 c -5.52,0 -10,-4.48 -10,-10 v -70.7 c 0,-5.52 4.48,-10 10,-10 5.53,0 10,4.48 10,10 v 60.7 h 60.72 c 5.52,0 10,4.48 10,10"
         inkscape:connector-curvature="0" /></g></g></svg>