<?xml version="1.0" encoding="UTF-8" standalone="no"?>
<svg
   xmlns:dc="http://purl.org/dc/elements/1.1/"
   xmlns:cc="http://creativecommons.org/ns#"
   xmlns:rdf="http://www.w3.org/1999/02/22-rdf-syntax-ns#"
   xmlns:svg="http://www.w3.org/2000/svg"
   xmlns="http://www.w3.org/2000/svg"
   xmlns:sodipodi="http://sodipodi.sourceforge.net/DTD/sodipodi-0.dtd"
   xmlns:inkscape="http://www.inkscape.org/namespaces/inkscape"
   viewBox="0 0 64 64"
   height="64"
   width="64"
   xml:space="preserve"
   id="svg2"
   version="1.1"
   sodipodi:docname="DIGI517328779.BWChartIcon4.svg"
   inkscape:version="0.92.3 (2405546, 2018-03-11)"><sodipodi:namedview
     pagecolor="#ffffff"
     bordercolor="#666666"
     borderopacity="1"
     objecttolerance="10"
     gridtolerance="10"
     guidetolerance="10"
     inkscape:pageopacity="0"
     inkscape:pageshadow="2"
     inkscape:window-width="1920"
     inkscape:window-height="986"
     id="namedview5042"
     showgrid="false"
     showborder="false"
     inkscape:zoom="3.5789219"
     inkscape:cx="141.41816"
     inkscape:cy="-26.430687"
     inkscape:window-x="-11"
     inkscape:window-y="-11"
     inkscape:window-maximized="1"
     inkscape:current-layer="svg2" /><metadata
     id="metadata8"><rdf:RDF><cc:Work
         rdf:about=""><dc:format>image/svg+xml</dc:format><dc:type
           rdf:resource="http://purl.org/dc/dcmitype/StillImage" /><dc:title></dc:title></cc:Work></rdf:RDF></metadata><defs
     id="defs6"><clipPath
       clipPathUnits="userSpaceOnUse"
       id="clipPath5046"><rect
         style="opacity:0;fill:#ff7f2a;fill-opacity:1;stroke-width:0.75"
         id="rect5048"
         width="126.84351"
         height="123.87973"
         x="14.225427"
         y="-139.29062"
         rx="5.9137502"
         ry="0.6696893"
         transform="scale(1,-1)" /></clipPath></defs><g
     transform="matrix(0.50455871,0,0,-0.51663012,-7.1775629,71.961729)"
     id="g10"
     clip-path="url(#clipPath5046)"><g
       transform="scale(0.1)"
       id="g12"><path
         id="path14"
         style="fill:#a7a5a6;fill-opacity:1;fill-rule:nonzero;stroke:none"
         d="M 2.5,3015.88 H 1506.67 V 4520.04 H 2.5 Z m 1506.67,-2.5 H 0 V 4522.54 H 1509.17 V 3013.38"
         inkscape:connector-curvature="0" /><path
         id="path16"
         style="fill:#a7a5a6;fill-opacity:1;fill-rule:nonzero;stroke:none"
         d="M 1509.1,3015.88 H 3013.26 V 4520.04 H 1509.1 Z m 1506.66,-2.5 H 1506.6 V 4522.54 H 3015.76 V 3013.38"
         inkscape:connector-curvature="0" /><path
         id="path18"
         style="fill:#a7a5a6;fill-opacity:1;fill-rule:nonzero;stroke:none"
         d="M 3015.82,3015.88 H 4519.98 V 4520.04 H 3015.82 Z m 1506.66,-2.5 H 3013.32 V 4522.54 H 4522.48 V 3013.38"
         inkscape:connector-curvature="0" /><path
         id="path20"
         style="fill:#a7a5a6;fill-opacity:1;fill-rule:nonzero;stroke:none"
         d="M 2.5,1509.25 H 1506.67 V 3013.4 H 2.5 Z m 1506.67,-2.5 H 0 V 3015.9 H 1509.17 V 1506.75"
         inkscape:connector-curvature="0" /><path
         id="path22"
         style="fill:#a7a5a6;fill-opacity:1;fill-rule:nonzero;stroke:none"
         d="M 1509.1,1509.25 H 3013.26 V 3013.4 H 1509.1 Z m 1506.66,-2.5 H 1506.6 V 3015.9 H 3015.76 V 1506.75"
         inkscape:connector-curvature="0" /><path
         id="path24"
         style="fill:#a7a5a6;fill-opacity:1;fill-rule:nonzero;stroke:none"
         d="M 3015.82,1509.25 H 4519.98 V 3013.4 H 3015.82 Z m 1506.66,-2.5 H 3013.32 V 3015.9 H 4522.48 V 1506.75"
         inkscape:connector-curvature="0" /><path
         id="path26"
         style="fill:#a7a5a6;fill-opacity:1;fill-rule:nonzero;stroke:none"
         d="M 2.5,2.5 H 1506.67 V 1506.65 H 2.5 Z M 1509.17,0 H 0 V 1509.15 H 1509.17 V 0"
         inkscape:connector-curvature="0" /><path
         id="path28"
         style="fill:#a7a5a6;fill-opacity:1;fill-rule:nonzero;stroke:none"
         d="M 1509.1,2.5 H 3013.26 V 1506.65 H 1509.1 Z M 3015.76,0 H 1506.6 V 1509.15 H 3015.76 V 0"
         inkscape:connector-curvature="0" /><path
         id="path30"
         style="fill:#a7a5a6;fill-opacity:1;fill-rule:nonzero;stroke:none"
         d="M 3015.82,2.5 H 4519.98 V 1506.65 H 3015.82 Z M 4522.48,0 H 3013.32 V 1509.15 H 4522.48 V 0"
         inkscape:connector-curvature="0" /><path
         id="path32"
         style="fill:#393536;fill-opacity:1;fill-rule:nonzero;stroke:none"
         d="M 473.938,3193.97 H 283.711 v 430.87 h 190.227 v -430.87"
         inkscape:connector-curvature="0" /><path
         id="path34"
         style="fill:#393536;fill-opacity:1;fill-rule:nonzero;stroke:none"
         d="M 733.32,3193.97 H 543.102 v 488.14 H 733.32 v -488.14"
         inkscape:connector-curvature="0" /><path
         id="path36"
         style="fill:#393536;fill-opacity:1;fill-rule:nonzero;stroke:none"
         d="M 992.711,3193.97 H 802.488 v 598.46 h 190.223 v -598.46"
         inkscape:connector-curvature="0" /><path
         id="path38"
         style="fill:#393536;fill-opacity:1;fill-rule:nonzero;stroke:none"
         d="m 1252.09,3193.97 h -190.21 v 728.27 h 190.21 v -728.27"
         inkscape:connector-curvature="0" /><path
         id="path40"
         style="fill:#393536;fill-opacity:1;fill-rule:nonzero;stroke:none"
         d="m 1193.61,4355.93 -104,-162.5 h 58.8 C 915.855,3793.59 378.93,3748.44 294.426,3743.81 v -48.88 c 39.551,1.8 185.988,12.04 357.531,68.27 255.981,83.92 446.303,232.58 552.023,430.23 h 67.63 l -78,162.5"
         inkscape:connector-curvature="0" /><path
         id="path42"
         style="fill:#393536;fill-opacity:1;fill-rule:nonzero;stroke:none"
         d="m 1974.86,3234.95 c 0,-22.3 -18.07,-40.37 -40.36,-40.37 h -149.03 c -22.29,0 -40.36,18.07 -40.36,40.37 v 0 c 0,22.29 18.07,40.35 40.36,40.35 h 149.03 c 22.29,0 40.36,-18.06 40.36,-40.35 v 0"
         inkscape:connector-curvature="0" /><path
         id="path44"
         style="fill:#393536;fill-opacity:1;fill-rule:nonzero;stroke:none"
         d="m 1974.86,3334.95 c 0,-22.3 -18.07,-40.37 -40.36,-40.37 h -149.03 c -22.29,0 -40.36,18.07 -40.36,40.37 v 0 c 0,22.29 18.07,40.35 40.36,40.35 h 149.03 c 22.29,0 40.36,-18.06 40.36,-40.35 v 0"
         inkscape:connector-curvature="0" /><path
         id="path46"
         style="fill:#393536;fill-opacity:1;fill-rule:nonzero;stroke:none"
         d="m 1974.86,3434.95 c 0,-22.3 -18.07,-40.37 -40.36,-40.37 h -149.03 c -22.29,0 -40.36,18.07 -40.36,40.37 v 0 c 0,22.29 18.07,40.35 40.36,40.35 h 149.03 c 22.29,0 40.36,-18.06 40.36,-40.35 v 0"
         inkscape:connector-curvature="0" /><path
         id="path48"
         style="fill:#393536;fill-opacity:1;fill-rule:nonzero;stroke:none"
         d="m 2241.53,3234.95 c 0,-22.3 -18.07,-40.37 -40.36,-40.37 h -149.03 c -22.29,0 -40.36,18.07 -40.36,40.37 v 0 c 0,22.29 18.07,40.35 40.36,40.35 h 149.03 c 22.29,0 40.36,-18.06 40.36,-40.35 v 0"
         inkscape:connector-curvature="0" /><path
         id="path50"
         style="fill:#393536;fill-opacity:1;fill-rule:nonzero;stroke:none"
         d="m 2241.53,3334.95 c 0,-22.3 -18.07,-40.37 -40.36,-40.37 h -149.03 c -22.29,0 -40.36,18.07 -40.36,40.37 v 0 c 0,22.29 18.07,40.35 40.36,40.35 h 149.03 c 22.29,0 40.36,-18.06 40.36,-40.35 v 0"
         inkscape:connector-curvature="0" /><path
         id="path52"
         style="fill:#393536;fill-opacity:1;fill-rule:nonzero;stroke:none"
         d="m 2241.53,3434.95 c 0,-22.3 -18.07,-40.37 -40.36,-40.37 h -149.03 c -22.29,0 -40.36,18.07 -40.36,40.37 v 0 c 0,22.29 18.07,40.35 40.36,40.35 h 149.03 c 22.29,0 40.36,-18.06 40.36,-40.35 v 0"
         inkscape:connector-curvature="0" /><path
         id="path54"
         style="fill:#393536;fill-opacity:1;fill-rule:nonzero;stroke:none"
         d="m 2241.53,3534.95 c 0,-22.3 -18.07,-40.37 -40.36,-40.37 h -149.03 c -22.29,0 -40.36,18.07 -40.36,40.37 v 0 c 0,22.29 18.07,40.35 40.36,40.35 h 149.03 c 22.29,0 40.36,-18.06 40.36,-40.35 v 0"
         inkscape:connector-curvature="0" /><path
         id="path56"
         style="fill:#393536;fill-opacity:1;fill-rule:nonzero;stroke:none"
         d="m 2508.19,3234.95 c 0,-22.3 -18.07,-40.37 -40.36,-40.37 H 2318.8 c -22.29,0 -40.36,18.07 -40.36,40.37 v 0 c 0,22.29 18.07,40.35 40.36,40.35 h 149.03 c 22.29,0 40.36,-18.06 40.36,-40.35 v 0"
         inkscape:connector-curvature="0" /><path
         id="path58"
         style="fill:#393536;fill-opacity:1;fill-rule:nonzero;stroke:none"
         d="m 2508.19,3334.95 c 0,-22.3 -18.07,-40.37 -40.36,-40.37 H 2318.8 c -22.29,0 -40.36,18.07 -40.36,40.37 v 0 c 0,22.29 18.07,40.35 40.36,40.35 h 149.03 c 22.29,0 40.36,-18.06 40.36,-40.35 v 0"
         inkscape:connector-curvature="0" /><path
         id="path60"
         style="fill:#393536;fill-opacity:1;fill-rule:nonzero;stroke:none"
         d="m 2508.19,3434.95 c 0,-22.3 -18.07,-40.37 -40.36,-40.37 H 2318.8 c -22.29,0 -40.36,18.07 -40.36,40.37 v 0 c 0,22.29 18.07,40.35 40.36,40.35 h 149.03 c 22.29,0 40.36,-18.06 40.36,-40.35 v 0"
         inkscape:connector-curvature="0" /><path
         id="path62"
         style="fill:#393536;fill-opacity:1;fill-rule:nonzero;stroke:none"
         d="m 2508.19,3534.95 c 0,-22.3 -18.07,-40.37 -40.36,-40.37 H 2318.8 c -22.29,0 -40.36,18.07 -40.36,40.37 v 0 c 0,22.29 18.07,40.35 40.36,40.35 h 149.03 c 22.29,0 40.36,-18.06 40.36,-40.35 v 0"
         inkscape:connector-curvature="0" /><path
         id="path64"
         style="fill:#393536;fill-opacity:1;fill-rule:nonzero;stroke:none"
         d="m 2508.19,3634.95 c 0,-22.3 -18.07,-40.37 -40.36,-40.37 H 2318.8 c -22.29,0 -40.36,18.07 -40.36,40.37 v 0 c 0,22.29 18.07,40.35 40.36,40.35 h 149.03 c 22.29,0 40.36,-18.06 40.36,-40.35 v 0"
         inkscape:connector-curvature="0" /><path
         id="path66"
         style="fill:#393536;fill-opacity:1;fill-rule:nonzero;stroke:none"
         d="m 2774.86,3234.95 c 0,-22.3 -18.07,-40.37 -40.37,-40.37 h -149.02 c -22.29,0 -40.36,18.07 -40.36,40.37 v 0 c 0,22.29 18.07,40.35 40.36,40.35 h 149.02 c 22.3,0 40.37,-18.06 40.37,-40.35 v 0"
         inkscape:connector-curvature="0" /><path
         id="path68"
         style="fill:#393536;fill-opacity:1;fill-rule:nonzero;stroke:none"
         d="m 2774.86,3334.95 c 0,-22.3 -18.07,-40.37 -40.37,-40.37 h -149.02 c -22.29,0 -40.36,18.07 -40.36,40.37 v 0 c 0,22.29 18.07,40.35 40.36,40.35 h 149.02 c 22.3,0 40.37,-18.06 40.37,-40.35 v 0"
         inkscape:connector-curvature="0" /><path
         id="path70"
         style="fill:#393536;fill-opacity:1;fill-rule:nonzero;stroke:none"
         d="m 2774.86,3434.95 c 0,-22.3 -18.07,-40.37 -40.37,-40.37 h -149.02 c -22.29,0 -40.36,18.07 -40.36,40.37 v 0 c 0,22.29 18.07,40.35 40.36,40.35 h 149.02 c 22.3,0 40.37,-18.06 40.37,-40.35 v 0"
         inkscape:connector-curvature="0" /><path
         id="path72"
         style="fill:#393536;fill-opacity:1;fill-rule:nonzero;stroke:none"
         d="m 2774.86,3534.95 c 0,-22.3 -18.07,-40.37 -40.37,-40.37 h -149.02 c -22.29,0 -40.36,18.07 -40.36,40.37 v 0 c 0,22.29 18.07,40.35 40.36,40.35 h 149.02 c 22.3,0 40.37,-18.06 40.37,-40.35 v 0"
         inkscape:connector-curvature="0" /><path
         id="path74"
         style="fill:#393536;fill-opacity:1;fill-rule:nonzero;stroke:none"
         d="m 2774.86,3634.95 c 0,-22.3 -18.07,-40.37 -40.37,-40.37 h -149.02 c -22.29,0 -40.36,18.07 -40.36,40.37 v 0 c 0,22.29 18.07,40.35 40.36,40.35 h 149.02 c 22.3,0 40.37,-18.06 40.37,-40.35 v 0"
         inkscape:connector-curvature="0" /><path
         id="path76"
         style="fill:#393536;fill-opacity:1;fill-rule:nonzero;stroke:none"
         d="m 2774.86,3734.95 c 0,-22.3 -18.07,-40.37 -40.37,-40.37 h -149.02 c -22.29,0 -40.36,18.07 -40.36,40.37 v 0 c 0,22.29 18.07,40.35 40.36,40.35 h 149.02 c 22.3,0 40.37,-18.06 40.37,-40.35 v 0"
         inkscape:connector-curvature="0" /><path
         id="path78"
         style="fill:#393536;fill-opacity:1;fill-rule:nonzero;stroke:none"
         d="m 2774.86,3834.95 c 0,-22.3 -18.07,-40.37 -40.37,-40.37 h -149.02 c -22.29,0 -40.36,18.07 -40.36,40.37 v 0 c 0,22.29 18.07,40.35 40.36,40.35 h 149.02 c 22.3,0 40.37,-18.06 40.37,-40.35 v 0"
         inkscape:connector-curvature="0" /><path
         id="path80"
         style="fill:#393536;fill-opacity:1;fill-rule:nonzero;stroke:none"
         d="m 2853.32,4318.55 -213.34,-53.34 47.31,-56.32 -390.85,-362.95 -89.61,81.46 c -11.25,10.23 -28.37,10.42 -39.85,0.46 l -380,-330 c -12.51,-10.87 -13.85,-29.82 -2.98,-42.32 5.93,-6.84 14.28,-10.33 22.67,-10.33 6.97,0 13.97,2.42 19.65,7.34 l 359.88,312.53 90.27,-82.07 c 11.54,-10.49 29.17,-10.4 40.6,0.21 l 408.87,379.67 54.04,-64.34 73.34,220"
         inkscape:connector-curvature="0" /><path
         id="path82"
         style="fill:#393536;fill-opacity:1;fill-rule:nonzero;stroke:none"
         d="M 4407.19,4378.55 4169,4319 l 52.84,-62.87 -436.35,-405.19 -100.02,90.94 c -12.58,11.42 -31.68,11.64 -44.49,0.51 l -424.24,-368.41 c -13.97,-12.12 -15.45,-33.28 -3.32,-47.25 6.62,-7.62 15.94,-11.52 25.31,-11.52 7.77,0 15.59,2.7 21.93,8.2 l 401.76,348.89 100.78,-91.62 c 12.87,-11.7 32.56,-11.61 45.32,0.25 l 456.46,423.84 60.33,-71.83 81.88,245.61"
         inkscape:connector-curvature="0" /><path
         id="path84"
         style="fill:#393536;fill-opacity:1;fill-rule:nonzero;stroke:none"
         d="m 3313.71,3467.81 v -263.84 h 190.22 V 3633 l -190.22,-165.19"
         inkscape:connector-curvature="0" /><path
         id="path86"
         style="fill:#393536;fill-opacity:1;fill-rule:nonzero;stroke:none"
         d="m 3746.29,3711.09 -74.47,67.71 -98.71,-85.73 v -489.1 h 190.21 v 495.53 c -6.13,3.02 -11.87,6.9 -17.03,11.59"
         inkscape:connector-curvature="0" /><path
         id="path88"
         style="fill:#393536;fill-opacity:1;fill-rule:nonzero;stroke:none"
         d="m 3845.74,3711.61 c -4.08,-3.78 -8.53,-6.98 -13.26,-9.72 v -497.92 h 190.23 v 671.97 l -176.97,-164.33"
         inkscape:connector-curvature="0" /><path
         id="path90"
         style="fill:#393536;fill-opacity:1;fill-rule:nonzero;stroke:none"
         d="m 4271.39,4106.85 -179.51,-166.68 v -736.2 h 190.21 v 890.13 l -10.7,12.75"
         inkscape:connector-curvature="0" /><path
         id="path92"
         style="fill:#393536;fill-opacity:1;fill-rule:nonzero;stroke:none"
         d="M 206.059,2764.58 V 1663.29 H 1296.63 v 27.15 H 233.219 v 1074.14 h -27.16"
         inkscape:connector-curvature="0" /><path
         id="path94"
         style="fill:#393536;fill-opacity:1;fill-rule:nonzero;stroke:none"
         d="m 1165.4,1749.27 v -72.4 h 27.14 v 72.4 h -27.14"
         inkscape:connector-curvature="0" /><path
         id="path96"
         style="fill:#393536;fill-opacity:1;fill-rule:nonzero;stroke:none"
         d="m 884.828,1749.27 v -72.4 h 27.168 v 72.4 h -27.168"
         inkscape:connector-curvature="0" /><path
         id="path98"
         style="fill:#393536;fill-opacity:1;fill-rule:nonzero;stroke:none"
         d="m 604.281,1749.27 v -72.4 h 27.149 v 72.4 h -27.149"
         inkscape:connector-curvature="0" /><path
         id="path100"
         style="fill:#393536;fill-opacity:1;fill-rule:nonzero;stroke:none"
         d="m 323.715,1749.27 v -72.4 h 27.16 v 72.4 h -27.16"
         inkscape:connector-curvature="0" /><path
         id="path102"
         style="fill:#393536;fill-opacity:1;fill-rule:nonzero;stroke:none"
         d="m 309.848,2024.32 h 669.863 c 50.919,0 92.209,-41.28 92.209,-92.21 v 0 c 0,-50.93 -41.29,-92.21 -92.209,-92.21 H 309.848 v 184.42"
         inkscape:connector-curvature="0" /><path
         id="path104"
         style="fill:#393536;fill-opacity:1;fill-rule:nonzero;stroke:none"
         d="m 309.848,2317.21 h 835.292 c 50.92,0 92.21,-41.28 92.21,-92.21 v 0 c 0,-50.92 -41.29,-92.21 -92.21,-92.21 H 309.848 v 184.42"
         inkscape:connector-curvature="0" /><path
         id="path106"
         style="fill:#393536;fill-opacity:1;fill-rule:nonzero;stroke:none"
         d="m 309.848,2599.26 h 593.925 c 50.922,0 92.207,-41.29 92.207,-92.21 v 0 c 0,-50.93 -41.285,-92.21 -92.207,-92.21 H 309.848 v 184.42"
         inkscape:connector-curvature="0" /><path
         id="path108"
         style="fill:#393536;fill-opacity:1;fill-rule:nonzero;stroke:none"
         d="m 2553.63,1907.87 c -26.54,0 -48.12,21.59 -48.12,48.13 0,26.53 21.58,48.12 48.12,48.12 26.54,0 48.13,-21.59 48.13,-48.12 0,-26.54 -21.59,-48.13 -48.13,-48.13 z m -650,170 c -26.54,0 -48.13,21.59 -48.13,48.13 0,26.53 21.59,48.12 48.13,48.12 26.54,0 48.12,-21.59 48.12,-48.12 0,-26.54 -21.58,-48.13 -48.12,-48.13 z m 460,356.25 c 26.54,0 48.13,-21.59 48.13,-48.12 0,-26.54 -21.59,-48.13 -48.13,-48.13 -26.54,0 -48.13,21.59 -48.13,48.13 0,26.53 21.59,48.12 48.13,48.12 z m -230,-276.25 c -26.54,0 -48.13,21.59 -48.13,48.13 0,26.53 21.59,48.12 48.13,48.12 26.54,0 48.12,-21.59 48.12,-48.12 0,-26.54 -21.58,-48.13 -48.12,-48.13 z m 692.33,478.09 0.31,-4.43 -5.08,3.95 z m -150.8,-344.69 3.98,-39.8 93.56,9.35 -182.09,-236.03 c -11.02,5.94 -23.61,9.33 -36.98,9.33 -15.72,0 -30.34,-4.71 -42.6,-12.72 l -194.56,187.07 -202.98,-239.9 -138.46,125.85 c 4.29,9.67 6.72,20.34 6.72,31.58 0,43.07 -35.05,78.12 -78.12,78.12 -43.08,0 -78.13,-35.05 -78.13,-78.12 0,-18.52 6.51,-35.53 17.31,-48.93 l -109.59,-120.03 v 276.19 l 3.45,-8.98 309.93,119.2 46.34,-70.88 c -22.41,-13.75 -37.44,-38.41 -37.44,-66.57 0,-43.08 35.05,-78.13 78.13,-78.13 43.07,0 78.12,35.05 78.12,78.13 0,16.76 -5.36,32.28 -14.39,45.02 l 116.97,74.44 c 13.46,-10.98 30.61,-17.59 49.3,-17.59 14.22,0 27.54,3.89 39.05,10.56 l 125.23,-98.67 300.2,385.23 5.64,-82 39.9,2.75 -10.62,154.12 -158.67,-15.86 3.98,-39.81 91.11,9.12 -278.38,-357.24 -89.9,70.84 c 6.68,11.51 10.59,24.84 10.59,39.09 0,43.07 -35.06,78.12 -78.13,78.12 -43.08,0 -78.13,-35.05 -78.13,-78.12 0,-9.91 1.93,-19.36 5.31,-28.09 l -126.13,-80.26 c -9.53,4.14 -20.02,6.47 -31.05,6.47 -0.15,0 -0.29,-0.02 -0.44,-0.02 l -70.79,108.27 -329.18,-126.61 v 498.82 h -27.16 V 1927.3 l -1.47,-1.62 1.47,-1.33 v -261.06 h 1090.56 v 27.15 h -104.08 v 58.83 h -27.15 v -58.83 h -253.4 v 58.83 h -27.17 v -58.83 h -253.39 v 58.83 h -27.15 v -58.83 h -253.41 v 58.83 h -27.15 v -58.83 h -90.5 v 209.1 l 0.91,-0.83 141.13,154.57 c 8.81,-3.45 18.35,-5.41 28.37,-5.41 17.33,0 33.31,5.74 46.29,15.34 l 167.33,-152.13 202.22,239.01 164.75,-158.41 c -5.54,-10.7 -8.71,-22.82 -8.71,-35.68 0,-43.08 35.04,-78.13 78.12,-78.13 43.07,0 78.13,35.05 78.13,78.13 0,15.14 -4.42,29.25 -11.9,41.23 l 179.22,232.32 5.47,-79.29 39.9,2.76 -10.62,154.12 -158.67,-15.87"
         inkscape:connector-curvature="0" /><path
         id="path110"
         style="fill:#393536;fill-opacity:1;fill-rule:nonzero;stroke:none"
         d="M 3206.27,2764.58 V 1663.29 h 1090.57 v 27.15 h -1063.4 v 1074.14 h -27.17"
         inkscape:connector-curvature="0" /><path
         id="path112"
         style="fill:#393536;fill-opacity:1;fill-rule:nonzero;stroke:none"
         d="m 4165.61,1749.27 v -72.4 h 27.14 v 72.4 h -27.14"
         inkscape:connector-curvature="0" /><path
         id="path114"
         style="fill:#393536;fill-opacity:1;fill-rule:nonzero;stroke:none"
         d="m 3885.04,1749.27 v -72.4 h 27.17 v 72.4 h -27.17"
         inkscape:connector-curvature="0" /><path
         id="path116"
         style="fill:#393536;fill-opacity:1;fill-rule:nonzero;stroke:none"
         d="m 3604.49,1749.27 v -72.4 h 27.15 v 72.4 h -27.15"
         inkscape:connector-curvature="0" /><path
         id="path118"
         style="fill:#393536;fill-opacity:1;fill-rule:nonzero;stroke:none"
         d="m 3323.93,1749.27 v -72.4 h 27.16 v 72.4 h -27.16"
         inkscape:connector-curvature="0" /><path
         id="path120"
         style="fill:#393536;fill-opacity:1;fill-rule:nonzero;stroke:none"
         d="m 4097.81,1864.58 h -809.98 v 171.57 h 809.98 l 94.18,-87.64 -94.18,-83.93"
         inkscape:connector-curvature="0" /><path
         id="path122"
         style="fill:#393536;fill-opacity:1;fill-rule:nonzero;stroke:none"
         d="m 3781.99,2107.08 h -494.16 v 171.57 h 494.16 l 94.18,-87.64 -94.18,-83.93"
         inkscape:connector-curvature="0" /><path
         id="path124"
         style="fill:#393536;fill-opacity:1;fill-rule:nonzero;stroke:none"
         d="m 4284.49,2349.58 h -996.66 v 171.57 h 996.66 l 94.18,-87.64 -94.18,-83.93"
         inkscape:connector-curvature="0" /><path
         id="path126"
         style="fill:#393536;fill-opacity:1;fill-rule:nonzero;stroke:none"
         d="m 2710.55,194.871 -128.44,42.149 v 435.242 l 128.44,-42.153 z m 183.86,13.168 V 701.09 l -183.48,60.148 -156.4,-50.918 V 217.039 l 182.04,-59.73 157.84,50.73"
         inkscape:connector-curvature="0" /><path
         id="path128"
         style="fill:#393536;fill-opacity:1;fill-rule:nonzero;stroke:none"
         d="m 2420.47,287.18 -128.44,42.152 V 993 l 128.44,-42.148 z m -156.01,743.89 V 309.352 l 182.04,-59.743 91.37,29.18 0.63,443.281 65.84,21.891 v 277.879 l 1.16,0.37 -184.65,59.77 -156.39,-50.91"
         inkscape:connector-curvature="0" /><path
         id="path130"
         style="fill:#393536;fill-opacity:1;fill-rule:nonzero;stroke:none"
         d="m 1866.34,477.25 -128.43,42.148 v 487.732 l 128.43,-42.142 z m -156.01,567.96 v -545.8 l 182.04,-59.73 75.3,23.961 v 599.799 l -100.94,32.68 -156.4,-50.91"
         inkscape:connector-curvature="0" /><path
         id="path132"
         style="fill:#393536;fill-opacity:1;fill-rule:nonzero;stroke:none"
         d="m 2138.67,387.242 -128.44,42.149 v 778.019 l 128.44,-42.15 z m 0.39,909.158 -156.39,-50.92 V 409.41 l 182.04,-59.738 81.41,25.949 v 668.959 l 76.42,26.25 v 165.42 l -183.48,60.15"
         inkscape:connector-curvature="0" /><path
         id="path134"
         style="fill:#393536;fill-opacity:1;fill-rule:nonzero;stroke:none"
         d="M 847.516,744.941 1148.22,441.922 c 69.82,82.476 113.54,187.699 118.4,303.019 H 847.516"
         inkscape:connector-curvature="0" /><path
         id="path136"
         style="fill:#393536;fill-opacity:1;fill-rule:nonzero;stroke:none"
         d="M 781.383,791.059 H 1266.54 C 1253.99,1051.66 1042.98,1260.08 781.383,1268.74 V 791.059"
         inkscape:connector-curvature="0" /><path
         id="path138"
         style="fill:#393536;fill-opacity:1;fill-rule:nonzero;stroke:none"
         d="M 410.133,409.969 735.27,775.25 v 493.01 C 471.234,1253.13 261.781,1034.29 261.781,766.48 c 0,-139.378 56.739,-265.468 148.352,-356.511"
         inkscape:connector-curvature="0" /><path
         id="path140"
         style="fill:#393536;fill-opacity:1;fill-rule:nonzero;stroke:none"
         d="M 775.945,751.59 444.277,378.969 c 86.953,-71.949 198.528,-115.18 320.196,-115.18 137.281,0 261.647,55.09 352.377,144.301 l -340.905,343.5"
         inkscape:connector-curvature="0" /><path
         id="path142"
         style="fill:#393536;fill-opacity:1;fill-rule:nonzero;stroke:none"
         d="M 4354.49,194.012 H 3182.48 V 1284.58 h 27.15 V 221.172 h 1144.86 v -27.16"
         inkscape:connector-curvature="0" /><path
         id="path144"
         style="fill:#393536;fill-opacity:1;fill-rule:nonzero;stroke:none"
         d="m 3268.46,1153.35 h -72.41 v 27.15 h 72.41 v -27.15"
         inkscape:connector-curvature="0" /><path
         id="path146"
         style="fill:#393536;fill-opacity:1;fill-rule:nonzero;stroke:none"
         d="m 3268.46,872.781 h -72.41 v 27.168 h 72.41 v -27.168"
         inkscape:connector-curvature="0" /><path
         id="path148"
         style="fill:#393536;fill-opacity:1;fill-rule:nonzero;stroke:none"
         d="m 3268.46,592.238 h -72.41 v 27.153 h 72.41 v -27.153"
         inkscape:connector-curvature="0" /><path
         id="path150"
         style="fill:#393536;fill-opacity:1;fill-rule:nonzero;stroke:none"
         d="m 3268.46,311.672 h -72.41 v 27.16 h 72.41 v -27.16"
         inkscape:connector-curvature="0" /><path
         id="path152"
         style="fill:#393536;fill-opacity:1;fill-rule:nonzero;stroke:none"
         d="M 3521.11,581.25 V 267.922 H 3349.55 V 581.25 l 87.64,94.18 83.92,-94.18"
         inkscape:connector-curvature="0" /><path
         id="path154"
         style="fill:#393536;fill-opacity:1;fill-rule:nonzero;stroke:none"
         d="M 3781.11,760.41 V 267.922 H 3609.55 V 760.41 l 87.64,94.18 83.92,-94.18"
         inkscape:connector-curvature="0" /><path
         id="path156"
         style="fill:#393536;fill-opacity:1;fill-rule:nonzero;stroke:none"
         d="m 4041.11,854.582 v -586.66 h -171.56 v 586.66 l 87.64,94.18 83.92,-94.18"
         inkscape:connector-curvature="0" /><path
         id="path158"
         style="fill:#393536;fill-opacity:1;fill-rule:nonzero;stroke:none"
         d="M 4301.11,981.25 V 267.922 H 4129.55 V 981.25 l 87.64,94.18 83.92,-94.18"
         inkscape:connector-curvature="0" /><path
         id="path160"
         style="fill:#393536;fill-opacity:1;fill-rule:nonzero;stroke:none"
         d="m 4283.67,1151.69 -7.79,112.97 -117.62,-11.77 -3.98,39.81 158.67,15.87 10.62,-154.13 -39.9,-2.75"
         inkscape:connector-curvature="0" /><path
         id="path162"
         style="fill:#393536;fill-opacity:1;fill-rule:nonzero;stroke:none"
         d="m 3213.26,900.141 -29.53,26.968 206.86,226.551 202.03,-183.672 202.99,239.902 238.73,-229.558 235.04,304.678 31.67,-24.43 L 4038.77,920.59 3798.61,1151.51 3596.39,912.512 3393.2,1097.22 3213.26,900.141"
         inkscape:connector-curvature="0" /></g></g></svg>