<?xml version="1.0" encoding="utf-8"?>
<!-- Generator: Adobe Illustrator 22.0.0, SVG Export Plug-In . SVG Version: 6.00 Build 0)  -->
<svg width="64" height="64" version="1.1" id="Layer_1" xmlns="http://www.w3.org/2000/svg" xmlns:xlink="http://www.w3.org/1999/xlink" x="0px" y="0px"
	 viewBox="0 0 64 64" style="enable-background:new 0 0 64 64;" xml:space="preserve">
<style type="text/css">
	.st0{fill:#FFFFFF;}
	.st1{fill:#AAAAAA;}
</style>
<g>
	<g>
		<g>
			<path class="st0" d="M45.5,46.6h-44c-0.6,0-1-0.4-1-1v-44c0-0.6,0.4-1,1-1h44c0.6,0,1,0.4,1,1v44C46.5,46.1,46.1,46.6,45.5,46.6z
				"/>
			<path class="st1" d="M45.5,47.1h-44c-0.8,0-1.5-0.7-1.5-1.5v-44C0,0.7,0.7,0,1.5,0h44C46.3,0,47,0.7,47,1.5v44
				C47,46.4,46.3,47.1,45.5,47.1z M1.5,1C1.2,1,1,1.3,1,1.5v44c0,0.3,0.2,0.5,0.5,0.5h44c0.3,0,0.5-0.2,0.5-0.5v-44
				C46,1.3,45.8,1,45.5,1H1.5z"/>
		</g>
		<g>
			<rect x="0.1" y="7.6" class="st1" width="46" height="1"/>
		</g>
		<g>
			<path class="st1" d="M40.7,5.6c-0.8,0-1.5-0.7-1.5-1.5s0.7-1.5,1.5-1.5s1.5,0.7,1.5,1.5S41.5,5.6,40.7,5.6z M40.7,3.6
				c-0.3,0-0.5,0.2-0.5,0.5c0,0.3,0.2,0.5,0.5,0.5s0.5-0.2,0.5-0.5C41.2,3.9,40.9,3.6,40.7,3.6z"/>
		</g>
	</g>
	<g>
		<g>
			<circle class="st0" cx="47" cy="47" r="16.5"/>
			<path class="st1" d="M47,64c-9.4,0-17-7.6-17-17s7.6-17,17-17s17,7.6,17,17S56.4,64,47,64z M47,31c-8.8,0-16,7.2-16,16
				s7.2,16,16,16s16-7.2,16-16S55.8,31,47,31z"/>
		</g>
	</g>
	<g>
		<g>
			<path class="st1" d="M52.4,56.5H41.6c-0.9,0-1.7-0.8-1.7-1.7V39.2c0-0.9,0.8-1.7,1.7-1.7h7.1c0.3,0,0.5,0.2,0.5,0.5
				s-0.2,0.5-0.5,0.5h-7.1c-0.4,0-0.7,0.3-0.7,0.7v15.6c0,0.4,0.3,0.7,0.7,0.7h10.8c0.4,0,0.7-0.3,0.7-0.7V42.9
				c0-0.3,0.2-0.5,0.5-0.5c0.3,0,0.5,0.2,0.5,0.5v11.9C54.1,55.7,53.3,56.5,52.4,56.5z"/>
		</g>
		<g>
			<path class="st1" d="M53.6,43.4h-3.8c-0.9,0-1.6-0.7-1.6-1.6V38c0-0.2,0.1-0.4,0.3-0.5c0.2-0.1,0.4,0,0.5,0.1l4.9,4.9
				c0.1,0.1,0.2,0.4,0.1,0.5C54,43.2,53.8,43.4,53.6,43.4z M49.2,39.2v2.6c0,0.3,0.3,0.6,0.6,0.6h2.6L49.2,39.2z"/>
		</g>
	</g>
	<g>
		<path class="st1" d="M46,46.4h-3c-0.3,0-0.5-0.2-0.5-0.5s0.2-0.5,0.5-0.5h3c0.3,0,0.5,0.2,0.5,0.5S46.3,46.4,46,46.4z"/>
	</g>
	<g>
		<path class="st1" d="M47.7,49.2H43c-0.3,0-0.5-0.2-0.5-0.5s0.2-0.5,0.5-0.5h4.6c0.3,0,0.5,0.2,0.5,0.5S48,49.2,47.7,49.2z"/>
	</g>
	<g>
		<path class="st1" d="M49.5,52H43c-0.3,0-0.5-0.2-0.5-0.5S42.8,51,43,51h6.4c0.3,0,0.5,0.2,0.5,0.5S49.7,52,49.5,52z"/>
	</g>
	<g>
		<g>
			<path class="st0" d="M26.6,28.7l-8.9,8.9c-0.4,0.4-1,0.4-1.4,0l-11-11c-0.4-0.4-0.4-1,0-1.4l8.9-8.9c0.4-0.4,1-0.4,1.4,0l11,11
				C27,27.7,27,28.3,26.6,28.7z"/>
			<path class="st1" d="M17,38.4c-0.4,0-0.8-0.2-1.1-0.4L5,27c-0.6-0.6-0.6-1.5,0-2.1l8.9-8.9c0.6-0.6,1.6-0.6,2.1,0l11,11
				c0.3,0.3,0.4,0.7,0.4,1.1c0,0.4-0.2,0.8-0.4,1.1l-8.9,8.9C17.8,38.2,17.4,38.4,17,38.4z M15,16.5c-0.1,0-0.3,0.1-0.4,0.1
				l-8.9,8.9c-0.2,0.2-0.2,0.5,0,0.7l11,11c0.2,0.2,0.5,0.2,0.7,0l8.9-8.9c0.2-0.2,0.2-0.5,0-0.7l-11-11
				C15.2,16.6,15.1,16.5,15,16.5z"/>
		</g>
		<g>
			<path class="st0" d="M30.8,34.3l-12.3,2.5c-0.5,0.1-1.1-0.2-1.2-0.8l-3.1-15.2c-0.1-0.5,0.2-1.1,0.8-1.2l12.3-2.5
				c0.5-0.1,1.1,0.2,1.2,0.8l3.1,15.2C31.7,33.6,31.4,34.2,30.8,34.3z"/>
			<path class="st1" d="M18.3,37.3c-0.7,0-1.3-0.5-1.5-1.2l-3.1-15.2c-0.1-0.4,0-0.8,0.2-1.1c0.2-0.3,0.6-0.6,1-0.6l12.3-2.5
				c0.8-0.2,1.6,0.4,1.8,1.2L32.1,33c0.1,0.4,0,0.8-0.2,1.1c-0.2,0.3-0.6,0.6-1,0.6l-12.3,2.5C18.5,37.3,18.4,37.3,18.3,37.3z
				 M27.6,17.6C27.5,17.6,27.5,17.6,27.6,17.6l-12.4,2.5c-0.1,0-0.2,0.1-0.3,0.2s-0.1,0.2-0.1,0.4l3.1,15.2c0.1,0.3,0.3,0.4,0.6,0.4
				l12.3-2.5c0.1,0,0.2-0.1,0.3-0.2c0.1-0.1,0.1-0.2,0.1-0.4L28.1,18C28,17.8,27.8,17.6,27.6,17.6z"/>
		</g>
		<g>
			<path class="st0" d="M32.4,37.7l-10.9-6.3c-0.5-0.3-0.6-0.9-0.4-1.4l7.8-13.4c0.3-0.5,0.9-0.6,1.4-0.4l10.9,6.3
				c0.5,0.3,0.6,0.9,0.4,1.4l-7.8,13.4C33.4,37.8,32.8,37.9,32.4,37.7z"/>
			<path class="st1" d="M32.9,38.3c-0.3,0-0.5-0.1-0.7-0.2l-10.9-6.3c-0.3-0.2-0.6-0.5-0.7-0.9c-0.1-0.4-0.1-0.8,0.1-1.1l7.8-13.4
				c0.2-0.3,0.5-0.6,0.9-0.7c0.4-0.1,0.8-0.1,1.1,0.1l10.9,6.3c0.3,0.2,0.6,0.5,0.7,0.9c0.1,0.4,0.1,0.8-0.1,1.1l-7.8,13.4
				C33.9,38,33.4,38.3,32.9,38.3z M32.6,37.2c0.2,0.1,0.5,0.1,0.7-0.2L41,23.6c0.1-0.1,0.1-0.2,0-0.4c0-0.1-0.1-0.2-0.2-0.3L30,16.7
				c-0.1-0.1-0.2-0.1-0.4,0c-0.1,0-0.2,0.1-0.3,0.2l-7.8,13.4c-0.1,0.1-0.1,0.2,0,0.4c0,0.1,0.1,0.2,0.2,0.3L32.6,37.2z"/>
		</g>
		<g>
			<path class="st1" d="M36.8,26c-0.1,0-0.2,0-0.2-0.1l-7-4c-0.2-0.1-0.3-0.4-0.2-0.7c0.1-0.2,0.4-0.3,0.7-0.2l7,4
				c0.2,0.1,0.3,0.4,0.2,0.7C37.1,25.9,37,26,36.8,26z"/>
		</g>
		<g>
			<path class="st1" d="M33.9,26.9c-0.1,0-0.2,0-0.2-0.1l-4.1-2.3c-0.2-0.1-0.3-0.4-0.2-0.7c0.1-0.2,0.4-0.3,0.7-0.2l4.1,2.3
				c0.2,0.1,0.3,0.4,0.2,0.7C34.3,26.8,34.1,26.9,33.9,26.9z"/>
		</g>
	</g>
</g>
</svg>
