<?xml version="1.0" encoding="utf-8"?>
<!-- Generator: Adobe Illustrator 22.0.0, SVG Export Plug-In . SVG Version: 6.00 Build 0)  -->
<svg width="64" height="64" version="1.1" id="Layer_1" xmlns="http://www.w3.org/2000/svg" xmlns:xlink="http://www.w3.org/1999/xlink" x="0px" y="0px"
	 viewBox="0 0 64 64" style="enable-background:new 0 0 64 64;" xml:space="preserve">
<style type="text/css">
	.st0{fill:#FFFFFF;}
	.st1{fill:#AAAAAA;}
	.st2{fill:#FFFFFF;stroke:#AAAAAA;stroke-miterlimit:10;}
</style>
<g>
	<g>
		<g>
			<path class="st0" d="M45.5,46.6h-44c-0.6,0-1-0.4-1-1v-44c0-0.6,0.4-1,1-1h44c0.6,0,1,0.4,1,1v44C46.5,46.1,46,46.6,45.5,46.6z"
				/>
			<path class="st1" d="M45.5,47.1h-44c-0.8,0-1.5-0.7-1.5-1.5v-44c0-0.8,0.7-1.5,1.5-1.5h44c0.8,0,1.5,0.7,1.5,1.5v44
				C47,46.4,46.3,47.1,45.5,47.1z M1.5,1.1C1.2,1.1,1,1.3,1,1.6v44c0,0.3,0.2,0.5,0.5,0.5h44c0.3,0,0.5-0.2,0.5-0.5v-44
				c0-0.3-0.2-0.5-0.5-0.5H1.5z"/>
		</g>
		<g>
			<rect x="0.1" y="7.7" class="st1" width="46" height="1"/>
		</g>
		<g>
			<path class="st1" d="M40.6,5.7c-0.8,0-1.5-0.7-1.5-1.5s0.7-1.5,1.5-1.5c0.8,0,1.5,0.7,1.5,1.5S41.4,5.7,40.6,5.7z M40.6,3.7
				c-0.3,0-0.5,0.2-0.5,0.5s0.2,0.5,0.5,0.5c0.3,0,0.5-0.2,0.5-0.5S40.9,3.7,40.6,3.7z"/>
		</g>
	</g>
	<g>
		<g>
			<circle class="st0" cx="47" cy="46.9" r="16.5"/>
			<path class="st1" d="M47,63.9c-9.4,0-17-7.6-17-17s7.6-17,17-17s17,7.6,17,17S56.4,63.9,47,63.9z M47,30.9c-8.8,0-16,7.2-16,16
				s7.2,16,16,16s16-7.2,16-16S55.8,30.9,47,30.9z"/>
		</g>
	</g>
	<g>
		<g>
			<g>
				<path class="st1" d="M23.3,39.2c-1.8,0-3.3-1.5-3.3-3.3c0-1.8,1.5-3.3,3.3-3.3c1.8,0,3.3,1.5,3.3,3.3
					C26.6,37.7,25.1,39.2,23.3,39.2z M23.3,33.6c-1.3,0-2.3,1-2.3,2.3c0,1.3,1,2.3,2.3,2.3c1.3,0,2.3-1,2.3-2.3
					C25.6,34.6,24.6,33.6,23.3,33.6z"/>
			</g>
			<g>
				<path class="st1" d="M23.3,19.7c-1.8,0-3.3-1.5-3.3-3.3s1.5-3.3,3.3-3.3c1.8,0,3.3,1.5,3.3,3.3S25.1,19.7,23.3,19.7z M23.3,14
					c-1.3,0-2.3,1-2.3,2.3s1,2.3,2.3,2.3c1.3,0,2.3-1,2.3-2.3S24.6,14,23.3,14z"/>
			</g>
		</g>
		<g>
			<g>
				<path class="st1" d="M13.5,29.4c-1.8,0-3.3-1.5-3.3-3.3c0-1.8,1.5-3.3,3.3-3.3c1.8,0,3.3,1.5,3.3,3.3
					C16.9,27.9,15.4,29.4,13.5,29.4z M13.5,23.8c-1.3,0-2.3,1-2.3,2.3s1,2.3,2.3,2.3s2.3-1,2.3-2.3S14.8,23.8,13.5,23.8z"/>
			</g>
			<g>
				<path class="st1" d="M33.1,29.4c-1.8,0-3.3-1.5-3.3-3.3c0-1.8,1.5-3.3,3.3-3.3c1.8,0,3.3,1.5,3.3,3.3
					C36.4,27.9,34.9,29.4,33.1,29.4z M33.1,23.8c-1.3,0-2.3,1-2.3,2.3s1,2.3,2.3,2.3c1.3,0,2.3-1,2.3-2.3S34.4,23.8,33.1,23.8z"/>
			</g>
		</g>
		<g>
			
				<rect x="17.9" y="26.9" transform="matrix(0.7071 -0.7071 0.7071 0.7071 -16.5249 22.1023)" class="st1" width="1" height="8.2"/>
		</g>
		<g>
			<rect x="27.7" y="17.1" transform="matrix(0.7071 -0.7071 0.7071 0.7071 -6.7112 26.1609)" class="st1" width="1" height="8.2"/>
		</g>
		<g>
			
				<rect x="24.1" y="30.5" transform="matrix(0.7071 -0.7071 0.7071 0.7071 -13.6629 29.0117)" class="st1" width="8.2" height="1"/>
		</g>
		<g>
			<rect x="14.3" y="20.7" transform="matrix(0.7071 -0.7071 0.7071 0.7071 -9.5936 19.2022)" class="st1" width="8.2" height="1"/>
		</g>
	</g>
	<g>
		<g>
			<g>
				<path class="st0" d="M36,46.9c0-6.1,4.9-11,11-11"/>
				<path class="st1" d="M36.5,46.9h-1c0-6.3,5.2-11.5,11.5-11.5v1C41.2,36.4,36.5,41.1,36.5,46.9z"/>
			</g>
		</g>
		<g>
			<g>
				<path class="st0" d="M39.5,46.9c0-4.1,3.4-7.5,7.5-7.5"/>
				<path class="st1" d="M40,46.9h-1c0-4.4,3.6-8,8-8v1C43.2,39.9,40,43,40,46.9z"/>
			</g>
		</g>
	</g>
	<g>
		<path class="st1" d="M47,50.2c-1.8,0-3.3-1.5-3.3-3.3c0-1.8,1.5-3.3,3.3-3.3c1.8,0,3.3,1.5,3.3,3.3C50.3,48.7,48.8,50.2,47,50.2z
			 M47,44.6c-1.3,0-2.3,1-2.3,2.3c0,1.3,1,2.3,2.3,2.3c1.3,0,2.3-1,2.3-2.3C49.3,45.6,48.3,44.6,47,44.6z"/>
	</g>
</g>
</svg>
