<?xml version="1.0" encoding="utf-8"?>
<!-- Generator: Adobe Illustrator 22.0.0, SVG Export Plug-In . SVG Version: 6.00 Build 0)  -->
<svg width="64" height="64" version="1.1" id="Layer_1" xmlns="http://www.w3.org/2000/svg" xmlns:xlink="http://www.w3.org/1999/xlink" x="0px" y="0px"
	 viewBox="0 0 64 64" style="enable-background:new 0 0 64 64;" xml:space="preserve">
<style type="text/css">
	.st0{fill:#FFFFFF;}
	.st1{fill:#AAAAAA;}
</style>
<g>
	<g>
		<g>
			<path class="st0" d="M45.5,46.6h-44c-0.6,0-1-0.4-1-1v-44c0-0.6,0.4-1,1-1h44c0.6,0,1,0.4,1,1v44C46.5,46.1,46,46.6,45.5,46.6z"
				/>
			<path class="st1" d="M45.5,47.1h-44c-0.8,0-1.5-0.7-1.5-1.5v-44c0-0.8,0.7-1.5,1.5-1.5h44c0.8,0,1.5,0.7,1.5,1.5v44
				C47,46.4,46.3,47.1,45.5,47.1z M1.5,1.1C1.2,1.1,1,1.3,1,1.6v44c0,0.3,0.2,0.5,0.5,0.5h44c0.3,0,0.5-0.2,0.5-0.5v-44
				c0-0.3-0.2-0.5-0.5-0.5H1.5z"/>
		</g>
		<g>
			<rect x="0.1" y="7.7" class="st1" width="46" height="1"/>
		</g>
		<g>
			<path class="st1" d="M40.6,5.7c-0.8,0-1.5-0.7-1.5-1.5s0.7-1.5,1.5-1.5c0.8,0,1.5,0.7,1.5,1.5S41.4,5.7,40.6,5.7z M40.6,3.7
				c-0.3,0-0.5,0.2-0.5,0.5s0.2,0.5,0.5,0.5c0.3,0,0.5-0.2,0.5-0.5S40.9,3.7,40.6,3.7z"/>
		</g>
	</g>
	<g>
		<g>
			<g>
				<path class="st0" d="M28.4,23.5H9.8c-0.7,0-1.2-0.5-1.2-1.2v-4.6c0-0.7,0.5-1.2,1.2-1.2h18.6c0.7,0,1.2,0.5,1.2,1.2v4.6
					C29.6,22.9,29.1,23.5,28.4,23.5z"/>
				<path class="st1" d="M28.4,24H9.8c-0.9,0-1.7-0.8-1.7-1.7v-4.6c0-0.9,0.8-1.7,1.7-1.7h18.6c0.9,0,1.7,0.8,1.7,1.7v4.6
					C30.1,23.2,29.3,24,28.4,24z M9.8,17c-0.4,0-0.7,0.3-0.7,0.7v4.6c0,0.4,0.3,0.7,0.7,0.7h18.6c0.4,0,0.7-0.3,0.7-0.7v-4.6
					c0-0.4-0.3-0.7-0.7-0.7H9.8z"/>
			</g>
			<g>
				<circle class="st0" cx="12" cy="20" r="0.6"/>
				<path class="st1" d="M12,21c-0.6,0-1-0.5-1-1.1c0-0.6,0.5-1.1,1-1.1c0.6,0,1.1,0.5,1.1,1.1C13.1,20.5,12.6,21,12,21z M12,19.9
					V20V19.9C12.1,19.9,12.1,19.9,12,19.9z"/>
			</g>
		</g>
		<g>
			<g>
				<path class="st0" d="M28.4,37.4H9.8c-0.7,0-1.2-0.5-1.2-1.2v-4.6c0-0.7,0.5-1.2,1.2-1.2h18.6c0.7,0,1.2,0.5,1.2,1.2v4.6
					C29.6,36.9,29.1,37.4,28.4,37.4z"/>
				<path class="st1" d="M28.4,37.9H9.8c-0.9,0-1.7-0.8-1.7-1.7v-4.6c0-0.9,0.8-1.7,1.7-1.7h18.6c0.9,0,1.7,0.8,1.7,1.7v4.6
					C30.1,37.2,29.3,37.9,28.4,37.9z M9.8,31c-0.4,0-0.7,0.3-0.7,0.7v4.6c0,0.4,0.3,0.7,0.7,0.7h18.6c0.4,0,0.7-0.3,0.7-0.7v-4.6
					c0-0.4-0.3-0.7-0.7-0.7H9.8z"/>
			</g>
			<g>
				<circle class="st0" cx="12" cy="34" r="0.6"/>
				<path class="st1" d="M12,35c-0.6,0-1-0.5-1-1.1c0-0.6,0.5-1.1,1-1.1c0.6,0,1.1,0.5,1.1,1.1C13.1,34.5,12.6,35,12,35z M12,33.9
					V34V33.9C12.1,33.9,12.1,33.9,12,33.9z"/>
			</g>
		</g>
		<g>
			<g>
				<path class="st0" d="M36.8,30.5H18.2c-0.7,0-1.2-0.5-1.2-1.2v-4.6c0-0.7,0.5-1.2,1.2-1.2h18.6c0.7,0,1.2,0.5,1.2,1.2v4.6
					C38,29.9,37.4,30.5,36.8,30.5z"/>
				<path class="st1" d="M36.8,31H18.2c-0.9,0-1.7-0.8-1.7-1.7v-4.6c0-0.9,0.8-1.7,1.7-1.7h18.6c0.9,0,1.7,0.8,1.7,1.7v4.6
					C38.5,30.2,37.7,31,36.8,31z M18.2,24c-0.4,0-0.7,0.3-0.7,0.7v4.6c0,0.4,0.3,0.7,0.7,0.7h18.6c0.4,0,0.7-0.3,0.7-0.7v-4.6
					c0-0.4-0.3-0.7-0.7-0.7H18.2z"/>
			</g>
			<g>
				<circle class="st0" cx="20.4" cy="27.1" r="0.6"/>
				<path class="st1" d="M20.4,28.1c-0.6,0-1-0.5-1-1.1c0-0.6,0.5-1.1,1-1.1c0.6,0,1.1,0.5,1.1,1.1C21.5,27.7,21,28.1,20.4,28.1z
					 M20.4,27v0.1V27C20.5,27.1,20.4,27,20.4,27z"/>
			</g>
		</g>
	</g>
	<g>
		<g>
			<circle class="st0" cx="47" cy="46.9" r="16.5"/>
			<path class="st1" d="M47,63.9c-9.4,0-17-7.6-17-17s7.6-17,17-17s17,7.6,17,17S56.4,63.9,47,63.9z M47,30.9c-8.8,0-16,7.2-16,16
				s7.2,16,16,16s16-7.2,16-16S55.8,30.9,47,30.9z"/>
		</g>
	</g>
	<g>
		<g>
			<path class="st1" d="M53.1,53.5c-0.1,0-0.3,0-0.4-0.1L40.5,41.1c-0.2-0.2-0.2-0.5,0-0.7c0.2-0.2,0.5-0.2,0.7,0l12.2,12.2
				c0.2,0.2,0.2,0.5,0,0.7C53.4,53.5,53.2,53.5,53.1,53.5z"/>
		</g>
		<g>
			<path class="st1" d="M53.6,53.5h-7.2c-0.3,0-0.5-0.2-0.5-0.5s0.2-0.5,0.5-0.5h6.2v-6.2c0-0.3,0.2-0.5,0.5-0.5s0.5,0.2,0.5,0.5
				V53.5z"/>
		</g>
	</g>
</g>
</svg>
