<?xml version="1.0" encoding="utf-8"?>
<!-- Generator: Adobe Illustrator 22.0.0, SVG Export Plug-In . SVG Version: 6.00 Build 0)  -->
<svg width="64" height="64" version="1.1" id="Layer_1" xmlns="http://www.w3.org/2000/svg" xmlns:xlink="http://www.w3.org/1999/xlink" x="0px" y="0px"
	 viewBox="0 0 64 64" style="enable-background:new 0 0 64 64;" xml:space="preserve">
<style type="text/css">
	.st0{fill:#FFFFFF;}
	.st1{fill:#AAAAAA;}
</style>
<g>
	<g>
		<g>
			<path class="st0" d="M46.5,23.5v-22c0-0.6-0.4-1-1-1h-44c-0.6,0-1,0.4-1,1v44c0,0.6,0.4,1,1,1h22h23V23.5z"/>
			<path class="st1" d="M47,47H1.5C0.7,47,0,46.4,0,45.5v-44C0,0.7,0.7,0,1.5,0h44C46.3,0,47,0.7,47,1.5V47z M1.5,1
				C1.2,1,1,1.2,1,1.5v44C1,45.8,1.2,46,1.5,46H46V1.5C46,1.2,45.8,1,45.5,1H1.5z"/>
		</g>
		<g>
			<rect x="0.5" y="7.6" class="st1" width="46" height="1"/>
		</g>
		<g>
			<path class="st1" d="M40.7,5.6c-0.8,0-1.5-0.7-1.5-1.5s0.7-1.5,1.5-1.5c0.8,0,1.5,0.7,1.5,1.5S41.5,5.6,40.7,5.6z M40.7,3.6
				c-0.3,0-0.5,0.2-0.5,0.5s0.2,0.5,0.5,0.5c0.3,0,0.5-0.2,0.5-0.5S40.9,3.6,40.7,3.6z"/>
		</g>
	</g>
	<g>
		<g>
			<circle class="st0" cx="47" cy="47" r="16.5"/>
			<path class="st1" d="M47,64c-9.4,0-17-7.6-17-17s7.6-17,17-17s17,7.6,17,17S56.4,64,47,64z M47,31c-8.8,0-16,7.2-16,16
				s7.2,16,16,16s16-7.2,16-16S55.8,31,47,31z"/>
		</g>
	</g>
	<g>
		<path class="st1" d="M53.3,53.7H41.5c-2.7,0-5-2.2-5-5c0-1.3,0.5-2.6,1.5-3.5c0.8-0.8,1.8-1.3,2.8-1.4c1-2.1,3.1-3.4,5.4-3.4
			c2.4,0,4.6,1.4,5.5,3.7c0.2,0.4,0.3,0.9,0.4,1.3h1.2c0.7,0,1.5,0.2,2.1,0.6c1.3,0.7,2.1,2.1,2.1,3.6c0,1.1-0.4,2.2-1.2,3
			C55.5,53.2,54.4,53.7,53.3,53.7z M46.2,41.3c-2,0-3.9,1.2-4.6,3.1l-0.1,0.3l-0.3,0c-0.9,0.1-1.8,0.5-2.5,1.2
			c-0.8,0.7-1.2,1.7-1.2,2.8c0,2.2,1.8,4,4,4h11.8c0.8,0,1.6-0.3,2.2-0.9c0.6-0.6,0.9-1.4,0.9-2.2c0-1.1-0.6-2.2-1.6-2.7
			c-0.5-0.3-1-0.4-1.6-0.4h-2.1l0-0.5c0-0.5-0.2-1-0.4-1.5C50,42.5,48.2,41.3,46.2,41.3z"/>
	</g>
	<g>
		<g>
			<path class="st1" d="M33.4,47H10.4c-0.3,0-0.5-0.2-0.5-0.5c0-0.3,0.2-0.5,0.5-0.5h23.1c0.3,0,0.5,0.2,0.5,0.5
				C33.9,46.8,33.7,47,33.4,47z"/>
		</g>
		<g>
			<path class="st1" d="M14.2,50.8c-0.1,0-0.3,0-0.4-0.1l-4.2-4.2l4.2-4.2c0.2-0.2,0.5-0.2,0.7,0s0.2,0.5,0,0.7l-3.4,3.4l3.4,3.4
				c0.2,0.2,0.2,0.5,0,0.7C14.4,50.8,14.3,50.8,14.2,50.8z"/>
		</g>
	</g>
	<g>
		<g>
			<path class="st1" d="M46.5,33.8c-0.3,0-0.5-0.2-0.5-0.5V14.1c0-0.3,0.2-0.5,0.5-0.5c0.3,0,0.5,0.2,0.5,0.5v19.2
				C47,33.6,46.8,33.8,46.5,33.8z"/>
		</g>
		<g>
			<path class="st1" d="M42.7,18.4c-0.1,0-0.3,0-0.4-0.1c-0.2-0.2-0.2-0.5,0-0.7l4.3-4.3l4.2,4.2c0.2,0.2,0.2,0.5,0,0.7
				s-0.5,0.2-0.7,0l-3.4-3.4L43,18.3C42.9,18.4,42.8,18.4,42.7,18.4z"/>
		</g>
	</g>
	<g>
		<g>
			<path class="st1" d="M37.4,39.1c-0.1,0-0.3,0-0.4-0.1L20.7,22.7c-0.2-0.2-0.2-0.5,0-0.7s0.5-0.2,0.7,0l16.3,16.3
				c0.2,0.2,0.2,0.5,0,0.7C37.6,39.1,37.5,39.1,37.4,39.1z"/>
		</g>
		<g>
			<path class="st1" d="M21.1,28.2c-0.3,0-0.5-0.2-0.5-0.5v-5.9h5.9c0.3,0,0.5,0.2,0.5,0.5c0,0.3-0.2,0.5-0.5,0.5h-4.9v4.9
				C21.6,28,21.3,28.2,21.1,28.2z"/>
		</g>
	</g>
</g>
</svg>
