<?xml version="1.0" encoding="utf-8"?>
<!-- Generator: Adobe Illustrator 22.0.0, SVG Export Plug-In . SVG Version: 6.00 Build 0)  -->
<svg width="64" height="64" version="1.1" id="Layer_1" xmlns="http://www.w3.org/2000/svg" xmlns:xlink="http://www.w3.org/1999/xlink" x="0px" y="0px"
	 viewBox="0 0 64 64" style="enable-background:new 0 0 64 64;" xml:space="preserve">
<style type="text/css">
	.st0{fill:#AAAAAA;}
	.st1{fill:none;stroke:#AAAAAA;stroke-miterlimit:10;}
	.st2{fill:#FFFFFF;}
</style>
<g>
	<g id="ic-database_1_">
		<g>
			<path class="st0" d="M21.4,11.4c-8.7,0-17.9-2-17.9-5.7S12.7,0,21.4,0c8.7,0,17.9,2,17.9,5.7S30.1,11.4,21.4,11.4z M21.4,1
				C11.4,1,4.5,3.5,4.5,5.7s7,4.7,16.9,4.7c10,0,16.9-2.5,16.9-4.7S31.4,1,21.4,1z"/>
		</g>
		<g>
			<path class="st0" d="M21.4,23.9c-9,0-16.5-2-17.7-4.8c-0.1-0.3-0.2-0.6-0.2-0.9c0-0.3,0.1-0.6,0.2-0.9l0.9,0.4
				c-0.1,0.2-0.1,0.3-0.1,0.5c0,0.2,0,0.3,0.1,0.5c0.9,2.1,7.5,4.2,16.8,4.2s15.9-2.1,16.8-4.2c0.1-0.2,0.1-0.3,0.1-0.5
				c0-0.2,0-0.3-0.1-0.5l0.9-0.4c0.1,0.3,0.2,0.6,0.2,0.9c0,0.3-0.1,0.6-0.2,0.9C37.9,21.9,30.4,23.9,21.4,23.9z"/>
		</g>
		<g>
			<rect x="38.2" y="6.4" class="st0" width="1" height="12.6"/>
		</g>
		<g>
			<rect x="3.6" y="6.4" class="st0" width="1" height="12.6"/>
		</g>
	</g>
	<g id="ic-database_2_">
		<g>
			<path class="st0" d="M21.4,36c-9,0-16.5-2-17.7-4.8c-0.1-0.3-0.2-0.6-0.2-0.9c0-0.3,0.1-0.6,0.2-0.9l0.9,0.4
				c-0.1,0.2-0.1,0.3-0.1,0.5c0,0.2,0,0.3,0.1,0.5C5.5,32.9,12,35,21.4,35s15.9-2.1,16.8-4.2c0.1-0.2,0.1-0.3,0.1-0.5
				c0-0.2,0-0.3-0.1-0.5l0.9-0.4c0.1,0.3,0.2,0.6,0.2,0.9c0,0.3-0.1,0.6-0.2,0.9C37.9,34,30.4,36,21.4,36z"/>
		</g>
		<g>
			<rect x="38.2" y="18.5" class="st0" width="1" height="12.6"/>
		</g>
		<g>
			<rect x="3.6" y="18.5" class="st0" width="1" height="12.6"/>
		</g>
	</g>
	<g id="ic-database_3_">
		<g>
			<path class="st0" d="M21.4,47.8c-9,0-16.5-2-17.7-4.8c-0.1-0.3-0.2-0.6-0.2-0.9c0-0.3,0.1-0.6,0.2-0.9l0.9,0.4
				c-0.1,0.2-0.1,0.3-0.1,0.5c0,0.2,0,0.3,0.1,0.5c0.9,2.1,7.5,4.2,16.8,4.2s15.9-2.1,16.8-4.2c0.1-0.2,0.1-0.3,0.1-0.5
				c0-0.2,0-0.3-0.1-0.5l0.9-0.4c0.1,0.3,0.2,0.6,0.2,0.9c0,0.3-0.1,0.6-0.2,0.9C37.9,45.8,30.4,47.8,21.4,47.8z"/>
		</g>
		<g>
			<rect x="38.2" y="30.3" class="st0" width="1" height="12.6"/>
		</g>
		<g>
			<rect x="3.6" y="30.3" class="st0" width="1" height="12.6"/>
		</g>
	</g>
	<g>
		<circle class="st2" cx="9.3" cy="15.5" r="1.4"/>
		<path class="st0" d="M9.3,17.5c-1.1,0-1.9-0.9-1.9-1.9s0.9-1.9,1.9-1.9c1.1,0,1.9,0.9,1.9,1.9S10.3,17.5,9.3,17.5z M9.3,14.6
			c-0.5,0-0.9,0.4-0.9,0.9c0,0.5,0.4,0.9,0.9,0.9s0.9-0.4,0.9-0.9C10.2,15,9.8,14.6,9.3,14.6z"/>
	</g>
	<g>
		<circle class="st2" cx="9.3" cy="27.5" r="1.4"/>
		<path class="st0" d="M9.3,29.5c-1.1,0-1.9-0.9-1.9-1.9c0-1.1,0.9-1.9,1.9-1.9c1.1,0,1.9,0.9,1.9,1.9C11.2,28.6,10.3,29.5,9.3,29.5
			z M9.3,26.6c-0.5,0-0.9,0.4-0.9,0.9c0,0.5,0.4,0.9,0.9,0.9s0.9-0.4,0.9-0.9C10.2,27,9.8,26.6,9.3,26.6z"/>
	</g>
	<g>
		<circle class="st2" cx="9.3" cy="39.6" r="1.4"/>
		<path class="st0" d="M9.3,41.5c-1.1,0-1.9-0.9-1.9-1.9s0.9-1.9,1.9-1.9c1.1,0,1.9,0.9,1.9,1.9S10.3,41.5,9.3,41.5z M9.3,38.7
			c-0.5,0-0.9,0.4-0.9,0.9c0,0.5,0.4,0.9,0.9,0.9s0.9-0.4,0.9-0.9C10.2,39.1,9.8,38.7,9.3,38.7z"/>
	</g>
	<g>
		<g>
			<g>
				<circle class="st2" cx="43.5" cy="46.9" r="16.6"/>
				<path class="st0" d="M43.5,64c-9.4,0-17.1-7.7-17.1-17.1s7.7-17.1,17.1-17.1s17.1,7.7,17.1,17.1S52.9,64,43.5,64z M43.5,30.9
					c-8.9,0-16.1,7.2-16.1,16.1S34.6,63,43.5,63s16.1-7.2,16.1-16.1S52.3,30.9,43.5,30.9z"/>
			</g>
		</g>
		<g>
			<g>
				<circle class="st2" cx="43.5" cy="46.9" r="9"/>
				<path class="st0" d="M43.5,56.5c-5.3,0-9.5-4.3-9.5-9.5s4.3-9.5,9.5-9.5s9.5,4.3,9.5,9.5S48.8,56.5,43.5,56.5z M43.5,38.4
					c-4.7,0-8.5,3.8-8.5,8.5s3.8,8.5,8.5,8.5s8.5-3.8,8.5-8.5S48.2,38.4,43.5,38.4z"/>
			</g>
		</g>
	</g>
	<g>
		<g>
			<path class="st0" d="M49.3,49c-0.1,0-0.3,0-0.4-0.1c-0.2-0.2-0.2-0.5,0-0.7l3.4-3.4l3.3,3.3c0.2,0.2,0.2,0.5,0,0.7
				c-0.2,0.2-0.5,0.2-0.7,0l-2.6-2.6l-2.7,2.7C49.6,48.9,49.5,49,49.3,49z"/>
		</g>
		<g>
			<path class="st0" d="M34.6,49.3l-3.5-3.5c-0.2-0.2-0.2-0.5,0-0.7c0.2-0.2,0.5-0.2,0.7,0l2.8,2.8l2.9-2.9c0.2-0.2,0.5-0.2,0.7,0
				c0.2,0.2,0.2,0.5,0,0.7L34.6,49.3z"/>
		</g>
	</g>
</g>
</svg>
