<?xml version="1.0" encoding="utf-8"?>
<!-- Generator: Adobe Illustrator 22.0.0, SVG Export Plug-In . SVG Version: 6.00 Build 0)  -->
<svg width="64" height="64" version="1.1" id="Layer_1" xmlns="http://www.w3.org/2000/svg" xmlns:xlink="http://www.w3.org/1999/xlink" x="0px" y="0px"
	 viewBox="0 0 64 64" style="enable-background:new 0 0 64 64;" xml:space="preserve">
<style type="text/css">
	.st0{fill:#FFFFFF;}
	.st1{fill:#AAAAAA;}
</style>
<g>
	<g>
		<g>
			<path class="st0" d="M45.5,46.6h-44c-0.6,0-1-0.4-1-1v-44c0-0.6,0.4-1,1-1h44c0.6,0,1,0.4,1,1v44C46.5,46.1,46.1,46.6,45.5,46.6z
				"/>
			<path class="st1" d="M45.5,47.1h-44c-0.8,0-1.5-0.7-1.5-1.5v-44C0,0.7,0.7,0,1.5,0h44C46.3,0,47,0.7,47,1.5v44
				C47,46.4,46.3,47.1,45.5,47.1z M1.5,1C1.2,1,1,1.3,1,1.5v44c0,0.3,0.2,0.5,0.5,0.5h44c0.3,0,0.5-0.2,0.5-0.5v-44
				C46,1.3,45.8,1,45.5,1H1.5z"/>
		</g>
		<g>
			<rect x="0.1" y="7.6" class="st1" width="46" height="1"/>
		</g>
		<g>
			<path class="st1" d="M40.7,5.6c-0.8,0-1.5-0.7-1.5-1.5s0.7-1.5,1.5-1.5c0.8,0,1.5,0.7,1.5,1.5S41.5,5.6,40.7,5.6z M40.7,3.6
				c-0.3,0-0.5,0.2-0.5,0.5s0.2,0.5,0.5,0.5c0.3,0,0.5-0.2,0.5-0.5S40.9,3.6,40.7,3.6z"/>
		</g>
	</g>
	<g>
		<g>
			<path class="st1" d="M28.8,17H7.7c-0.3,0-0.5-0.2-0.5-0.5S7.4,16,7.7,16h21.1c0.3,0,0.5,0.2,0.5,0.5S29.1,17,28.8,17z"/>
		</g>
		<g>
			<path class="st1" d="M20.8,22.2H7.7c-0.3,0-0.5-0.2-0.5-0.5c0-0.3,0.2-0.5,0.5-0.5h13.1c0.3,0,0.5,0.2,0.5,0.5
				C21.3,22,21.1,22.2,20.8,22.2z"/>
		</g>
	</g>
	<g>
		<g>
			<circle class="st0" cx="47" cy="47" r="16.5"/>
			<path class="st1" d="M47,64c-9.4,0-17-7.6-17-17s7.6-17,17-17s17,7.6,17,17S56.4,64,47,64z M47,31c-8.8,0-16,7.2-16,16
				s7.2,16,16,16s16-7.2,16-16S55.8,31,47,31z"/>
		</g>
		<g>
			<g>
				<path class="st1" d="M36.3,47.3l5.4-2.8v0.8l-4.6,2.3v0l4.6,2.3v0.8l-5.4-2.8V47.3z"/>
				<path class="st1" d="M42,51.1l-5.9-3v-0.9l5.9-3v1.4l-4.3,2.1l4.3,2.1V51.1z M36.6,47.8l4.9,2.5v-0.2l-4.6-2.3v-0.3l0.1-0.1
					l4.4-2.2v-0.2l-4.9,2.5V47.8z"/>
			</g>
			<g>
				<path class="st1" d="M45,51.2l3.3-8.5H49l-3.3,8.5H45z"/>
				<path class="st1" d="M45.9,51.4h-1.3l3.4-9h1.3L45.9,51.4z M45.3,50.9h0.2l3.1-8h-0.3L45.3,50.9z"/>
			</g>
			<g>
				<path class="st1" d="M57.7,47.9l-5.4,2.8v-0.8l4.6-2.3v0l-4.6-2.3v-0.8l5.4,2.8V47.9z"/>
				<path class="st1" d="M52,51.1v-1.4l4.3-2.1L52,45.5v-1.4l5.9,3v1L52,51.1z M52.5,50.1v0.2l4.9-2.5v-0.3l-4.9-2.5v0.2l4.6,2.3
					v0.3L57,47.9L52.5,50.1z"/>
			</g>
		</g>
	</g>
</g>
</svg>
